{
DisplayStrings = (
"/Eng fg/ij j/dotlessj/eng p\U00FEqy/integral |\U00A6\U00B6"
);
copyright = "Copyright (c) 2014 Quote-Unquote Apps.";
customParameters = (
{
name = openTypeNameLicenseURL;
value = "http://scripts.sil.org/OFL";
},
{
name = openTypeNameLicense;
value = "SIL Open Font License (OFL)";
},
{
name = openTypeOS2VendorID;
value = QUQA;
}
);
date = "2014-11-14 05:25:25 +0000";
designer = "Alan Dague-Greene";
designerURL = "http://basicrecipe.com";
familyName = "Highland Sans";
featurePrefixes = (
{
code = "languagesystem DFLT dflt;\012languagesystem latn dflt;";
name = "FontLab OTPanel";
}
);
features = (
{
code = "feature calt;\012";
name = aalt;
},
{

glyphs = (
{
glyphname = A;
lastChange = "2014-05-18 17:36:11 -0700";
layers = (
{
layerId = UUID0;
name = "Regular Italic";
paths = (
{
closed = 1;
nodes = (
"692 1209 OFFCURVE",
"657 1191 OFFCURVE",
"631 1144 CURVE SMOOTH",
"54 91 LINE SMOOTH",
"30 47 OFFCURVE",
"38 23 OFFCURVE",
"87 0 CURVE SMOOTH",
"135 -23 OFFCURVE",
"168 -16 OFFCURVE",
"192 28 CURVE SMOOTH",
"393 398 LINE",
"401 414 LINE",
"731 1043 LINE",
"843 420 LINE",
"847 401 LINE",
"916 41 LINE SMOOTH",
"924 -3 OFFCURVE",
"944 -15 OFFCURVE",
"1004 -8 CURVE SMOOTH",
"1064 -1 OFFCURVE",
"1075 19 OFFCURVE",
"1066 63 CURVE SMOOTH",
"855 1144 LINE SMOOTH",
"846 1191 OFFCURVE",
"818 1209 OFFCURVE",
"755 1209 CURVE SMOOTH"
);
},
{
closed = 1;
nodes = (
"368 474 LINE",
"318 330 LINE",
"882 330 LINE",
"869 474 LINE"
);
}
);
width = 1228;
},
{
layerId = "0791FDB8-5A5D-41D7-9039-1C27D6F382A7";
name = "Bold Italic";
paths = (
{
closed = 1;
nodes = (
"674 1209 OFFCURVE",
"633 1191 OFFCURVE",
"607 1144 CURVE SMOOTH",
"27 102 LINE SMOOTH",
"1 56 OFFCURVE",
"11 24 OFFCURVE",
"106 -2 CURVE SMOOTH",
"193 -26 OFFCURVE",
"243 -17 OFFCURVE",
"268 27 CURVE SMOOTH",
"381 234 LINE",
"485 441 LINE",
"708 865 LINE",
"778 439 LINE",
"808 236 LINE",
"846 27 LINE SMOOTH",
"854 -17 OFFCURVE",
"893 -20 OFFCURVE",
"987 -2 CURVE SMOOTH",
"1082 16 OFFCURVE",
"1103 45 OFFCURVE",
"1094 90 CURVE SMOOTH",
"891 1144 LINE SMOOTH",
"882 1190 OFFCURVE",
"850 1209 OFFCURVE",
"762 1209 CURVE SMOOTH"
);
},
{
closed = 1;
nodes = (
"476 455 LINE",
"357 220 LINE",
"827 220 LINE",
"791 455 LINE"
);
}
);
width = 1228;
}
);
unicode = 0041;
},
{
color = (0,3,255,1);
glyphname = Aogonek;
lastChange = "2014-11-15 18:06:34 -0700";
layers = (
{
background = {
paths = (
{
closed = 1;
nodes = (
"869 474 LINE",
"368 474 LINE",
"326 417 LINE",
"318 330 LINE",
"882 330 LINE",
"897 386 LINE"
);
},
{
closed = 1;
nodes = (
"393 398 LINE",
"731 1043 LINE",
"843 420 LINE",
"921 15 LINE",
"1055 8 LINE",
"1070 20 OFFCURVE",
"1071 37 OFFCURVE",
"1066 63 CURVE SMOOTH",
"855 1144 LINE SMOOTH",
"846 1191 OFFCURVE",
"818 1209 OFFCURVE",
"755 1209 CURVE SMOOTH",
"692 1209 OFFCURVE",
"657 1191 OFFCURVE",
"631 1144 CURVE SMOOTH",
"54 91 LINE SMOOTH",
"30 47 OFFCURVE",
"38 23 OFFCURVE",
"87 0 CURVE SMOOTH",
"135 -23 OFFCURVE",
"168 -16 OFFCURVE",
"192 28 CURVE SMOOTH"
);
},
{
closed = 1;
nodes = (
"854 -336 OFFCURVE",
"829 -316 OFFCURVE",
"829 -277 CURVE SMOOTH",
"829 -204 OFFCURVE",
"900 -114 OFFCURVE",
"1055 8 CURVE",
"1040 33 LINE",
"926 39 LINE",
"766 -74 OFFCURVE",
"673 -186 OFFCURVE",
"673 -310 CURVE SMOOTH",
"673 -406 OFFCURVE",
"731 -472 OFFCURVE",
"838 -472 CURVE SMOOTH",
"902 -472 OFFCURVE",
"967 -460 OFFCURVE",
"1016 -443 CURVE SMOOTH",
"1047 -432 OFFCURVE",
"1057 -411 OFFCURVE",
"1052 -374 CURVE SMOOTH",
"1047 -337 OFFCURVE",
"1032 -322 OFFCURVE",
"1005 -326 CURVE SMOOTH",
"969 -332 OFFCURVE",
"933 -336 OFFCURVE",
"894 -336 CURVE SMOOTH"
);
}
);
};
layerId = UUID0;
name = "Regular Italic";
paths = (
{
closed = 1;
nodes = (
"692 1209 OFFCURVE",
"657 1191 OFFCURVE",
"631 1144 CURVE SMOOTH",
"54 91 LINE SMOOTH",
"30 47 OFFCURVE",
"38 23 OFFCURVE",
"87 0 CURVE SMOOTH",
"135 -23 OFFCURVE",
"168 -16 OFFCURVE",
"192 28 CURVE SMOOTH",
"356.059 330 LINE",
"860.333 330 LINE",
"917.537 32.9792 LINE",
"762.725 -77.9827 OFFCURVE",
"673 -188.203 OFFCURVE",
"673 -310 CURVE SMOOTH",
"673 -406 OFFCURVE",
"731 -472 OFFCURVE",
"838 -472 CURVE SMOOTH",
"902 -472 OFFCURVE",
"967 -460 OFFCURVE",
"1016 -443 CURVE SMOOTH",
"1047 -432 OFFCURVE",
"1057 -411 OFFCURVE",
"1052 -374 CURVE SMOOTH",
"1047 -337 OFFCURVE",
"1032 -322 OFFCURVE",
"1005 -326 CURVE SMOOTH",
"969 -332 OFFCURVE",
"933 -336 OFFCURVE",
"894 -336 CURVE SMOOTH",
"854 -336 OFFCURVE",
"829 -316 OFFCURVE",
"829 -277 CURVE SMOOTH",
"829 -204 OFFCURVE",
"900 -114 OFFCURVE",
"1055 8 CURVE SMOOTH",
"1070 20 OFFCURVE",
"1071 37 OFFCURVE",
"1066 63 CURVE SMOOTH",
"855 1144 LINE SMOOTH",
"846 1191 OFFCURVE",
"818 1209 OFFCURVE",
"755 1209 CURVE SMOOTH"
);
},
{
closed = 1;
nodes = (
"833.292 474 LINE",
"432.826 474 LINE",
"731 1043 LINE"
);
}
);
width = 1228;
},
{
layerId = "0791FDB8-5A5D-41D7-9039-1C27D6F382A7";
name = "Bold Italic";
paths = (
{
closed = 1;
nodes = (
"674 1209 OFFCURVE",
"633 1191 OFFCURVE",
"607 1144 CURVE SMOOTH",
"27 102 LINE SMOOTH",
"1 56 OFFCURVE",
"11 24 OFFCURVE",
"106 -2 CURVE SMOOTH",
"193 -26 OFFCURVE",
"244 -17 OFFCURVE",
"268 27 CURVE SMOOTH",
"373 220 LINE",
"811 220 LINE",
"847 18 LINE",
"700 -62 OFFCURVE",
"583 -163 OFFCURVE",
"583 -300 CURVE SMOOTH",
"583 -408 OFFCURVE",
"666 -472 OFFCURVE",
"805 -472 CURVE SMOOTH",
"884 -472 OFFCURVE",
"976 -457 OFFCURVE",
"1042 -436 CURVE SMOOTH",
"1072 -427 OFFCURVE",
"1088 -400 OFFCURVE",
"1082 -350 CURVE SMOOTH",
"1076 -302 OFFCURVE",
"1057 -280 OFFCURVE",
"1030 -285 CURVE SMOOTH",
"990 -292 OFFCURVE",
"950 -298 OFFCURVE",
"911 -298 CURVE SMOOTH",
"862 -298 OFFCURVE",
"833 -280 OFFCURVE",
"833 -235 CURVE SMOOTH",
"833 -159 OFFCURVE",
"939 -67 OFFCURVE",
"1073 28 CURVE",
"1094 44 OFFCURVE",
"1099 64 OFFCURVE",
"1094 90 CURVE SMOOTH",
"891 1144 LINE SMOOTH",
"882 1190 OFFCURVE",
"850 1209 OFFCURVE",
"762 1209 CURVE SMOOTH"
);
},
{
closed = 1;
nodes = (
"775 455 LINE",
"492 455 LINE",
"708 865 LINE"
);
}
);
width = 1228;
}
);
unicode = 0104;
},
{
glyphname = AE;
lastChange = "2014-11-15 18:08:17 -0700";
layers = (
{
background = {
paths = (
{
closed = 1;
nodes = (
"1037 0 LINE SMOOTH",
"1082 0 OFFCURVE",
"1103 20 OFFCURVE",
"1112 72 CURVE SMOOTH",
"1121 124 OFFCURVE",
"1107 144 OFFCURVE",
"1062 144 CURVE SMOOTH",
"680 144 LINE",
"750 540 LINE",
"1067 540 LINE SMOOTH",
"1112 540 OFFCURVE",
"1133 560 OFFCURVE",
"1142 612 CURVE SMOOTH",
"1152 664 OFFCURVE",
"1137 684 OFFCURVE",
"1092 684 CURVE SMOOTH",
"775 684 LINE",
"838 1043 LINE",
"1200 1043 LINE SMOOTH",
"1245 1043 OFFCURVE",
"1267 1063 OFFCURVE",
"1276 1115 CURVE SMOOTH",
"1285 1167 OFFCURVE",
"1271 1187 OFFCURVE",
"1226 1187 CURVE SMOOTH",
"775 1187 LINE",
"702 1119 LINE",
"516 68 LINE SMOOTH",
"507 18 OFFCURVE",
"525 0 OFFCURVE",
"570 0 CURVE SMOOTH"
);
},
{
closed = 1;
nodes = (
"649 514 LINE",
"298 514 LINE",
"256 457 LINE",
"248 370 LINE",
"612 370 LINE"
);
},
{
closed = 1;
nodes = (
"658 1187 LINE SMOOTH",
"613 1187 OFFCURVE",
"585 1169 OFFCURVE",
"557 1119 CURVE",
"-26 91 LINE SMOOTH",
"-51 47 OFFCURVE",
"-43 22 OFFCURVE",
"4 0 CURVE SMOOTH",
"52 -23 OFFCURVE",
"85 -16 OFFCURVE",
"110 28 CURVE SMOOTH",
"319 398 LINE",
"669 1043 LINE",
"744 1043 LINE",
"805 1187 LINE"
);
}
);
};
layerId = UUID0;
name = "Regular Italic";
paths = (
{
closed = 1;
nodes = (
"658 1187 LINE SMOOTH",
"613 1187 OFFCURVE",
"585 1169 OFFCURVE",
"557 1119 CURVE SMOOTH",
"-26 91 LINE SMOOTH",
"-51 47 OFFCURVE",
"-43 22 OFFCURVE",
"4 0 CURVE SMOOTH",
"52 -23 OFFCURVE",
"85 -16 OFFCURVE",
"110 28 CURVE SMOOTH",
"319 398 LINE",
"346 448 LINE",
"669 1043 LINE",
"688.55 1043 LINE",
"516 68 LINE SMOOTH",
"507 18 OFFCURVE",
"525 0 OFFCURVE",
"570 0 CURVE SMOOTH",
"1037 0 LINE SMOOTH",
"1082 0 OFFCURVE",
"1103 20 OFFCURVE",
"1112 72 CURVE SMOOTH",
"1121 124 OFFCURVE",
"1107 144 OFFCURVE",
"1062 144 CURVE SMOOTH",
"680 144 LINE",
"750 540 LINE",
"1067 540 LINE SMOOTH",
"1112 540 OFFCURVE",
"1133 560 OFFCURVE",
"1142 612 CURVE SMOOTH",
"1152 664 OFFCURVE",
"1137 684 OFFCURVE",
"1092 684 CURVE SMOOTH",
"775 684 LINE",
"838 1043 LINE",
"1200 1043 LINE SMOOTH",
"1245 1043 OFFCURVE",
"1267 1063 OFFCURVE",
"1276 1115 CURVE SMOOTH",
"1285 1167 OFFCURVE",
"1271 1187 OFFCURVE",
"1226 1187 CURVE SMOOTH"
);
},
{
closed = 1;
nodes = (
"298 514 LINE",
"248 370 LINE",
"612 370 LINE",
"649 514 LINE"
);
}
);
width = 1228;
},
{
background = {
paths = (
{
closed = 1;
nodes = (
"260 270 LINE",
"527 270 LINE",
"491 63 LINE SMOOTH",
"483 18 OFFCURVE",
"498 0 OFFCURVE",
"543 0 CURVE SMOOTH",
"1047 0 LINE SMOOTH",
"1092 0 OFFCURVE",
"1113 22 OFFCURVE",
"1130 117 CURVE SMOOTH",
"1147 212 OFFCURVE",
"1133 235 OFFCURVE",
"1088 235 CURVE SMOOTH",
"771 235 LINE",
"817 494 LINE",
"1051 494 LINE SMOOTH",
"1096 494 OFFCURVE",
"1117 516 OFFCURVE",
"1134 611 CURVE SMOOTH",
"1151 706 OFFCURVE",
"1137 729 OFFCURVE",
"1092 729 CURVE SMOOTH",
"858 729 LINE",
"897 952 LINE",
"1194 952 LINE SMOOTH",
"1239 952 OFFCURVE",
"1261 974 OFFCURVE",
"1278 1069 CURVE SMOOTH",
"1295 1164 OFFCURVE",
"1281 1187 OFFCURVE",
"1236 1187 CURVE",
"557 1187 LINE SMOOTH",
"512 1187 OFFCURVE",
"492 1168 OFFCURVE",
"473 1130 CURVE SMOOTH",
"-53 110 LINE SMOOTH",
"-76 65 OFFCURVE",
"-72 28 OFFCURVE",
"16 0 CURVE SMOOTH",
"103 -28 OFFCURVE",
"157 -23 OFFCURVE",
"179 21 CURVE SMOOTH",
"395 450 LINE",
"402 480 LINE",
"630 952 LINE",
"647 952 LINE",
"569 505 LINE",
"328 505 LINE"
);
}
);
};
layerId = "0791FDB8-5A5D-41D7-9039-1C27D6F382A7";
name = "Bold Italic";
paths = (
{
closed = 1;
nodes = (
"557 1187 LINE SMOOTH",
"512 1187 OFFCURVE",
"492 1168 OFFCURVE",
"473 1130 CURVE SMOOTH",
"-53 110 LINE SMOOTH",
"-76 65 OFFCURVE",
"-72 28 OFFCURVE",
"16 0 CURVE SMOOTH",
"103 -28 OFFCURVE",
"157 -23 OFFCURVE",
"179 21 CURVE SMOOTH",
"395 450 LINE",
"402 480 LINE",
"630 952 LINE",
"647 952 LINE",
"491 63 LINE SMOOTH",
"483 18 OFFCURVE",
"498 0 OFFCURVE",
"543 0 CURVE SMOOTH",
"1047 0 LINE SMOOTH",
"1092 0 OFFCURVE",
"1113 22 OFFCURVE",
"1130 117 CURVE SMOOTH",
"1147 212 OFFCURVE",
"1133 235 OFFCURVE",
"1088 235 CURVE SMOOTH",
"771 235 LINE",
"817 494 LINE",
"1051 494 LINE SMOOTH",
"1096 494 OFFCURVE",
"1117 516 OFFCURVE",
"1134 611 CURVE SMOOTH",
"1151 706 OFFCURVE",
"1137 729 OFFCURVE",
"1092 729 CURVE SMOOTH",
"858 729 LINE",
"897 952 LINE",
"1194 952 LINE SMOOTH",
"1239 952 OFFCURVE",
"1261 974 OFFCURVE",
"1278 1069 CURVE SMOOTH",
"1295 1164 OFFCURVE",
"1281 1187 OFFCURVE",
"1236 1187 CURVE SMOOTH"
);
},
{
closed = 1;
nodes = (
"328 505 LINE",
"260 270 LINE",
"593 270 LINE",
"635 505 LINE"
);
}
);
width = 1228;
}
);
unicode = 00C6;
},
{
glyphname = B;
lastChange = "2014-05-18 17:29:41 -0700";
layers = (
{
layerId = UUID0;
name = "Regular Italic";
paths = (
{
closed = 1;
nodes = (
"405 1187 LINE SMOOTH",
"360 1187 OFFCURVE",
"341 1169 OFFCURVE",
"332 1119 CURVE SMOOTH",
"146 68 LINE SMOOTH",
"137 18 OFFCURVE",
"155 0 OFFCURVE",
"200 0 CURVE SMOOTH",
"630 0 LINE SMOOTH",
"794 0 OFFCURVE",
"903 51 OFFCURVE",
"972 123 CURVE SMOOTH",
"1039 193 OFFCURVE",
"1066 283 OFFCURVE",
"1066 366 CURVE SMOOTH",
"1066 485 OFFCURVE",
"1010 573 OFFCURVE",
"909 612 CURVE",
"1023 673 OFFCURVE",
"1094 764 OFFCURVE",
"1094 914 CURVE SMOOTH",
"1094 1076 OFFCURVE",
"991 1187 OFFCURVE",
"777 1187 CURVE SMOOTH"
);
},
{
closed = 1;
nodes = (
"840 531 OFFCURVE",
"909 476 OFFCURVE",
"909 368 CURVE SMOOTH",
"909 308 OFFCURVE",
"889 259 OFFCURVE",
"853 222 CURVE SMOOTH",
"803 172 OFFCURVE",
"721 144 OFFCURVE",
"616 144 CURVE SMOOTH",
"310 144 LINE",
"378 531 LINE",
"701 531 LINE SMOOTH"
);
},
{
closed = 1;
nodes = (
"885 1043 OFFCURVE",
"941 994 OFFCURVE",
"941 897 CURVE SMOOTH",
"941 846 OFFCURVE",
"926 796 OFFCURVE",
"892 757 CURVE SMOOTH",
"850 708 OFFCURVE",
"779 675 OFFCURVE",
"672 675 CURVE SMOOTH",
"404 675 LINE",
"468 1043 LINE",
"747 1043 LINE SMOOTH"
);
}
);
width = 1228;
},
{
background = {
paths = (
{
closed = 1;
nodes = (
"382 1187 LINE SMOOTH",
"337 1187 OFFCURVE",
"316 1169 OFFCURVE",
"308 1124 CURVE SMOOTH",
"121 63 LINE SMOOTH",
"113 18 OFFCURVE",
"128 0 OFFCURVE",
"173 0 CURVE SMOOTH",
"607 0 LINE SMOOTH",
"774 0 OFFCURVE",
"904 38 OFFCURVE",
"988 119 CURVE SMOOTH",
"1063 191 OFFCURVE",
"1099 299 OFFCURVE",
"1099 394 CURVE SMOOTH",
"1099 515 OFFCURVE",
"1041 588 OFFCURVE",
"941 621 CURVE",
"1078 678 OFFCURVE",
"1146 777 OFFCURVE",
"1146 913 CURVE SMOOTH",
"1146 1074 OFFCURVE",
"1025 1187 OFFCURVE",
"770 1187 CURVE SMOOTH"
);
},
{
closed = 1;
nodes = (
"784 499 OFFCURVE",
"840 463 OFFCURVE",
"840 386 CURVE SMOOTH",
"840 340 OFFCURVE",
"823 296 OFFCURVE",
"793 267 CURVE SMOOTH",
"757 232 OFFCURVE",
"700 215 OFFCURVE",
"619 215 CURVE SMOOTH",
"398 215 LINE",
"447 499 LINE",
"668 499 LINE SMOOTH"
);
},
{
closed = 1;
nodes = (
"840 972 OFFCURVE",
"890 943 OFFCURVE",
"890 875 CURVE SMOOTH",
"890 835 OFFCURVE",
"876 794 OFFCURVE",
"852 767 CURVE SMOOTH",
"819 731 OFFCURVE",
"765 714 OFFCURVE",
"687 714 CURVE SMOOTH",
"486 714 LINE",
"531 972 LINE",
"732 972 LINE SMOOTH"
);
}
);
};
layerId = "0791FDB8-5A5D-41D7-9039-1C27D6F382A7";
name = "Bold Italic";
paths = (
{
closed = 1;
nodes = (
"382 1187 LINE SMOOTH",
"337 1187 OFFCURVE",
"316 1169 OFFCURVE",
"308 1124 CURVE SMOOTH",
"121 63 LINE SMOOTH",
"113 18 OFFCURVE",
"128 0 OFFCURVE",
"173 0 CURVE SMOOTH",
"607 0 LINE SMOOTH",
"774 0 OFFCURVE",
"904 38 OFFCURVE",
"988 119 CURVE SMOOTH",
"1063 191 OFFCURVE",
"1099 299 OFFCURVE",
"1099 394 CURVE SMOOTH",
"1099 515 OFFCURVE",
"1041 588 OFFCURVE",
"941 621 CURVE",
"1078 678 OFFCURVE",
"1146 777 OFFCURVE",
"1146 913 CURVE SMOOTH",
"1146 1074 OFFCURVE",
"1025 1187 OFFCURVE",
"770 1187 CURVE SMOOTH"
);
},
{
closed = 1;
nodes = (
"784 499 OFFCURVE",
"840 463 OFFCURVE",
"840 386 CURVE SMOOTH",
"840 340 OFFCURVE",
"823 296 OFFCURVE",
"793 267 CURVE SMOOTH",
"757 232 OFFCURVE",
"700 215 OFFCURVE",
"619 215 CURVE SMOOTH",
"398 215 LINE",
"447 499 LINE",
"668 499 LINE SMOOTH"
);
},
{
closed = 1;
nodes = (
"840 972 OFFCURVE",
"890 943 OFFCURVE",
"890 875 CURVE SMOOTH",
"890 835 OFFCURVE",
"876 794 OFFCURVE",
"852 767 CURVE SMOOTH",
"819 731 OFFCURVE",
"765 714 OFFCURVE",
"687 714 CURVE SMOOTH",
"486 714 LINE",
"531 972 LINE",
"732 972 LINE SMOOTH"
);
}
);
width = 1228;
}
);
unicode = 0042;
},
{
glyphname = C;
lastChange = "2014-05-18 17:27:49 -0700";
layers = (
{
layerId = UUID0;
name = "Regular Italic";
paths = (
{
closed = 1;
nodes = (
"415 1209 OFFCURVE",
"170 840 OFFCURVE",
"170 453 CURVE SMOOTH",
"170 166 OFFCURVE",
"333 -22 OFFCURVE",
"603 -22 CURVE SMOOTH",
"742 -22 OFFCURVE",
"875 14 OFFCURVE",
"1001 86 CURVE SMOOTH",
"1041 109 OFFCURVE",
"1046 141 OFFCURVE",
"1023 187 CURVE SMOOTH",
"999 234 OFFCURVE",
"965 242 OFFCURVE",
"934 222 CURVE SMOOTH",
"840 161 OFFCURVE",
"726 126 OFFCURVE",
"614 126 CURVE SMOOTH",
"432 126 OFFCURVE",
"324 251 OFFCURVE",
"324 461 CURVE SMOOTH",
"324 755 OFFCURVE",
"500 1061 OFFCURVE",
"789 1061 CURVE SMOOTH",
"887 1061 OFFCURVE",
"991 1034 OFFCURVE",
"1072 980 CURVE SMOOTH",
"1102 960 OFFCURVE",
"1137 968 OFFCURVE",
"1161 1015 CURVE SMOOTH",
"1184 1061 OFFCURVE",
"1179 1093 OFFCURVE",
"1139 1116 CURVE SMOOTH",
"1031 1179 OFFCURVE",
"918 1209 OFFCURVE",
"800 1209 CURVE SMOOTH"
);
}
);
width = 1228;
},
{
layerId = "0791FDB8-5A5D-41D7-9039-1C27D6F382A7";
name = "Bold Italic";
paths = (
{
closed = 1;
nodes = (
"369 1209 OFFCURVE",
"150 836 OFFCURVE",
"150 470 CURVE SMOOTH",
"150 162 OFFCURVE",
"337 -22 OFFCURVE",
"630 -22 CURVE SMOOTH",
"771 -22 OFFCURVE",
"906 9 OFFCURVE",
"1032 65 CURVE SMOOTH",
"1079 86 OFFCURVE",
"1092 128 OFFCURVE",
"1065 209 CURVE SMOOTH",
"1039 287 OFFCURVE",
"1008 304 OFFCURVE",
"965 285 CURVE SMOOTH",
"856 238 OFFCURVE",
"760 215 OFFCURVE",
"651 215 CURVE SMOOTH",
"494 215 OFFCURVE",
"412 307 OFFCURVE",
"412 483 CURVE SMOOTH",
"412 718 OFFCURVE",
"528 972 OFFCURVE",
"785 972 CURVE SMOOTH",
"894 972 OFFCURVE",
"982 949 OFFCURVE",
"1074 902 CURVE SMOOTH",
"1110 883 OFFCURVE",
"1151 896 OFFCURVE",
"1184 980 CURVE SMOOTH",
"1216 1061 OFFCURVE",
"1198 1101 OFFCURVE",
"1158 1122 CURVE SMOOTH",
"1052 1178 OFFCURVE",
"928 1209 OFFCURVE",
"787 1209 CURVE SMOOTH"
);
}
);
width = 1228;
}
);
unicode = 0043;
},
{
glyphname = D;
lastChange = "2014-11-15 18:10:41 -0700";
layers = (
{
background = {
paths = (
{
closed = 1;
nodes = (
"375 1187 LINE SMOOTH",
"330 1187 OFFCURVE",
"311 1169 OFFCURVE",
"302 1119 CURVE SMOOTH",
"116 68 LINE SMOOTH",
"107 18 OFFCURVE",
"125 0 OFFCURVE",
"170 0 CURVE SMOOTH",
"522 0 LINE SMOOTH",
"731 0 OFFCURVE",
"878 90 OFFCURVE",
"976 213 CURVE SMOOTH",
"1098 366 OFFCURVE",
"1146 571 OFFCURVE",
"1146 724 CURVE SMOOTH",
"1146 1011 OFFCURVE",
"974 1187 OFFCURVE",
"701 1187 CURVE SMOOTH"
);
},
{
closed = 1;
nodes = (
"869 1043 OFFCURVE",
"993 936 OFFCURVE",
"993 719 CURVE SMOOTH",
"993 592 OFFCURVE",
"956 432 OFFCURVE",
"864 313 CURVE SMOOTH",
"788 214 OFFCURVE",
"673 144 OFFCURVE",
"510 144 CURVE SMOOTH",
"280 144 LINE",
"438 1043 LINE",
"668 1043 LINE SMOOTH"
);
}
);
};
layerId = UUID0;
name = "Regular Italic";
paths = (
{
closed = 1;
nodes = (
"375 1187 LINE SMOOTH",
"330 1187 OFFCURVE",
"311 1169 OFFCURVE",
"302 1119 CURVE SMOOTH",
"116 68 LINE SMOOTH",
"107 18 OFFCURVE",
"125 0 OFFCURVE",
"170 0 CURVE SMOOTH",
"522 0 LINE SMOOTH",
"731 0 OFFCURVE",
"878 90 OFFCURVE",
"976 213 CURVE SMOOTH",
"1098 366 OFFCURVE",
"1146 571 OFFCURVE",
"1146 724 CURVE SMOOTH",
"1146 1011 OFFCURVE",
"974 1187 OFFCURVE",
"701 1187 CURVE SMOOTH"
);
},
{
closed = 1;
nodes = (
"869 1043 OFFCURVE",
"993 936 OFFCURVE",
"993 719 CURVE SMOOTH",
"993 592 OFFCURVE",
"956 432 OFFCURVE",
"864 313 CURVE SMOOTH",
"788 214 OFFCURVE",
"673 144 OFFCURVE",
"510 144 CURVE SMOOTH",
"280 144 LINE",
"438 1043 LINE",
"668 1043 LINE SMOOTH"
);
}
);
width = 1228;
},
{
background = {
paths = (
{
closed = 1;
nodes = (
"362 1187 LINE SMOOTH",
"317 1187 OFFCURVE",
"296 1169 OFFCURVE",
"288 1124 CURVE SMOOTH",
"101 63 LINE SMOOTH",
"93 18 OFFCURVE",
"108 0 OFFCURVE",
"153 0 CURVE SMOOTH",
"535 0 LINE SMOOTH",
"747 0 OFFCURVE",
"919 84 OFFCURVE",
"1034 241 CURVE SMOOTH",
"1129 371 OFFCURVE",
"1176 554 OFFCURVE",
"1176 706 CURVE SMOOTH",
"1176 1000 OFFCURVE",
"1007 1187 OFFCURVE",
"707 1187 CURVE SMOOTH"
);
},
{
closed = 1;
nodes = (
"839 952 OFFCURVE",
"914 864 OFFCURVE",
"914 705 CURVE SMOOTH",
"914 591 OFFCURVE",
"877 447 OFFCURVE",
"803 354 CURVE SMOOTH",
"741 277 OFFCURVE",
"649 235 OFFCURVE",
"541 235 CURVE SMOOTH",
"381 235 LINE",
"507 952 LINE",
"687 952 LINE SMOOTH"
);
}
);
};
layerId = "0791FDB8-5A5D-41D7-9039-1C27D6F382A7";
name = "Bold Italic";
paths = (
{
closed = 1;
nodes = (
"362 1187 LINE SMOOTH",
"317 1187 OFFCURVE",
"296 1169 OFFCURVE",
"288 1124 CURVE SMOOTH",
"101 63 LINE SMOOTH",
"93 18 OFFCURVE",
"108 0 OFFCURVE",
"153 0 CURVE SMOOTH",
"535 0 LINE SMOOTH",
"747 0 OFFCURVE",
"919 84 OFFCURVE",
"1034 241 CURVE SMOOTH",
"1129 371 OFFCURVE",
"1176 554 OFFCURVE",
"1176 706 CURVE SMOOTH",
"1176 1000 OFFCURVE",
"1007 1187 OFFCURVE",
"707 1187 CURVE SMOOTH"
);
},
{
closed = 1;
nodes = (
"839 952 OFFCURVE",
"914 864 OFFCURVE",
"914 705 CURVE SMOOTH",
"914 591 OFFCURVE",
"877 447 OFFCURVE",
"803 354 CURVE SMOOTH",
"741 277 OFFCURVE",
"649 235 OFFCURVE",
"541 235 CURVE SMOOTH",
"381 235 LINE",
"507 952 LINE",
"687 952 LINE SMOOTH"
);
}
);
width = 1228;
}
);
unicode = 0044;
},
{
glyphname = Eth;
lastChange = "2014-11-15 18:11:13 -0700";
layers = (
{
background = {
paths = (
{
closed = 1;
nodes = (
"425 1187 LINE SMOOTH",
"380 1187 OFFCURVE",
"361 1169 OFFCURVE",
"352 1119 CURVE SMOOTH",
"166 68 LINE SMOOTH",
"157 18 OFFCURVE",
"175 0 OFFCURVE",
"220 0 CURVE SMOOTH",
"542 0 LINE SMOOTH",
"1009 0 OFFCURVE",
"1166 447 OFFCURVE",
"1166 724 CURVE SMOOTH",
"1166 1011 OFFCURVE",
"994 1187 OFFCURVE",
"721 1187 CURVE SMOOTH"
);
},
{
closed = 1;
nodes = (
"889 1043 OFFCURVE",
"1013 936 OFFCURVE",
"1013 719 CURVE SMOOTH",
"1013 487 OFFCURVE",
"890 144 OFFCURVE",
"530 144 CURVE SMOOTH",
"330 144 LINE",
"488 1043 LINE",
"688 1043 LINE SMOOTH"
);
}
);
};
layerId = UUID0;
name = "Regular Italic";
paths = (
{
closed = 1;
nodes = (
"163 684 LINE SMOOTH",
"118 684 OFFCURVE",
"96 664 OFFCURVE",
"87 612 CURVE SMOOTH",
"78 560 OFFCURVE",
"92 540 OFFCURVE",
"137 540 CURVE SMOOTH",
"619 540 LINE SMOOTH",
"664 540 OFFCURVE",
"686 560 OFFCURVE",
"695 612 CURVE SMOOTH",
"704 664 OFFCURVE",
"690 684 OFFCURVE",
"645 684 CURVE SMOOTH"
);
},
{
closed = 1;
nodes = (
"425 1187 LINE SMOOTH",
"380 1187 OFFCURVE",
"361 1169 OFFCURVE",
"352 1119 CURVE SMOOTH",
"166 68 LINE SMOOTH",
"157 18 OFFCURVE",
"175 0 OFFCURVE",
"220 0 CURVE SMOOTH",
"522 0 LINE SMOOTH",
"731 0 OFFCURVE",
"878 90 OFFCURVE",
"976 213 CURVE SMOOTH",
"1098 366 OFFCURVE",
"1146 571 OFFCURVE",
"1146 724 CURVE SMOOTH",
"1146 1011 OFFCURVE",
"974 1187 OFFCURVE",
"701 1187 CURVE SMOOTH"
);
},
{
closed = 1;
nodes = (
"869 1043 OFFCURVE",
"993 936 OFFCURVE",
"993 719 CURVE SMOOTH",
"993 592 OFFCURVE",
"956 432 OFFCURVE",
"864 313 CURVE SMOOTH",
"788 214 OFFCURVE",
"673 144 OFFCURVE",
"510 144 CURVE SMOOTH",
"330 144 LINE",
"488 1043 LINE",
"668 1043 LINE SMOOTH"
);
}
);
width = 1228;
},
{
background = {
paths = (
{
closed = 1;
nodes = (
"392 1187 LINE SMOOTH",
"347 1187 OFFCURVE",
"326 1169 OFFCURVE",
"318 1124 CURVE SMOOTH",
"131 63 LINE SMOOTH",
"123 18 OFFCURVE",
"138 0 OFFCURVE",
"183 0 CURVE SMOOTH",
"535 0 LINE SMOOTH",
"747 0 OFFCURVE",
"919 84 OFFCURVE",
"1034 241 CURVE SMOOTH",
"1129 371 OFFCURVE",
"1176 554 OFFCURVE",
"1176 706 CURVE SMOOTH",
"1176 1000 OFFCURVE",
"1007 1187 OFFCURVE",
"707 1187 CURVE SMOOTH"
);
},
{
closed = 1;
nodes = (
"159 719 LINE SMOOTH",
"114 719 OFFCURVE",
"93 701 OFFCURVE",
"76 606 CURVE SMOOTH",
"60 511 OFFCURVE",
"75 494 OFFCURVE",
"120 494 CURVE SMOOTH",
"632 494 LINE SMOOTH",
"677 494 OFFCURVE",
"698 511 OFFCURVE",
"714 606 CURVE SMOOTH",
"731 701 OFFCURVE",
"716 719 OFFCURVE",
"671 719 CURVE SMOOTH"
);
},
{
closed = 1;
nodes = (
"839 952 OFFCURVE",
"914 864 OFFCURVE",
"914 705 CURVE SMOOTH",
"914 591 OFFCURVE",
"877 447 OFFCURVE",
"803 354 CURVE SMOOTH",
"741 277 OFFCURVE",
"649 235 OFFCURVE",
"541 235 CURVE SMOOTH",
"411 235 LINE",
"537 952 LINE",
"687 952 LINE SMOOTH"
);
}
);
};
layerId = "0791FDB8-5A5D-41D7-9039-1C27D6F382A7";
name = "Bold Italic";
paths = (
{
closed = 1;
nodes = (
"159 719 LINE SMOOTH",
"114 719 OFFCURVE",
"93 701 OFFCURVE",
"76 606 CURVE SMOOTH",
"60 511 OFFCURVE",
"75 494 OFFCURVE",
"120 494 CURVE SMOOTH",
"632 494 LINE SMOOTH",
"677 494 OFFCURVE",
"698 511 OFFCURVE",
"714 606 CURVE SMOOTH",
"731 701 OFFCURVE",
"716 719 OFFCURVE",
"671 719 CURVE SMOOTH"
);
},
{
closed = 1;
nodes = (
"392 1187 LINE SMOOTH",
"347 1187 OFFCURVE",
"326 1169 OFFCURVE",
"318 1124 CURVE SMOOTH",
"131 63 LINE SMOOTH",
"123 18 OFFCURVE",
"138 0 OFFCURVE",
"183 0 CURVE SMOOTH",
"535 0 LINE SMOOTH",
"747 0 OFFCURVE",
"919 84 OFFCURVE",
"1034 241 CURVE SMOOTH",
"1129 371 OFFCURVE",
"1176 554 OFFCURVE",
"1176 706 CURVE SMOOTH",
"1176 1000 OFFCURVE",
"1007 1187 OFFCURVE",
"707 1187 CURVE SMOOTH"
);
},
{
closed = 1;
nodes = (
"839 952 OFFCURVE",
"914 864 OFFCURVE",
"914 705 CURVE SMOOTH",
"914 591 OFFCURVE",
"877 447 OFFCURVE",
"803 354 CURVE SMOOTH",
"741 277 OFFCURVE",
"649 235 OFFCURVE",
"541 235 CURVE SMOOTH",
"411 235 LINE",
"537 952 LINE",
"687 952 LINE SMOOTH"
);
}
);
width = 1228;
}
);
unicode = 00D0;
},
{
glyphname = E;
lastChange = "2014-11-15 23:05:55 -0700";
layers = (
{
layerId = UUID0;
name = "Regular Italic";
paths = (
{
closed = 1;
nodes = (
"425 1187 LINE SMOOTH",
"380 1187 OFFCURVE",
"361 1169 OFFCURVE",
"352 1119 CURVE SMOOTH",
"166 68 LINE SMOOTH",
"157 18 OFFCURVE",
"175 0 OFFCURVE",
"220 0 CURVE SMOOTH",
"907 0 LINE SMOOTH",
"952 0 OFFCURVE",
"973 20 OFFCURVE",
"982 72 CURVE SMOOTH",
"991 124 OFFCURVE",
"977 144 OFFCURVE",
"932 144 CURVE SMOOTH",
"330 144 LINE",
"488 1043 LINE",
"1070 1043 LINE SMOOTH",
"1115 1043 OFFCURVE",
"1137 1063 OFFCURVE",
"1146 1115 CURVE SMOOTH",
"1155 1167 OFFCURVE",
"1141 1187 OFFCURVE",
"1096 1187 CURVE SMOOTH"
);
},
{
closed = 1;
nodes = (
"379 684 LINE",
"354 540 LINE",
"857 540 LINE SMOOTH",
"902 540 OFFCURVE",
"923 560 OFFCURVE",
"932 612 CURVE SMOOTH",
"942 664 OFFCURVE",
"927 684 OFFCURVE",
"882 684 CURVE SMOOTH"
);
}
);
width = 1228;
},
{
layerId = "0791FDB8-5A5D-41D7-9039-1C27D6F382A7";
name = "Bold Italic";
paths = (
{
closed = 1;
nodes = (
"402 1187 LINE SMOOTH",
"357 1187 OFFCURVE",
"336 1169 OFFCURVE",
"328 1124 CURVE SMOOTH",
"141 63 LINE SMOOTH",
"133 18 OFFCURVE",
"148 0 OFFCURVE",
"193 0 CURVE SMOOTH",
"927 0 LINE SMOOTH",
"972 0 OFFCURVE",
"993 22 OFFCURVE",
"1010 117 CURVE SMOOTH",
"1027 212 OFFCURVE",
"1013 235 OFFCURVE",
"968 235 CURVE SMOOTH",
"421 235 LINE",
"547 952 LINE",
"1074 952 LINE SMOOTH",
"1119 952 OFFCURVE",
"1141 974 OFFCURVE",
"1158 1069 CURVE SMOOTH",
"1175 1164 OFFCURVE",
"1161 1187 OFFCURVE",
"1116 1187 CURVE SMOOTH"
);
},
{
closed = 1;
nodes = (
"442 729 LINE",
"401 494 LINE",
"831 494 LINE SMOOTH",
"876 494 OFFCURVE",
"897 516 OFFCURVE",
"914 611 CURVE SMOOTH",
"931 706 OFFCURVE",
"917 729 OFFCURVE",
"872 729 CURVE SMOOTH"
);
}
);
width = 1228;
}
);
unicode = 0045;
},
{
glyphname = F;
lastChange = "2014-11-15 23:06:11 -0700";
layers = (
{
layerId = UUID0;
name = "Regular Italic";
paths = (
{
closed = 1;
nodes = (
"445 1187 LINE SMOOTH",
"400 1187 OFFCURVE",
"381 1169 OFFCURVE",
"372 1119 CURVE SMOOTH",
"184 55 LINE SMOOTH",
"176 9 OFFCURVE",
"191 -10 OFFCURVE",
"247 -10 CURVE SMOOTH",
"249 -10 LINE SMOOTH",
"302 -10 OFFCURVE",
"326 9 OFFCURVE",
"334 55 CURVE SMOOTH",
"508 1043 LINE",
"1090 1043 LINE SMOOTH",
"1135 1043 OFFCURVE",
"1157 1063 OFFCURVE",
"1166 1115 CURVE SMOOTH",
"1175 1167 OFFCURVE",
"1161 1187 OFFCURVE",
"1116 1187 CURVE SMOOTH"
);
},
{
closed = 1;
nodes = (
"392 644 LINE",
"367 500 LINE",
"880 500 LINE SMOOTH",
"925 500 OFFCURVE",
"946 520 OFFCURVE",
"955 572 CURVE SMOOTH",
"965 624 OFFCURVE",
"950 644 OFFCURVE",
"905 644 CURVE SMOOTH"
);
}
);
width = 1228;
},
{
layerId = "0791FDB8-5A5D-41D7-9039-1C27D6F382A7";
name = "Bold Italic";
paths = (
{
closed = 1;
nodes = (
"422 1187 LINE SMOOTH",
"377 1187 OFFCURVE",
"356 1169 OFFCURVE",
"348 1124 CURVE SMOOTH",
"161 63 LINE SMOOTH",
"153 18 OFFCURVE",
"168 0 OFFCURVE",
"213 0 CURVE SMOOTH",
"337 0 LINE SMOOTH",
"382 0 OFFCURVE",
"403 18 OFFCURVE",
"411 63 CURVE",
"567 952 LINE",
"1084 952 LINE SMOOTH",
"1129 952 OFFCURVE",
"1151 974 OFFCURVE",
"1168 1069 CURVE SMOOTH",
"1185 1164 OFFCURVE",
"1171 1187 OFFCURVE",
"1126 1187 CURVE SMOOTH"
);
},
{
closed = 1;
nodes = (
"451 667 LINE",
"410 432 LINE",
"910 432 LINE SMOOTH",
"955 432 OFFCURVE",
"977 454 OFFCURVE",
"993 549 CURVE SMOOTH",
"1010 644 OFFCURVE",
"996 667 OFFCURVE",
"951 667 CURVE SMOOTH"
);
}
);
width = 1228;
}
);
unicode = 0046;
},
{
glyphname = G;
lastChange = "2014-11-14 16:59:25 -0700";
layers = (
{
layerId = UUID0;
name = "Regular Italic";
paths = (
{
closed = 1;
nodes = (
"388 1209 OFFCURVE",
"131 845 OFFCURVE",
"131 460 CURVE SMOOTH",
"131 169 OFFCURVE",
"303 -22 OFFCURVE",
"575 -22 CURVE SMOOTH",
"726 -22 OFFCURVE",
"867 6 OFFCURVE",
"988 65 CURVE SMOOTH",
"1013 77 OFFCURVE",
"1030 102 OFFCURVE",
"1036 134 CURVE SMOOTH",
"1105 526 LINE SMOOTH",
"1114 576 OFFCURVE",
"1099 594 OFFCURVE",
"1054 594 CURVE SMOOTH",
"700 594 LINE SMOOTH",
"655 594 OFFCURVE",
"634 574 OFFCURVE",
"625 522 CURVE SMOOTH",
"615 470 OFFCURVE",
"630 450 OFFCURVE",
"675 450 CURVE SMOOTH",
"942 450 LINE",
"895 183 LINE",
"801 143 OFFCURVE",
"699 126 OFFCURVE",
"586 126 CURVE SMOOTH",
"399 126 OFFCURVE",
"288 253 OFFCURVE",
"288 465 CURVE SMOOTH",
"288 744 OFFCURVE",
"456 1061 OFFCURVE",
"761 1061 CURVE SMOOTH",
"865 1061 OFFCURVE",
"976 1034 OFFCURVE",
"1064 981 CURVE SMOOTH",
"1096 962 OFFCURVE",
"1129 969 OFFCURVE",
"1153 1016 CURVE SMOOTH",
"1177 1062 OFFCURVE",
"1171 1094 OFFCURVE",
"1131 1117 CURVE SMOOTH",
"1022 1180 OFFCURVE",
"896 1209 OFFCURVE",
"772 1209 CURVE SMOOTH"
);
}
);
width = 1228;
},
{
layerId = "0791FDB8-5A5D-41D7-9039-1C27D6F382A7";
name = "Bold Italic";
paths = (
{
closed = 1;
nodes = (
"329 1209 OFFCURVE",
"110 836 OFFCURVE",
"110 470 CURVE SMOOTH",
"110 162 OFFCURVE",
"297 -22 OFFCURVE",
"590 -22 CURVE SMOOTH",
"741 -22 OFFCURVE",
"879 11 OFFCURVE",
"1007 74 CURVE SMOOTH",
"1032 86 OFFCURVE",
"1047 111 OFFCURVE",
"1053 143 CURVE SMOOTH",
"1134 604 LINE SMOOTH",
"1142 649 OFFCURVE",
"1127 667 OFFCURVE",
"1082 667 CURVE SMOOTH",
"679 667 LINE SMOOTH",
"634 667 OFFCURVE",
"612 644 OFFCURVE",
"595 549 CURVE SMOOTH",
"579 454 OFFCURVE",
"593 432 OFFCURVE",
"638 432 CURVE SMOOTH",
"854 432 LINE",
"821 246 LINE",
"751 225 OFFCURVE",
"684 215 OFFCURVE",
"611 215 CURVE SMOOTH",
"454 215 OFFCURVE",
"372 307 OFFCURVE",
"372 483 CURVE SMOOTH",
"372 718 OFFCURVE",
"488 972 OFFCURVE",
"745 972 CURVE SMOOTH",
"863 972 OFFCURVE",
"959 949 OFFCURVE",
"1054 902 CURVE SMOOTH",
"1090 884 OFFCURVE",
"1131 896 OFFCURVE",
"1164 980 CURVE SMOOTH",
"1196 1061 OFFCURVE",
"1178 1101 OFFCURVE",
"1138 1122 CURVE SMOOTH",
"1027 1178 OFFCURVE",
"901 1209 OFFCURVE",
"747 1209 CURVE SMOOTH"
);
}
);
width = 1228;
}
);
unicode = 0047;
},
{
glyphname = H;
lastChange = "2014-05-18 17:32:31 -0700";
layers = (
{
layerId = UUID0;
name = "Regular Italic";
paths = (
{
closed = 1;
nodes = (
"1117 1197 LINE SMOOTH",
"1064 1197 OFFCURVE",
"1040 1178 OFFCURVE",
"1032 1132 CURVE SMOOTH",
"953 684 LINE",
"375 684 LINE",
"454 1132 LINE SMOOTH",
"462 1178 OFFCURVE",
"447 1197 OFFCURVE",
"391 1197 CURVE SMOOTH",
"389 1197 LINE SMOOTH",
"336 1197 OFFCURVE",
"312 1178 OFFCURVE",
"304 1132 CURVE SMOOTH",
"114 55 LINE SMOOTH",
"106 9 OFFCURVE",
"121 -10 OFFCURVE",
"177 -10 CURVE SMOOTH",
"179 -10 LINE SMOOTH",
"232 -10 OFFCURVE",
"256 9 OFFCURVE",
"264 55 CURVE SMOOTH",
"350 540 LINE",
"928 540 LINE",
"842 55 LINE SMOOTH",
"834 9 OFFCURVE",
"849 -10 OFFCURVE",
"905 -10 CURVE SMOOTH",
"907 -10 LINE SMOOTH",
"960 -10 OFFCURVE",
"984 9 OFFCURVE",
"992 55 CURVE SMOOTH",
"1182 1132 LINE SMOOTH",
"1190 1178 OFFCURVE",
"1175 1197 OFFCURVE",
"1119 1197 CURVE SMOOTH"
);
}
);
width = 1228;
},
{
layerId = "0791FDB8-5A5D-41D7-9039-1C27D6F382A7";
name = "Bold Italic";
paths = (
{
closed = 1;
nodes = (
"1040 1187 LINE SMOOTH",
"995 1187 OFFCURVE",
"974 1169 OFFCURVE",
"966 1124 CURVE SMOOTH",
"896 729 LINE",
"448 729 LINE",
"518 1124 LINE SMOOTH",
"526 1169 OFFCURVE",
"511 1187 OFFCURVE",
"466 1187 CURVE SMOOTH",
"342 1187 LINE SMOOTH",
"297 1187 OFFCURVE",
"276 1169 OFFCURVE",
"268 1124 CURVE SMOOTH",
"81 63 LINE SMOOTH",
"73 18 OFFCURVE",
"88 0 OFFCURVE",
"133 0 CURVE SMOOTH",
"257 0 LINE SMOOTH",
"302 0 OFFCURVE",
"323 18 OFFCURVE",
"331 63 CURVE SMOOTH",
"407 494 LINE",
"855 494 LINE",
"779 63 LINE SMOOTH",
"771 18 OFFCURVE",
"786 0 OFFCURVE",
"831 0 CURVE SMOOTH",
"955 0 LINE SMOOTH",
"1000 0 OFFCURVE",
"1021 18 OFFCURVE",
"1029 63 CURVE SMOOTH",
"1216 1124 LINE SMOOTH",
"1224 1169 OFFCURVE",
"1209 1187 OFFCURVE",
"1164 1187 CURVE SMOOTH"
);
}
);
width = 1228;
}
);
unicode = 0048;
},
{
color = (0,243,255,1);
glyphname = Hbar;
lastChange = "2014-11-16 15:29:50 -0700";
layers = (
{
components = (
{
name = H;
transform = "{1, 0, 0, 1, 0, 0}";
}
);
layerId = UUID0;
name = "Regular Italic";
paths = (
{
closed = 1;
nodes = (
"195 974 LINE SMOOTH",
"150 974 OFFCURVE",
"128 954 OFFCURVE",
"119 902 CURVE SMOOTH",
"110 850 OFFCURVE",
"124 830 OFFCURVE",
"169 830 CURVE SMOOTH",
"1211 830 LINE SMOOTH",
"1256 830 OFFCURVE",
"1278 850 OFFCURVE",
"1287 902 CURVE SMOOTH",
"1296 954 OFFCURVE",
"1282 974 OFFCURVE",
"1237 974 CURVE SMOOTH"
);
}
);
width = 1228;
},
{
components = (
{
name = H;
transform = "{1, 0, 0, 1, 0, 0}";
}
);
layerId = "0791FDB8-5A5D-41D7-9039-1C27D6F382A7";
name = "Bold Italic";
paths = (
{
closed = 1;
nodes = (
"190 1008 LINE SMOOTH",
"145 1008 OFFCURVE",
"125 994 OFFCURVE",
"111 915 CURVE SMOOTH",
"97 837 OFFCURVE",
"113 823 OFFCURVE",
"158 823 CURVE SMOOTH",
"1220 823 LINE SMOOTH",
"1265 823 OFFCURVE",
"1285 837 OFFCURVE",
"1299 915 CURVE SMOOTH",
"1313 994 OFFCURVE",
"1297 1008 OFFCURVE",
"1252 1008 CURVE SMOOTH"
);
}
);
width = 1228;
}
);
unicode = 0126;
},
{
glyphname = I;
lastChange = "2014-05-18 17:32:48 -0700";
layers = (
{
layerId = UUID0;
name = "Regular Italic";
paths = (
{
closed = 1;
nodes = (
"412 1187 LINE SMOOTH",
"367 1187 OFFCURVE",
"345 1167 OFFCURVE",
"336 1115 CURVE SMOOTH",
"327 1063 OFFCURVE",
"341 1043 OFFCURVE",
"386 1043 CURVE SMOOTH",
"652 1043 LINE",
"494 144 LINE",
"228 144 LINE SMOOTH",
"183 144 OFFCURVE",
"161 124 OFFCURVE",
"152 72 CURVE SMOOTH",
"143 20 OFFCURVE",
"158 0 OFFCURVE",
"203 0 CURVE SMOOTH",
"905 0 LINE SMOOTH",
"950 0 OFFCURVE",
"971 20 OFFCURVE",
"980 72 CURVE SMOOTH",
"989 124 OFFCURVE",
"975 144 OFFCURVE",
"930 144 CURVE SMOOTH",
"644 144 LINE",
"802 1043 LINE",
"1048 1043 LINE SMOOTH",
"1093 1043 OFFCURVE",
"1115 1063 OFFCURVE",
"1124 1115 CURVE SMOOTH",
"1133 1167 OFFCURVE",
"1119 1187 OFFCURVE",
"1074 1187 CURVE SMOOTH"
);
}
);
width = 1228;
},
{
layerId = "0791FDB8-5A5D-41D7-9039-1C27D6F382A7";
name = "Bold Italic";
paths = (
{
closed = 1;
nodes = (
"372 1187 LINE SMOOTH",
"327 1187 OFFCURVE",
"304 1167 OFFCURVE",
"289 1074 CURVE SMOOTH",
"274 981 OFFCURVE",
"287 962 OFFCURVE",
"332 962 CURVE SMOOTH",
"588 962 LINE",
"459 225 LINE",
"223 225 LINE SMOOTH",
"178 225 OFFCURVE",
"154 205 OFFCURVE",
"139 112 CURVE SMOOTH",
"124 19 OFFCURVE",
"138 0 OFFCURVE",
"183 0 CURVE SMOOTH",
"925 0 LINE SMOOTH",
"970 0 OFFCURVE",
"992 19 OFFCURVE",
"1007 112 CURVE SMOOTH",
"1022 205 OFFCURVE",
"1010 225 OFFCURVE",
"965 225 CURVE SMOOTH",
"709 225 LINE",
"838 962 LINE",
"1074 962 LINE SMOOTH",
"1119 962 OFFCURVE",
"1142 981 OFFCURVE",
"1157 1074 CURVE SMOOTH",
"1172 1167 OFFCURVE",
"1159 1187 OFFCURVE",
"1114 1187 CURVE SMOOTH"
);
}
);
width = 1228;
}
);
unicode = 0049;
},
{
glyphname = IJ;
lastChange = "2014-11-14 17:00:51 -0700";
layers = (
{
layerId = UUID0;
name = "Regular Italic";
paths = (
{
closed = 1;
nodes = (
"1118 1197 LINE SMOOTH",
"1065 1197 OFFCURVE",
"1041 1178 OFFCURVE",
"1033 1132 CURVE SMOOTH",
"883 283 LINE SMOOTH",
"863 170 OFFCURVE",
"816 126 OFFCURVE",
"734 126 CURVE SMOOTH",
"674 126 OFFCURVE",
"607 142 OFFCURVE",
"557 167 CURVE SMOOTH",
"531 180 OFFCURVE",
"500 178 OFFCURVE",
"477 125 CURVE SMOOTH",
"454 73 OFFCURVE",
"464 47 OFFCURVE",
"498 28 CURVE SMOOTH",
"560 -5 OFFCURVE",
"652 -22 OFFCURVE",
"721 -22 CURVE SMOOTH",
"897 -22 OFFCURVE",
"996 74 OFFCURVE",
"1028 253 CURVE SMOOTH",
"1183 1132 LINE SMOOTH",
"1191 1178 OFFCURVE",
"1176 1197 OFFCURVE",
"1120 1197 CURVE SMOOTH"
);
},
{
closed = 1;
nodes = (
"393 1197 LINE SMOOTH",
"340 1197 OFFCURVE",
"316 1178 OFFCURVE",
"308 1132 CURVE SMOOTH",
"118 55 LINE SMOOTH",
"110 9 OFFCURVE",
"125 -10 OFFCURVE",
"181 -10 CURVE SMOOTH",
"183 -10 LINE SMOOTH",
"236 -10 OFFCURVE",
"260 9 OFFCURVE",
"268 55 CURVE SMOOTH",
"458 1132 LINE SMOOTH",
"466 1178 OFFCURVE",
"451 1197 OFFCURVE",
"395 1197 CURVE SMOOTH"
);
}
);
width = 1228;
},
{
layerId = "0791FDB8-5A5D-41D7-9039-1C27D6F382A7";
name = "Bold Italic";
paths = (
{
closed = 1;
nodes = (
"1055 1187 LINE SMOOTH",
"1010 1187 OFFCURVE",
"989 1169 OFFCURVE",
"981 1124 CURVE SMOOTH",
"844 349 LINE SMOOTH",
"827 253 OFFCURVE",
"782 215 OFFCURVE",
"701 215 CURVE SMOOTH",
"664 215 OFFCURVE",
"610 226 OFFCURVE",
"565 241 CURVE SMOOTH",
"526 254 OFFCURVE",
"499 235 OFFCURVE",
"471 153 CURVE SMOOTH",
"442 69 OFFCURVE",
"454 35 OFFCURVE",
"495 18 CURVE SMOOTH",
"558 -8 OFFCURVE",
"634 -22 OFFCURVE",
"699 -22 CURVE SMOOTH",
"938 -22 OFFCURVE",
"1049 96 OFFCURVE",
"1091 333 CURVE SMOOTH",
"1231 1124 LINE SMOOTH",
"1239 1169 OFFCURVE",
"1224 1187 OFFCURVE",
"1179 1187 CURVE SMOOTH"
);
},
{
closed = 1;
nodes = (
"332 1187 LINE SMOOTH",
"287 1187 OFFCURVE",
"266 1169 OFFCURVE",
"258 1124 CURVE SMOOTH",
"71 63 LINE SMOOTH",
"63 18 OFFCURVE",
"78 0 OFFCURVE",
"123 0 CURVE SMOOTH",
"247 0 LINE SMOOTH",
"292 0 OFFCURVE",
"313 18 OFFCURVE",
"321 63 CURVE SMOOTH",
"508 1124 LINE SMOOTH",
"516 1169 OFFCURVE",
"501 1187 OFFCURVE",
"456 1187 CURVE SMOOTH"
);
}
);
width = 1228;
}
);
unicode = 0132;
},
{
glyphname = J;
lastChange = "2014-05-18 17:32:56 -0700";
layers = (
{
layerId = UUID0;
name = "Regular Italic";
paths = (
{
closed = 1;
nodes = (
"582 1187 LINE SMOOTH",
"537 1187 OFFCURVE",
"515 1167 OFFCURVE",
"506 1115 CURVE SMOOTH",
"497 1063 OFFCURVE",
"511 1043 OFFCURVE",
"556 1043 CURVE SMOOTH",
"917 1043 LINE",
"798 363 LINE SMOOTH",
"771 210 OFFCURVE",
"678 126 OFFCURVE",
"524 126 CURVE SMOOTH",
"420 126 OFFCURVE",
"325 161 OFFCURVE",
"253 222 CURVE SMOOTH",
"230 242 OFFCURVE",
"200 248 OFFCURVE",
"165 195 CURVE SMOOTH",
"133 146 OFFCURVE",
"139 118 OFFCURVE",
"170 92 CURVE SMOOTH",
"257 17 OFFCURVE",
"385 -22 OFFCURVE",
"517 -22 CURVE SMOOTH",
"753 -22 OFFCURVE",
"902 104 OFFCURVE",
"942 333 CURVE SMOOTH",
"1080 1115 LINE SMOOTH",
"1089 1167 OFFCURVE",
"1075 1187 OFFCURVE",
"1030 1187 CURVE SMOOTH"
);
}
);
width = 1228;
},
{
layerId = "0791FDB8-5A5D-41D7-9039-1C27D6F382A7";
name = "Bold Italic";
paths = (
{
closed = 1;
nodes = (
"552 1187 LINE SMOOTH",
"507 1187 OFFCURVE",
"485 1164 OFFCURVE",
"468 1069 CURVE SMOOTH",
"451 974 OFFCURVE",
"465 952 OFFCURVE",
"510 952 CURVE SMOOTH",
"826 952 LINE",
"726 383 LINE SMOOTH",
"705 266 OFFCURVE",
"641 215 OFFCURVE",
"540 215 CURVE SMOOTH",
"452 215 OFFCURVE",
"356 245 OFFCURVE",
"270 295 CURVE SMOOTH",
"235 315 OFFCURVE",
"198 309 OFFCURVE",
"156 227 CURVE SMOOTH",
"116 149 OFFCURVE",
"128 108 OFFCURVE",
"164 83 CURVE SMOOTH",
"262 17 OFFCURVE",
"397 -22 OFFCURVE",
"528 -22 CURVE SMOOTH",
"795 -22 OFFCURVE",
"927 105 OFFCURVE",
"973 363 CURVE SMOOTH",
"1107 1124 LINE SMOOTH",
"1115 1169 OFFCURVE",
"1100 1187 OFFCURVE",
"1055 1187 CURVE SMOOTH"
);
}
);
width = 1228;
}
);
unicode = 004A;
},
{
glyphname = K;
lastChange = "2014-05-18 17:35:01 -0700";
layers = (
{
layerId = UUID0;
name = "Regular Italic";
paths = (
{
closed = 1;
nodes = (
"387 584 LINE",
"347 354 LINE",
"1175 1094 LINE SMOOTH",
"1213 1127 OFFCURVE",
"1208 1157 OFFCURVE",
"1167 1187 CURVE SMOOTH",
"1128 1216 OFFCURVE",
"1093 1216 OFFCURVE",
"1066 1191 CURVE SMOOTH"
);
},
{
closed = 1;
nodes = (
"429 1197 LINE SMOOTH",
"376 1197 OFFCURVE",
"352 1178 OFFCURVE",
"344 1132 CURVE SMOOTH",
"154 55 LINE SMOOTH",
"146 9 OFFCURVE",
"161 -10 OFFCURVE",
"217 -10 CURVE SMOOTH",
"219 -10 LINE SMOOTH",
"272 -10 OFFCURVE",
"296 9 OFFCURVE",
"304 55 CURVE SMOOTH",
"494 1132 LINE SMOOTH",
"502 1178 OFFCURVE",
"487 1197 OFFCURVE",
"431 1197 CURVE SMOOTH"
);
},
{
closed = 1;
nodes = (
"564 569 LINE",
"894 6 LINE SMOOTH",
"912 -24 OFFCURVE",
"947 -23 OFFCURVE",
"987 0 CURVE SMOOTH",
"1035 28 OFFCURVE",
"1045 55 OFFCURVE",
"1024 92 CURVE SMOOTH",
"682 675 LINE"
);
}
);
width = 1228;
},
{
layerId = "0791FDB8-5A5D-41D7-9039-1C27D6F382A7";
name = "Bold Italic";
paths = (
{
closed = 1;
nodes = (
"402 644 LINE",
"391 326 LINE",
"1196 1036 LINE SMOOTH",
"1246 1080 OFFCURVE",
"1233 1114 OFFCURVE",
"1161 1166 CURVE SMOOTH",
"1090 1218 OFFCURVE",
"1052 1221 OFFCURVE",
"1009 1186 CURVE SMOOTH"
);
},
{
closed = 1;
nodes = (
"387 1187 LINE SMOOTH",
"342 1187 OFFCURVE",
"321 1169 OFFCURVE",
"313 1124 CURVE SMOOTH",
"126 63 LINE SMOOTH",
"118 18 OFFCURVE",
"133 0 OFFCURVE",
"178 0 CURVE SMOOTH",
"302 0 LINE SMOOTH",
"347 0 OFFCURVE",
"368 18 OFFCURVE",
"376 63 CURVE SMOOTH",
"563 1124 LINE SMOOTH",
"571 1169 OFFCURVE",
"556 1187 OFFCURVE",
"511 1187 CURVE SMOOTH"
);
},
{
closed = 1;
nodes = (
"558 525 LINE",
"816 8 LINE SMOOTH",
"836 -32 OFFCURVE",
"877 -32 OFFCURVE",
"962 10 CURVE SMOOTH",
"1050 53 OFFCURVE",
"1065 84 OFFCURVE",
"1046 124 CURVE SMOOTH",
"749 706 LINE"
);
}
);
width = 1228;
}
);
unicode = 004B;
},
{
glyphname = L;
lastChange = "2014-05-18 17:35:28 -0700";
layers = (
{
layerId = UUID0;
name = "Regular Italic";
paths = (
{
closed = 1;
nodes = (
"459 1197 LINE SMOOTH",
"406 1197 OFFCURVE",
"382 1178 OFFCURVE",
"374 1132 CURVE SMOOTH",
"186 68 LINE SMOOTH",
"177 18 OFFCURVE",
"195 0 OFFCURVE",
"240 0 CURVE SMOOTH",
"907 0 LINE SMOOTH",
"952 0 OFFCURVE",
"973 20 OFFCURVE",
"982 72 CURVE SMOOTH",
"991 124 OFFCURVE",
"977 144 OFFCURVE",
"932 144 CURVE SMOOTH",
"350 144 LINE",
"524 1132 LINE SMOOTH",
"532 1178 OFFCURVE",
"517 1197 OFFCURVE",
"461 1197 CURVE SMOOTH"
);
}
);
width = 1228;
},
{
layerId = "0791FDB8-5A5D-41D7-9039-1C27D6F382A7";
name = "Bold Italic";
paths = (
{
closed = 1;
nodes = (
"411 1187 LINE SMOOTH",
"366 1187 OFFCURVE",
"345 1169 OFFCURVE",
"337 1124 CURVE SMOOTH",
"150 63 LINE SMOOTH",
"142 18 OFFCURVE",
"157 0 OFFCURVE",
"202 0 CURVE SMOOTH",
"935 0 LINE SMOOTH",
"980 0 OFFCURVE",
"1002 23 OFFCURVE",
"1018 118 CURVE SMOOTH",
"1035 213 OFFCURVE",
"1021 235 OFFCURVE",
"976 235 CURVE SMOOTH",
"430 235 LINE",
"587 1124 LINE SMOOTH",
"595 1169 OFFCURVE",
"580 1187 OFFCURVE",
"535 1187 CURVE SMOOTH"
);
}
);
width = 1228;
}
);
unicode = 004C;
},
{
glyphname = Lslash;
lastChange = "2014-11-14 23:09:52 -0700";
layers = (
{
layerId = UUID0;
name = "Regular Italic";
paths = (
{
closed = 1;
nodes = (
"519 1197 LINE SMOOTH",
"466 1197 OFFCURVE",
"442 1178 OFFCURVE",
"434 1132 CURVE SMOOTH",
"246 68 LINE SMOOTH",
"237 18 OFFCURVE",
"255 0 OFFCURVE",
"300 0 CURVE SMOOTH",
"907 0 LINE SMOOTH",
"952 0 OFFCURVE",
"973 20 OFFCURVE",
"982 72 CURVE SMOOTH",
"991 124 OFFCURVE",
"977 144 OFFCURVE",
"932 144 CURVE SMOOTH",
"410 144 LINE",
"584 1132 LINE SMOOTH",
"592 1178 OFFCURVE",
"577 1197 OFFCURVE",
"521 1197 CURVE SMOOTH"
);
},
{
closed = 1;
nodes = (
"110 468 LINE SMOOTH",
"73 443 OFFCURVE",
"68 418 OFFCURVE",
"96 377 CURVE SMOOTH",
"124 335 OFFCURVE",
"150 331 OFFCURVE",
"187 356 CURVE SMOOTH",
"756 743 LINE SMOOTH",
"793 768 OFFCURVE",
"798 793 OFFCURVE",
"770 834 CURVE SMOOTH",
"742 876 OFFCURVE",
"716 880 OFFCURVE",
"679 855 CURVE SMOOTH"
);
}
);
width = 1228;
},
{
layerId = "0791FDB8-5A5D-41D7-9039-1C27D6F382A7";
name = "Bold Italic";
paths = (
{
closed = 1;
nodes = (
"471 1187 LINE SMOOTH",
"426 1187 OFFCURVE",
"405 1169 OFFCURVE",
"397 1124 CURVE SMOOTH",
"210 63 LINE SMOOTH",
"202 18 OFFCURVE",
"217 0 OFFCURVE",
"262 0 CURVE SMOOTH",
"935 0 LINE SMOOTH",
"980 0 OFFCURVE",
"1002 23 OFFCURVE",
"1018 118 CURVE SMOOTH",
"1035 213 OFFCURVE",
"1021 235 OFFCURVE",
"976 235 CURVE SMOOTH",
"490 235 LINE",
"647 1124 LINE SMOOTH",
"655 1169 OFFCURVE",
"640 1187 OFFCURVE",
"595 1187 CURVE SMOOTH"
);
},
{
closed = 1;
nodes = (
"50 487 LINE SMOOTH",
"7 464 OFFCURVE",
"-3 439 OFFCURVE",
"27 366 CURVE SMOOTH",
"58 293 OFFCURVE",
"81 288 OFFCURVE",
"123 311 CURVE SMOOTH",
"848 700 LINE SMOOTH",
"890 723 OFFCURVE",
"901 747 OFFCURVE",
"871 820 CURVE SMOOTH",
"840 893 OFFCURVE",
"817 899 OFFCURVE",
"774 876 CURVE SMOOTH"
);
}
);
width = 1228;
}
);
unicode = 0141;
},
{
glyphname = M;
lastChange = "2014-11-14 23:12:47 -0700";
layers = (
{
layerId = UUID0;
name = "Regular Italic";
paths = (
{
closed = 1;
nodes = (
"1111 1197 LINE SMOOTH",
"1064 1197 OFFCURVE",
"1030 1177 OFFCURVE",
"1001 1132 CURVE SMOOTH",
"636 562 LINE",
"471 1132 LINE SMOOTH",
"458 1177 OFFCURVE",
"437 1197 OFFCURVE",
"390 1197 CURVE SMOOTH",
"388 1197 LINE SMOOTH",
"341 1197 OFFCURVE",
"314 1182 OFFCURVE",
"304 1132 CURVE SMOOTH",
"84 55 LINE SMOOTH",
"75 10 OFFCURVE",
"94 -10 OFFCURVE",
"148 -10 CURVE SMOOTH",
"150 -10 LINE SMOOTH",
"206 -10 OFFCURVE",
"224 9 OFFCURVE",
"233 55 CURVE SMOOTH",
"398 868 LINE",
"526 422 LINE SMOOTH",
"540 375 OFFCURVE",
"564 358 OFFCURVE",
"609 358 CURVE SMOOTH",
"654 358 OFFCURVE",
"680 375 OFFCURVE",
"710 422 CURVE SMOOTH",
"996 868 LINE",
"873 55 LINE SMOOTH",
"866 9 OFFCURVE",
"882 -10 OFFCURVE",
"938 -10 CURVE SMOOTH",
"940 -10 LINE SMOOTH",
"995 -10 OFFCURVE",
"1015 10 OFFCURVE",
"1022 55 CURVE SMOOTH",
"1182 1132 LINE SMOOTH",
"1190 1182 OFFCURVE",
"1160 1197 OFFCURVE",
"1113 1197 CURVE SMOOTH"
);
}
);
width = 1228;
},
{
layerId = "0791FDB8-5A5D-41D7-9039-1C27D6F382A7";
name = "Bold Italic";
paths = (
{
closed = 1;
nodes = (
"1047 1187 LINE SMOOTH",
"1020 1187 OFFCURVE",
"1003 1179 OFFCURVE",
"987 1156 CURVE SMOOTH",
"649 665 LINE",
"502 1156 LINE SMOOTH",
"495 1179 OFFCURVE",
"481 1187 OFFCURVE",
"454 1187 CURVE SMOOTH",
"342 1187 LINE SMOOTH",
"297 1187 OFFCURVE",
"277 1169 OFFCURVE",
"268 1124 CURVE SMOOTH",
"61 63 LINE SMOOTH",
"52 18 OFFCURVE",
"68 0 OFFCURVE",
"113 0 CURVE SMOOTH",
"220 0 LINE SMOOTH",
"265 0 OFFCURVE",
"286 18 OFFCURVE",
"294 63 CURVE SMOOTH",
"411 694 LINE",
"508 375 LINE SMOOTH",
"521 331 OFFCURVE",
"543 315 OFFCURVE",
"600 315 CURVE SMOOTH",
"657 315 OFFCURVE",
"683 332 OFFCURVE",
"712 375 CURVE SMOOTH",
"917 677 LINE",
"816 63 LINE SMOOTH",
"809 18 OFFCURVE",
"823 0 OFFCURVE",
"868 0 CURVE SMOOTH",
"975 0 LINE SMOOTH",
"1020 0 OFFCURVE",
"1042 18 OFFCURVE",
"1049 63 CURVE SMOOTH",
"1216 1124 LINE SMOOTH",
"1223 1169 OFFCURVE",
"1209 1187 OFFCURVE",
"1164 1187 CURVE SMOOTH"
);
}
);
width = 1228;
}
);
unicode = 004D;
},
{
glyphname = N;
lastChange = "2014-11-14 23:14:47 -0700";
layers = (
{
layerId = UUID0;
name = "Regular Italic";
paths = (
{
closed = 1;
nodes = (
"1117 1197 LINE SMOOTH",
"1064 1197 OFFCURVE",
"1040 1178 OFFCURVE",
"1032 1132 CURVE SMOOTH",
"874 234 LINE",
"900 237 LINE",
"475 1169 LINE SMOOTH",
"467 1187 OFFCURVE",
"447 1197 OFFCURVE",
"418 1197 CURVE SMOOTH",
"391 1197 LINE SMOOTH",
"335 1197 OFFCURVE",
"312 1178 OFFCURVE",
"304 1132 CURVE SMOOTH",
"114 55 LINE SMOOTH",
"106 9 OFFCURVE",
"121 -10 OFFCURVE",
"177 -10 CURVE SMOOTH",
"179 -10 LINE SMOOTH",
"232 -10 OFFCURVE",
"256 9 OFFCURVE",
"264 55 CURVE SMOOTH",
"427 976 LINE",
"400 972 LINE",
"829 33 LINE SMOOTH",
"845 -1 OFFCURVE",
"866 -22 OFFCURVE",
"904 -22 CURVE SMOOTH",
"956 -22 OFFCURVE",
"983 2 OFFCURVE",
"989 37 CURVE SMOOTH",
"1182 1132 LINE SMOOTH",
"1190 1178 OFFCURVE",
"1175 1197 OFFCURVE",
"1119 1197 CURVE SMOOTH"
);
}
);
width = 1228;
},
{
layerId = "0791FDB8-5A5D-41D7-9039-1C27D6F382A7";
name = "Bold Italic";
paths = (
{
closed = 1;
nodes = (
"1050 1187 LINE SMOOTH",
"1005 1187 OFFCURVE",
"984 1169 OFFCURVE",
"976 1124 CURVE SMOOTH",
"853 432 LINE",
"881 436 LINE",
"526 1163 LINE SMOOTH",
"517 1181 OFFCURVE",
"500 1187 OFFCURVE",
"476 1187 CURVE SMOOTH",
"342 1187 LINE SMOOTH",
"297 1187 OFFCURVE",
"276 1169 OFFCURVE",
"268 1124 CURVE SMOOTH",
"81 63 LINE SMOOTH",
"73 18 OFFCURVE",
"88 0 OFFCURVE",
"133 0 CURVE",
"247 0 LINE SMOOTH",
"292 0 OFFCURVE",
"313 18 OFFCURVE",
"321 63 CURVE SMOOTH",
"453 811 LINE",
"425 807 LINE",
"804 33 LINE SMOOTH",
"821 -2 OFFCURVE",
"841 -22 OFFCURVE",
"904 -22 CURVE SMOOTH",
"988 -22 OFFCURVE",
"1018 2 OFFCURVE",
"1025 44 CURVE SMOOTH",
"1216 1124 LINE SMOOTH",
"1224 1169 OFFCURVE",
"1209 1187 OFFCURVE",
"1164 1187 CURVE SMOOTH"
);
}
);
width = 1228;
}
);
unicode = 004E;
},
{
glyphname = Eng;
lastChange = "2014-11-16 17:30:44 -0700";
layers = (
{
components = (
{
name = N;
transform = "{1, 0, 0, 1, 0, 0}";
}
);
layerId = UUID0;
name = "Regular Italic";
paths = (
{
closed = 1;
nodes = (
"868 198 LINE",
"814 -107 LINE SMOOTH",
"794 -220 OFFCURVE",
"740 -264 OFFCURVE",
"658 -264 CURVE SMOOTH",
"598 -264 OFFCURVE",
"537 -246 OFFCURVE",
"488 -224 CURVE SMOOTH",
"461 -212 OFFCURVE",
"427 -219 OFFCURVE",
"405 -266 CURVE SMOOTH",
"381 -317 OFFCURVE",
"390 -343 OFFCURVE",
"425 -360 CURVE SMOOTH",
"488 -390 OFFCURVE",
"567 -410 OFFCURVE",
"647 -410 CURVE SMOOTH",
"823 -410 OFFCURVE",
"927 -314 OFFCURVE",
"959 -135 CURVE SMOOTH",
"1018 198 LINE"
);
}
);
width = 1228;
},
{
components = (
{
name = N;
transform = "{1, 0, 0, 1, 0, 0}";
}
);
layerId = "0791FDB8-5A5D-41D7-9039-1C27D6F382A7";
name = "Bold Italic";
paths = (
{
closed = 1;
nodes = (
"827 336 LINE",
"761 -39 LINE SMOOTH",
"744 -135 OFFCURVE",
"691 -173 OFFCURVE",
"608 -173 CURVE SMOOTH",
"571 -173 OFFCURVE",
"517 -162 OFFCURVE",
"472 -147 CURVE SMOOTH",
"433 -134 OFFCURVE",
"402 -153 OFFCURVE",
"371 -235 CURVE SMOOTH",
"339 -319 OFFCURVE",
"350 -353 OFFCURVE",
"391 -370 CURVE SMOOTH",
"455 -396 OFFCURVE",
"528 -410 OFFCURVE",
"593 -410 CURVE SMOOTH",
"832 -410 OFFCURVE",
"966 -292 OFFCURVE",
"1008 -55 CURVE SMOOTH",
"1077 336 LINE"
);
}
);
width = 1228;
}
);
unicode = 014A;
},
{
glyphname = O;
lastChange = "2014-11-14 23:52:55 -0700";
layers = (
{
background = {
paths = (
{
closed = 1;
nodes = (
"1183 1018 OFFCURVE",
"1014 1209 OFFCURVE",
"742 1209 CURVE SMOOTH",
"334 1209 OFFCURVE",
"113 819 OFFCURVE",
"113 458 CURVE SMOOTH",
"113 168 OFFCURVE",
"283 -22 OFFCURVE",
"555 -22 CURVE SMOOTH",
"963 -22 OFFCURVE",
"1183 367 OFFCURVE",
"1183 728 CURVE"
);
},
{
closed = 1;
nodes = (
"1030 449 OFFCURVE",
"868 126 OFFCURVE",
"566 126 CURVE SMOOTH",
"379 126 OFFCURVE",
"266 253 OFFCURVE",
"266 465 CURVE SMOOTH",
"266 738 OFFCURVE",
"429 1061 OFFCURVE",
"731 1061 CURVE SMOOTH",
"918 1061 OFFCURVE",
"1030 933 OFFCURVE",
"1030 722 CURVE SMOOTH"
);
}
);
};
layerId = UUID0;
name = "Regular Italic";
paths = (
{
closed = 1;
nodes = (
"534 1209 OFFCURVE",
"375 1108 OFFCURVE",
"269 961 CURVE SMOOTH",
"166 818 OFFCURVE",
"114 636 OFFCURVE",
"114 459 CURVE SMOOTH",
"114 169 OFFCURVE",
"283 -22 OFFCURVE",
"555 -22 CURVE SMOOTH",
"763 -22 OFFCURVE",
"922 79 OFFCURVE",
"1028 226 CURVE SMOOTH",
"1131 369 OFFCURVE",
"1183 551 OFFCURVE",
"1183 728 CURVE SMOOTH",
"1183 1018 OFFCURVE",
"1014 1209 OFFCURVE",
"742 1209 CURVE SMOOTH"
);
},
{
closed = 1;
nodes = (
"918 1061 OFFCURVE",
"1030 933 OFFCURVE",
"1030 722 CURVE SMOOTH",
"1030 580 OFFCURVE",
"986 426 OFFCURVE",
"902 309 CURVE SMOOTH",
"825 201 OFFCURVE",
"711 126 OFFCURVE",
"566 126 CURVE SMOOTH",
"379 126 OFFCURVE",
"267 254 OFFCURVE",
"267 465 CURVE SMOOTH",
"267 607 OFFCURVE",
"311 761 OFFCURVE",
"395 878 CURVE SMOOTH",
"472 986 OFFCURVE",
"586 1061 OFFCURVE",
"731 1061 CURVE SMOOTH"
);
}
);
width = 1228;
},
{
layerId = "0791FDB8-5A5D-41D7-9039-1C27D6F382A7";
name = "Bold Italic";
paths = (
{
closed = 1;
nodes = (
"525 1209 OFFCURVE",
"353 1120 OFFCURVE",
"238 956 CURVE SMOOTH",
"141 818 OFFCURVE",
"91 629 OFFCURVE",
"91 471 CURVE SMOOTH",
"91 171 OFFCURVE",
"273 -22 OFFCURVE",
"560 -22 CURVE SMOOTH",
"772 -22 OFFCURVE",
"944 67 OFFCURVE",
"1059 231 CURVE SMOOTH",
"1156 369 OFFCURVE",
"1206 558 OFFCURVE",
"1206 716 CURVE SMOOTH",
"1206 1016 OFFCURVE",
"1024 1209 OFFCURVE",
"737 1209 CURVE SMOOTH"
);
},
{
closed = 1;
nodes = (
"869 972 OFFCURVE",
"944 880 OFFCURVE",
"944 715 CURVE SMOOTH",
"944 595 OFFCURVE",
"907 442 OFFCURVE",
"833 343 CURVE SMOOTH",
"771 260 OFFCURVE",
"688 215 OFFCURVE",
"580 215 CURVE SMOOTH",
"428 215 OFFCURVE",
"353 307 OFFCURVE",
"353 472 CURVE SMOOTH",
"353 592 OFFCURVE",
"390 745 OFFCURVE",
"464 844 CURVE SMOOTH",
"526 927 OFFCURVE",
"609 972 OFFCURVE",
"717 972 CURVE SMOOTH"
);
}
);
width = 1228;
}
);
unicode = 004F;
},
{
color = (0,243,255,1);
glyphname = Oslash;
lastChange = "2014-05-18 14:45:59 -0700";
layers = (
{
components = (
{
name = O;
transform = "{1, 0, 0, 1, 0, 0}";
}
);
layerId = UUID0;
name = "Regular Italic";
paths = (
{
closed = 1;
nodes = (
"122 90 LINE SMOOTH",
"90 52 OFFCURVE",
"101 25 OFFCURVE",
"137 -3 CURVE SMOOTH",
"172 -31 OFFCURVE",
"211 -28 OFFCURVE",
"243 10 CURVE SMOOTH",
"1174 1099 LINE SMOOTH",
"1206 1137 OFFCURVE",
"1196 1164 OFFCURVE",
"1161 1192 CURVE SMOOTH",
"1126 1220 OFFCURVE",
"1086 1217 OFFCURVE",
"1053 1179 CURVE SMOOTH"
);
}
);
width = 1228;
},
{
components = (
{
name = O;
transform = "{1, 0, 0, 1, 0, 0}";
}
);
layerId = "0791FDB8-5A5D-41D7-9039-1C27D6F382A7";
name = "Bold Italic";
paths = (
{
closed = 1;
nodes = (
"115 114 LINE SMOOTH",
"83 77 OFFCURVE",
"83 52 OFFCURVE",
"137 9 CURVE SMOOTH",
"191 -34 OFFCURVE",
"216 -30 OFFCURVE",
"249 7 CURVE SMOOTH",
"1182 1073 LINE SMOOTH",
"1214 1110 OFFCURVE",
"1214 1135 OFFCURVE",
"1160 1178 CURVE SMOOTH",
"1106 1221 OFFCURVE",
"1081 1216 OFFCURVE",
"1049 1180 CURVE SMOOTH"
);
}
);
width = 1228;
}
);
unicode = 00D8;
},
{
glyphname = OE;
lastChange = "2014-05-19 05:04:24 -0700";
layers = (
{
layerId = UUID0;
name = "Regular Italic";
paths = (
{
closed = 1;
nodes = (
"723 1187 LINE",
"704 1066 LINE",
"536 120 LINE",
"534 0 LINE",
"1008 0 LINE SMOOTH",
"1053 0 OFFCURVE",
"1074 20 OFFCURVE",
"1083 72 CURVE SMOOTH",
"1092 124 OFFCURVE",
"1078 144 OFFCURVE",
"1033 144 CURVE SMOOTH",
"691 144 LINE",
"761 540 LINE",
"1008 540 LINE SMOOTH",
"1053 540 OFFCURVE",
"1074 560 OFFCURVE",
"1083 612 CURVE SMOOTH",
"1093 664 OFFCURVE",
"1078 684 OFFCURVE",
"1033 684 CURVE SMOOTH",
"786 684 LINE",
"849 1043 LINE",
"1171 1043 LINE SMOOTH",
"1216 1043 OFFCURVE",
"1238 1063 OFFCURVE",
"1247 1115 CURVE SMOOTH",
"1256 1167 OFFCURVE",
"1242 1187 OFFCURVE",
"1197 1187 CURVE SMOOTH"
);
},
{
closed = 1;
nodes = (
"494 1187 OFFCURVE",
"337 1074 OFFCURVE",
"239 921 CURVE SMOOTH",
"147 779 OFFCURVE",
"107 603 OFFCURVE",
"107 454 CURVE SMOOTH",
"107 171 OFFCURVE",
"268 0 OFFCURVE",
"534 0 CURVE",
"585 70 LINE",
"556 136 LINE",
"373 136 OFFCURVE",
"260 248 OFFCURVE",
"260 461 CURVE SMOOTH",
"260 594 OFFCURVE",
"296 745 OFFCURVE",
"373 861 CURVE SMOOTH",
"448 973 OFFCURVE",
"562 1052 OFFCURVE",
"719 1050 CURVE",
"770 1125 LINE",
"723 1187 LINE"
);
}
);
width = 1228;
},
{
layerId = "0791FDB8-5A5D-41D7-9039-1C27D6F382A7";
name = "Bold Italic";
paths = (
{
closed = 1;
nodes = (
"727 1187 LINE",
"678 1124 LINE",
"491 63 LINE",
"550 0 LINE",
"1047 0 LINE SMOOTH",
"1092 0 OFFCURVE",
"1113 22 OFFCURVE",
"1130 117 CURVE SMOOTH",
"1147 212 OFFCURVE",
"1133 235 OFFCURVE",
"1088 235 CURVE SMOOTH",
"771 235 LINE",
"817 494 LINE",
"1051 494 LINE SMOOTH",
"1096 494 OFFCURVE",
"1117 516 OFFCURVE",
"1134 611 CURVE SMOOTH",
"1151 706 OFFCURVE",
"1137 729 OFFCURVE",
"1092 729 CURVE SMOOTH",
"858 729 LINE",
"897 952 LINE",
"1194 952 LINE SMOOTH",
"1239 952 OFFCURVE",
"1261 974 OFFCURVE",
"1278 1069 CURVE SMOOTH",
"1295 1164 OFFCURVE",
"1281 1187 OFFCURVE",
"1236 1187 CURVE SMOOTH"
);
},
{
closed = 1;
nodes = (
"515 1187 OFFCURVE",
"343 1104 OFFCURVE",
"228 946 CURVE SMOOTH",
"131 812 OFFCURVE",
"81 629 OFFCURVE",
"81 476 CURVE SMOOTH",
"81 185 OFFCURVE",
"263 0 OFFCURVE",
"550 0 CURVE",
"619 129 LINE",
"564 237 LINE",
"412 237 OFFCURVE",
"337 321 OFFCURVE",
"337 477 CURVE SMOOTH",
"337 592 OFFCURVE",
"373 740 OFFCURVE",
"448 834 CURVE SMOOTH",
"510 911 OFFCURVE",
"593 950 OFFCURVE",
"701 950 CURVE",
"759 1023 LINE",
"727 1187 LINE"
);
}
);
width = 1228;
}
);
unicode = 0152;
},
{
glyphname = P;
lastChange = "2014-05-19 05:01:30 -0700";
layers = (
{
background = {
paths = (
{
closed = 1;
nodes = (
"435 1187 LINE SMOOTH",
"390 1187 OFFCURVE",
"371 1169 OFFCURVE",
"362 1119 CURVE SMOOTH",
"174 55 LINE SMOOTH",
"166 9 OFFCURVE",
"181 -10 OFFCURVE",
"237 -10 CURVE SMOOTH",
"239 -10 LINE SMOOTH",
"292 -10 OFFCURVE",
"316 9 OFFCURVE",
"324 55 CURVE SMOOTH",
"384 393 LINE",
"681 393 LINE SMOOTH",
"1045 393 OFFCURVE",
"1187 637 OFFCURVE",
"1187 859 CURVE SMOOTH",
"1187 1054 OFFCURVE",
"1050 1187 OFFCURVE",
"800 1187 CURVE SMOOTH"
);
},
{
closed = 1;
nodes = (
"946 1043 OFFCURVE",
"1033 972 OFFCURVE",
"1033 844 CURVE SMOOTH",
"1033 694 OFFCURVE",
"940 537 OFFCURVE",
"680 537 CURVE SMOOTH",
"409 537 LINE",
"498 1043 LINE",
"767 1043 LINE SMOOTH"
);
}
);
};
layerId = UUID0;
name = "Regular Italic";
paths = (
{
closed = 1;
nodes = (
"435 1187 LINE SMOOTH",
"390 1187 OFFCURVE",
"371 1169 OFFCURVE",
"362 1119 CURVE SMOOTH",
"174 55 LINE SMOOTH",
"166 9 OFFCURVE",
"181 -10 OFFCURVE",
"237 -10 CURVE SMOOTH",
"239 -10 LINE SMOOTH",
"292 -10 OFFCURVE",
"316 9 OFFCURVE",
"324 55 CURVE SMOOTH",
"384 393 LINE",
"681 393 LINE SMOOTH",
"1045 393 OFFCURVE",
"1187 637 OFFCURVE",
"1187 859 CURVE SMOOTH",
"1187 1054 OFFCURVE",
"1050 1187 OFFCURVE",
"800 1187 CURVE SMOOTH"
);
},
{
closed = 1;
nodes = (
"946 1043 OFFCURVE",
"1033 972 OFFCURVE",
"1033 844 CURVE SMOOTH",
"1033 694 OFFCURVE",
"940 537 OFFCURVE",
"680 537 CURVE SMOOTH",
"409 537 LINE",
"498 1043 LINE",
"767 1043 LINE SMOOTH"
);
}
);
width = 1228;
},
{
layerId = "0791FDB8-5A5D-41D7-9039-1C27D6F382A7";
name = "Bold Italic";
paths = (
{
closed = 1;
nodes = (
"402 1187 LINE SMOOTH",
"357 1187 OFFCURVE",
"336 1169 OFFCURVE",
"328 1124 CURVE SMOOTH",
"141 63 LINE SMOOTH",
"133 18 OFFCURVE",
"148 0 OFFCURVE",
"193 0 CURVE SMOOTH",
"317 0 LINE SMOOTH",
"362 0 OFFCURVE",
"383 18 OFFCURVE",
"391 63 CURVE SMOOTH",
"440 342 LINE",
"650 342 LINE SMOOTH",
"982 342 OFFCURVE",
"1173 527 OFFCURVE",
"1173 818 CURVE SMOOTH",
"1173 1044 OFFCURVE",
"1035 1187 OFFCURVE",
"749 1187 CURVE SMOOTH"
);
},
{
closed = 1;
nodes = (
"845 952 OFFCURVE",
"915 904 OFFCURVE",
"915 798 CURVE SMOOTH",
"915 646 OFFCURVE",
"813 577 OFFCURVE",
"645 577 CURVE SMOOTH",
"481 577 LINE",
"547 952 LINE",
"702 952 LINE SMOOTH"
);
}
);
width = 1228;
}
);
unicode = 0050;
},
{
glyphname = Thorn;
lastChange = "2014-11-14 23:16:20 -0700";
layers = (
{
layerId = UUID0;
name = "Regular Italic";
paths = (
{
closed = 1;
nodes = (
"411 946 LINE",
"387 802 LINE",
"745 802 LINE SMOOTH",
"881 802 OFFCURVE",
"940 735 OFFCURVE",
"940 641 CURVE SMOOTH",
"940 534 OFFCURVE",
"879 398 OFFCURVE",
"678 398 CURVE SMOOTH",
"320 398 LINE",
"296 254 LINE",
"685 254 LINE SMOOTH",
"999 254 OFFCURVE",
"1098 490 OFFCURVE",
"1098 654 CURVE SMOOTH",
"1098 818 OFFCURVE",
"991 946 OFFCURVE",
"780 946 CURVE SMOOTH"
);
},
{
closed = 1;
nodes = (
"449 1197 LINE SMOOTH",
"396 1197 OFFCURVE",
"372 1178 OFFCURVE",
"364 1132 CURVE SMOOTH",
"174 55 LINE SMOOTH",
"166 9 OFFCURVE",
"181 -10 OFFCURVE",
"237 -10 CURVE SMOOTH",
"239 -10 LINE SMOOTH",
"292 -10 OFFCURVE",
"316 9 OFFCURVE",
"324 55 CURVE SMOOTH",
"514 1132 LINE SMOOTH",
"522 1178 OFFCURVE",
"507 1197 OFFCURVE",
"451 1197 CURVE SMOOTH"
);
}
);
width = 1228;
},
{
layerId = "0791FDB8-5A5D-41D7-9039-1C27D6F382A7";
name = "Bold Italic";
paths = (
{
closed = 1;
nodes = (
"486 977 LINE",
"444 742 LINE",
"665 742 LINE SMOOTH",
"803 742 OFFCURVE",
"864 699 OFFCURVE",
"864 612 CURVE SMOOTH",
"864 500 OFFCURVE",
"782 447 OFFCURVE",
"627 447 CURVE SMOOTH",
"392 447 LINE",
"351 212 LINE",
"632 212 LINE SMOOTH",
"951 212 OFFCURVE",
"1120 372 OFFCURVE",
"1120 636 CURVE SMOOTH",
"1120 850 OFFCURVE",
"997 977 OFFCURVE",
"716 977 CURVE SMOOTH"
);
},
{
closed = 1;
nodes = (
"412 1187 LINE SMOOTH",
"367 1187 OFFCURVE",
"346 1169 OFFCURVE",
"338 1124 CURVE SMOOTH",
"151 63 LINE SMOOTH",
"143 18 OFFCURVE",
"158 0 OFFCURVE",
"203 0 CURVE SMOOTH",
"327 0 LINE SMOOTH",
"372 0 OFFCURVE",
"393 18 OFFCURVE",
"401 63 CURVE SMOOTH",
"588 1124 LINE SMOOTH",
"596 1169 OFFCURVE",
"581 1187 OFFCURVE",
"536 1187 CURVE SMOOTH"
);
}
);
width = 1228;
}
);
unicode = 00DE;
},
{
color = (0,243,255,1);
glyphname = Q;
lastChange = "2014-11-14 23:16:45 -0700";
layers = (
{
components = (
{
name = O;
transform = "{1, 0, 0, 1, 0, 0}";
}
);
layerId = UUID0;
name = "Regular Italic";
paths = (
{
closed = 1;
nodes = (
"571 378 OFFCURVE",
"562 353 OFFCURVE",
"581 311 CURVE SMOOTH",
"676 104 LINE",
"702 47 LINE",
"782 -128 LINE SMOOTH",
"801 -169 OFFCURVE",
"826 -179 OFFCURVE",
"877 -156 CURVE SMOOTH",
"929 -133 OFFCURVE",
"937 -108 OFFCURVE",
"918 -66 CURVE SMOOTH",
"717 373 LINE SMOOTH",
"698 415 OFFCURVE",
"673 426 OFFCURVE",
"622 402 CURVE SMOOTH"
);
}
);
width = 1228;
},
{
components = (
{
name = O;
transform = "{1, 0, 0, 1, 0, 0}";
}
);
layerId = "0791FDB8-5A5D-41D7-9039-1C27D6F382A7";
name = "Bold Italic";
paths = (
{
closed = 1;
nodes = (
"529 424 OFFCURVE",
"518 397 OFFCURVE",
"539 357 CURVE SMOOTH",
"655 136 LINE",
"696 13 LINE",
"773 -137 LINE SMOOTH",
"794 -177 OFFCURVE",
"826 -181 OFFCURVE",
"911 -136 CURVE SMOOTH",
"995 -92 OFFCURVE",
"1012 -63 OFFCURVE",
"991 -23 CURVE SMOOTH",
"740 462 LINE SMOOTH",
"719 502 OFFCURVE",
"690 507 OFFCURVE",
"610 465 CURVE SMOOTH"
);
}
);
width = 1228;
}
);
unicode = 0051;
},
{
glyphname = R;
lastChange = "2014-05-19 05:00:27 -0700";
layers = (
{
background = {
paths = (
{
closed = 1;
nodes = (
"413 617 LINE",
"488 1043 LINE",
"707 1043 LINE SMOOTH",
"864 1043 OFFCURVE",
"950 982 OFFCURVE",
"950 872 CURVE SMOOTH",
"950 759 OFFCURVE",
"887 617 OFFCURVE",
"621 617 CURVE SMOOTH"
);
},
{
closed = 1;
nodes = (
"775 488 LINE",
"973 548 OFFCURVE",
"1104 678 OFFCURVE",
"1104 888 CURVE SMOOTH",
"1104 1065 OFFCURVE",
"971 1187 OFFCURVE",
"730 1187 CURVE SMOOTH",
"425 1187 LINE SMOOTH",
"380 1187 OFFCURVE",
"361 1169 OFFCURVE",
"352 1119 CURVE SMOOTH",
"164 55 LINE SMOOTH",
"156 9 OFFCURVE",
"174 -10 OFFCURVE",
"230 -10 CURVE SMOOTH",
"286 -10 OFFCURVE",
"306 9 OFFCURVE",
"314 55 CURVE SMOOTH",
"388 473 LINE",
"620 473 LINE",
"838 14 LINE SMOOTH",
"854 -19 OFFCURVE",
"877 -23 OFFCURVE",
"929 0 CURVE SMOOTH",
"981 23 OFFCURVE",
"987 47 OFFCURVE",
"968 86 CURVE SMOOTH"
);
}
);
};
layerId = UUID0;
name = "Regular Italic";
paths = (
{
closed = 1;
nodes = (
"425 1187 LINE SMOOTH",
"380 1187 OFFCURVE",
"361 1169 OFFCURVE",
"352 1119 CURVE SMOOTH",
"164 55 LINE SMOOTH",
"156 9 OFFCURVE",
"171 -10 OFFCURVE",
"227 -10 CURVE SMOOTH",
"229 -10 LINE SMOOTH",
"282 -10 OFFCURVE",
"306 9 OFFCURVE",
"314 55 CURVE SMOOTH",
"388 473 LINE",
"687 473 LINE",
"968 520 OFFCURVE",
"1104 672 OFFCURVE",
"1104 888 CURVE SMOOTH",
"1104 1065 OFFCURVE",
"971 1187 OFFCURVE",
"730 1187 CURVE SMOOTH"
);
},
{
closed = 1;
nodes = (
"613 487 LINE",
"838 14 LINE SMOOTH",
"854 -19 OFFCURVE",
"877 -23 OFFCURVE",
"929 0 CURVE SMOOTH",
"981 23 OFFCURVE",
"987 47 OFFCURVE",
"968 86 CURVE SMOOTH",
"768 502 LINE"
);
},
{
closed = 1;
nodes = (
"864 1043 OFFCURVE",
"950 982 OFFCURVE",
"950 872 CURVE SMOOTH",
"950 715 OFFCURVE",
"839 617 OFFCURVE",
"621 617 CURVE SMOOTH",
"413 617 LINE",
"488 1043 LINE",
"707 1043 LINE SMOOTH"
);
}
);
width = 1228;
},
{
background = {
paths = (
{
closed = 1;
nodes = (
"702 952 LINE SMOOTH",
"828 952 OFFCURVE",
"884 908 OFFCURVE",
"884 818 CURVE SMOOTH",
"884 694 OFFCURVE",
"803 636 OFFCURVE",
"655 636 CURVE SMOOTH",
"471 636 LINE",
"527 952 LINE"
);
},
{
closed = 1;
nodes = (
"430 401 LINE",
"660 401 LINE SMOOTH",
"973 401 OFFCURVE",
"1142 582 OFFCURVE",
"1142 839 CURVE SMOOTH",
"1142 1052 OFFCURVE",
"1013 1187 OFFCURVE",
"745 1187 CURVE SMOOTH",
"382 1187 LINE SMOOTH",
"337 1187 OFFCURVE",
"316 1169 OFFCURVE",
"308 1124 CURVE SMOOTH",
"121 63 LINE SMOOTH",
"113 18 OFFCURVE",
"128 0 OFFCURVE",
"173 0 CURVE SMOOTH",
"297 0 LINE SMOOTH",
"342 0 OFFCURVE",
"363 18 OFFCURVE",
"371 63 CURVE SMOOTH"
);
},
{
closed = 1;
nodes = (
"596 417 LINE",
"769 18 LINE SMOOTH",
"787 -23 OFFCURVE",
"830 -21 OFFCURVE",
"913 14 CURVE SMOOTH",
"1002 52 OFFCURVE",
"1017 88 OFFCURVE",
"999 128 CURVE SMOOTH",
"846 469 LINE"
);
}
);
};
layerId = "0791FDB8-5A5D-41D7-9039-1C27D6F382A7";
name = "Bold Italic";
paths = (
{
closed = 1;
nodes = (
"382 1187 LINE SMOOTH",
"337 1187 OFFCURVE",
"316 1169 OFFCURVE",
"308 1124 CURVE SMOOTH",
"121 63 LINE SMOOTH",
"113 18 OFFCURVE",
"128 0 OFFCURVE",
"173 0 CURVE SMOOTH",
"297 0 LINE SMOOTH",
"342 0 OFFCURVE",
"363 18 OFFCURVE",
"371 63 CURVE SMOOTH",
"430 401 LINE",
"720 401 LINE",
"1009 434 OFFCURVE",
"1142 611 OFFCURVE",
"1142 839 CURVE SMOOTH",
"1142 1052 OFFCURVE",
"1013 1187 OFFCURVE",
"745 1187 CURVE SMOOTH"
);
},
{
closed = 1;
nodes = (
"596 417 LINE",
"769 18 LINE SMOOTH",
"787 -23 OFFCURVE",
"830 -21 OFFCURVE",
"913 14 CURVE SMOOTH",
"1002 52 OFFCURVE",
"1017 88 OFFCURVE",
"999 128 CURVE SMOOTH",
"846 469 LINE"
);
},
{
closed = 1;
nodes = (
"828 952 OFFCURVE",
"884 908 OFFCURVE",
"884 818 CURVE SMOOTH",
"884 694 OFFCURVE",
"803 636 OFFCURVE",
"655 636 CURVE SMOOTH",
"471 636 LINE",
"527 952 LINE",
"702 952 LINE SMOOTH"
);
}
);
width = 1228;
}
);
unicode = 0052;
},
{
glyphname = S;
lastChange = "2014-05-18 14:59:53 -0700";
layers = (
{
layerId = UUID0;
name = "Regular Italic";
paths = (
{
closed = 1;
nodes = (
"385 1209 OFFCURVE",
"248 1004 OFFCURVE",
"248 833 CURVE SMOOTH",
"248 722 OFFCURVE",
"302 651 OFFCURVE",
"400 609 CURVE SMOOTH",
"526 555 OFFCURVE",
"698 544 OFFCURVE",
"805 495 CURVE SMOOTH",
"864 468 OFFCURVE",
"897 425 OFFCURVE",
"897 361 CURVE SMOOTH",
"897 234 OFFCURVE",
"796 126 OFFCURVE",
"584 126 CURVE SMOOTH",
"453 126 OFFCURVE",
"323 166 OFFCURVE",
"230 232 CURVE SMOOTH",
"206 249 OFFCURVE",
"175 247 OFFCURVE",
"145 197 CURVE SMOOTH",
"116 148 OFFCURVE",
"124 117 OFFCURVE",
"157 94 CURVE SMOOTH",
"262 21 OFFCURVE",
"415 -22 OFFCURVE",
"568 -22 CURVE SMOOTH",
"936 -22 OFFCURVE",
"1057 195 OFFCURVE",
"1057 380 CURVE SMOOTH",
"1057 497 OFFCURVE",
"998 582 OFFCURVE",
"906 624 CURVE SMOOTH",
"778 683 OFFCURVE",
"617 694 OFFCURVE",
"507 732 CURVE SMOOTH",
"441 755 OFFCURVE",
"408 786 OFFCURVE",
"408 847 CURVE SMOOTH",
"408 952 OFFCURVE",
"499 1061 OFFCURVE",
"685 1061 CURVE SMOOTH",
"816 1061 OFFCURVE",
"943 1023 OFFCURVE",
"1033 969 CURVE SMOOTH",
"1061 952 OFFCURVE",
"1091 956 OFFCURVE",
"1119 1008 CURVE SMOOTH",
"1147 1060 OFFCURVE",
"1138 1088 OFFCURVE",
"1103 1109 CURVE SMOOTH",
"992 1174 OFFCURVE",
"857 1209 OFFCURVE",
"704 1209 CURVE SMOOTH"
);
}
);
width = 1228;
},
{
layerId = "0791FDB8-5A5D-41D7-9039-1C27D6F382A7";
name = "Bold Italic";
paths = (
{
closed = 1;
nodes = (
"420 1209 OFFCURVE",
"226 1056 OFFCURVE",
"226 807 CURVE SMOOTH",
"226 713 OFFCURVE",
"260 650 OFFCURVE",
"313 606 CURVE SMOOTH",
"425 512 OFFCURVE",
"619 504 OFFCURVE",
"730 457 CURVE SMOOTH",
"781 435 OFFCURVE",
"814 405 OFFCURVE",
"814 355 CURVE SMOOTH",
"814 266 OFFCURVE",
"736 215 OFFCURVE",
"588 215 CURVE SMOOTH",
"469 215 OFFCURVE",
"340 240 OFFCURVE",
"250 285 CURVE SMOOTH",
"213 304 OFFCURVE",
"176 292 OFFCURVE",
"145 205 CURVE SMOOTH",
"117 127 OFFCURVE",
"126 86 OFFCURVE",
"165 65 CURVE SMOOTH",
"270 9 OFFCURVE",
"436 -22 OFFCURVE",
"577 -22 CURVE SMOOTH",
"898 -22 OFFCURVE",
"1077 137 OFFCURVE",
"1077 391 CURVE SMOOTH",
"1077 509 OFFCURVE",
"1032 583 OFFCURVE",
"967 631 CURVE SMOOTH",
"847 720 OFFCURVE",
"658 724 OFFCURVE",
"558 764 CURVE SMOOTH",
"516 781 OFFCURVE",
"489 803 OFFCURVE",
"489 841 CURVE SMOOTH",
"489 922 OFFCURVE",
"564 972 OFFCURVE",
"685 972 CURVE SMOOTH",
"804 972 OFFCURVE",
"929 946 OFFCURVE",
"1025 910 CURVE SMOOTH",
"1063 896 OFFCURVE",
"1106 909 OFFCURVE",
"1130 995 CURVE SMOOTH",
"1153 1078 OFFCURVE",
"1136 1117 OFFCURVE",
"1094 1135 CURVE SMOOTH",
"984 1182 OFFCURVE",
"848 1209 OFFCURVE",
"707 1209 CURVE SMOOTH"
);
}
);
width = 1228;
}
);
unicode = 0053;
},
{
glyphname = T;
lastChange = "2014-05-19 05:04:59 -0700";
layers = (
{
layerId = UUID0;
name = "Regular Italic";
paths = (
{
closed = 1;
nodes = (
"314 1187 LINE SMOOTH",
"269 1187 OFFCURVE",
"247 1167 OFFCURVE",
"238 1115 CURVE SMOOTH",
"229 1063 OFFCURVE",
"243 1043 OFFCURVE",
"288 1043 CURVE SMOOTH",
"652 1043 LINE",
"478 55 LINE SMOOTH",
"470 9 OFFCURVE",
"485 -10 OFFCURVE",
"541 -10 CURVE SMOOTH",
"543 -10 LINE SMOOTH",
"596 -10 OFFCURVE",
"620 9 OFFCURVE",
"628 55 CURVE SMOOTH",
"802 1043 LINE",
"1146 1043 LINE SMOOTH",
"1191 1043 OFFCURVE",
"1213 1063 OFFCURVE",
"1222 1115 CURVE SMOOTH",
"1231 1167 OFFCURVE",
"1217 1187 OFFCURVE",
"1172 1187 CURVE SMOOTH"
);
}
);
width = 1228;
},
{
layerId = "0791FDB8-5A5D-41D7-9039-1C27D6F382A7";
name = "Bold Italic";
paths = (
{
closed = 1;
nodes = (
"292 1187 LINE SMOOTH",
"247 1187 OFFCURVE",
"225 1164 OFFCURVE",
"208 1069 CURVE SMOOTH",
"191 974 OFFCURVE",
"205 952 OFFCURVE",
"250 952 CURVE SMOOTH",
"586 952 LINE",
"430 63 LINE SMOOTH",
"422 18 OFFCURVE",
"437 0 OFFCURVE",
"482 0 CURVE SMOOTH",
"606 0 LINE SMOOTH",
"651 0 OFFCURVE",
"672 18 OFFCURVE",
"680 63 CURVE SMOOTH",
"836 952 LINE",
"1152 952 LINE SMOOTH",
"1197 952 OFFCURVE",
"1219 974 OFFCURVE",
"1236 1069 CURVE SMOOTH",
"1253 1164 OFFCURVE",
"1239 1187 OFFCURVE",
"1194 1187 CURVE SMOOTH"
);
}
);
width = 1228;
}
);
unicode = 0054;
},
{
color = (0,243,255,1);
glyphname = Tbar;
lastChange = "2014-11-15 17:50:24 -0700";
layers = (
{
components = (
{
name = T;
transform = "{1, 0, 0, 1, 0, 0}";
}
);
layerId = UUID0;
name = "Regular Italic";
paths = (
{
closed = 1;
nodes = (
"369 590 LINE SMOOTH",
"324 590 OFFCURVE",
"302 570 OFFCURVE",
"293 518 CURVE SMOOTH",
"284 466 OFFCURVE",
"298 446 OFFCURVE",
"343 446 CURVE SMOOTH",
"905 446 LINE SMOOTH",
"950 446 OFFCURVE",
"972 466 OFFCURVE",
"981 518 CURVE SMOOTH",
"990 570 OFFCURVE",
"976 590 OFFCURVE",
"931 590 CURVE SMOOTH"
);
}
);
width = 1228;
},
{
components = (
{
name = T;
transform = "{1, 0, 0, 1, 0, 0}";
}
);
layerId = "0791FDB8-5A5D-41D7-9039-1C27D6F382A7";
name = "Bold Italic";
paths = (
{
closed = 1;
nodes = (
"315 575 LINE SMOOTH",
"270 575 OFFCURVE",
"249 557 OFFCURVE",
"232 462 CURVE SMOOTH",
"215 367 OFFCURVE",
"230 350 OFFCURVE",
"275 350 CURVE SMOOTH",
"937 350 LINE SMOOTH",
"982 350 OFFCURVE",
"1003 367 OFFCURVE",
"1020 462 CURVE SMOOTH",
"1037 557 OFFCURVE",
"1022 575 OFFCURVE",
"977 575 CURVE SMOOTH"
);
}
);
width = 1228;
}
);
unicode = 0166;
},
{
glyphname = U;
lastChange = "2014-05-19 04:55:58 -0700";
layers = (
{
layerId = UUID0;
name = "Regular Italic";
paths = (
{
closed = 1;
nodes = (
"1117 1197 LINE SMOOTH",
"1064 1197 OFFCURVE",
"1040 1178 OFFCURVE",
"1032 1132 CURVE SMOOTH",
"909 433 LINE SMOOTH",
"870 210 OFFCURVE",
"758 126 OFFCURVE",
"567 126 CURVE SMOOTH",
"407 126 OFFCURVE",
"321 187 OFFCURVE",
"321 339 CURVE SMOOTH",
"321 367 OFFCURVE",
"325 399 OFFCURVE",
"331 435 CURVE SMOOTH",
"454 1132 LINE SMOOTH",
"462 1178 OFFCURVE",
"447 1197 OFFCURVE",
"391 1197 CURVE SMOOTH",
"389 1197 LINE SMOOTH",
"336 1197 OFFCURVE",
"312 1178 OFFCURVE",
"304 1132 CURVE SMOOTH",
"179 425 LINE SMOOTH",
"172 386 OFFCURVE",
"168 349 OFFCURVE",
"168 316 CURVE SMOOTH",
"168 90 OFFCURVE",
"318 -22 OFFCURVE",
"555 -22 CURVE SMOOTH",
"828 -22 OFFCURVE",
"1000 105 OFFCURVE",
"1053 404 CURVE SMOOTH",
"1182 1132 LINE SMOOTH",
"1190 1178 OFFCURVE",
"1175 1197 OFFCURVE",
"1119 1197 CURVE SMOOTH"
);
}
);
width = 1228;
},
{
layerId = "0791FDB8-5A5D-41D7-9039-1C27D6F382A7";
name = "Bold Italic";
paths = (
{
closed = 1;
nodes = (
"1040 1187 LINE SMOOTH",
"995 1187 OFFCURVE",
"974 1169 OFFCURVE",
"966 1124 CURVE SMOOTH",
"847 453 LINE SMOOTH",
"818 288 OFFCURVE",
"719 215 OFFCURVE",
"585 215 CURVE SMOOTH",
"469 215 OFFCURVE",
"393 269 OFFCURVE",
"393 390 CURVE SMOOTH",
"393 410 OFFCURVE",
"395 430 OFFCURVE",
"399 453 CURVE SMOOTH",
"518 1124 LINE SMOOTH",
"526 1169 OFFCURVE",
"511 1187 OFFCURVE",
"466 1187 CURVE SMOOTH",
"342 1187 LINE SMOOTH",
"297 1187 OFFCURVE",
"276 1169 OFFCURVE",
"268 1124 CURVE SMOOTH",
"150 453 LINE SMOOTH",
"144 419 OFFCURVE",
"141 387 OFFCURVE",
"141 357 CURVE SMOOTH",
"141 123 OFFCURVE",
"308 -22 OFFCURVE",
"565 -22 CURVE SMOOTH",
"855 -22 OFFCURVE",
"1038 123 OFFCURVE",
"1090 413 CURVE SMOOTH",
"1216 1124 LINE SMOOTH",
"1224 1169 OFFCURVE",
"1209 1187 OFFCURVE",
"1164 1187 CURVE SMOOTH"
);
}
);
width = 1228;
}
);
unicode = 0055;
},
{
color = (0,3,255,1);
glyphname = Uogonek;
lastChange = "2014-05-19 04:55:29 -0700";
layers = (
{
components = (
{
name = U;
transform = "{1, 0, 0, 1, 0, 0}";
},
{
name = ogonek;
transform = "{1, 0, 0, 1, 90, 0}";
}
);
layerId = UUID0;
name = "Regular Italic";
width = 1228;
},
{
background = {
paths = (
{
closed = 1;
nodes = (
"620 -472 OFFCURVE",
"712 -457 OFFCURVE",
"778 -436 CURVE SMOOTH",
"808 -427 OFFCURVE",
"824 -400 OFFCURVE",
"818 -350 CURVE SMOOTH",
"812 -302 OFFCURVE",
"793 -280 OFFCURVE",
"766 -285 CURVE SMOOTH",
"726 -292 OFFCURVE",
"686 -298 OFFCURVE",
"647 -298 CURVE SMOOTH",
"598 -298 OFFCURVE",
"569 -280 OFFCURVE",
"569 -235 CURVE SMOOTH",
"569 -162 OFFCURVE",
"665 -75 OFFCURVE",
"790 14 CURVE",
"950 74 OFFCURVE",
"1053 207 OFFCURVE",
"1090 413 CURVE SMOOTH",
"1216 1124 LINE SMOOTH",
"1224 1169 OFFCURVE",
"1209 1187 OFFCURVE",
"1164 1187 CURVE SMOOTH",
"1040 1187 LINE SMOOTH",
"995 1187 OFFCURVE",
"974 1169 OFFCURVE",
"966 1124 CURVE SMOOTH",
"847 453 LINE SMOOTH",
"818 288 OFFCURVE",
"719 215 OFFCURVE",
"585 215 CURVE SMOOTH",
"469 215 OFFCURVE",
"393 269 OFFCURVE",
"393 390 CURVE SMOOTH",
"393 410 OFFCURVE",
"395 430 OFFCURVE",
"399 453 CURVE SMOOTH",
"518 1124 LINE SMOOTH",
"526 1169 OFFCURVE",
"511 1187 OFFCURVE",
"466 1187 CURVE SMOOTH",
"342 1187 LINE SMOOTH",
"297 1187 OFFCURVE",
"276 1169 OFFCURVE",
"268 1124 CURVE SMOOTH",
"150 453 LINE SMOOTH",
"144 419 OFFCURVE",
"141 387 OFFCURVE",
"141 357 CURVE SMOOTH",
"141 137 OFFCURVE",
"288 -4 OFFCURVE",
"518 -20 CURVE",
"403 -94 OFFCURVE",
"319 -183 OFFCURVE",
"319 -300 CURVE SMOOTH",
"319 -408 OFFCURVE",
"402 -472 OFFCURVE",
"541 -472 CURVE SMOOTH"
);
}
);
};
components = (
{
name = U;
transform = "{1, 0, 0, 1, 0, 0}";
},
{
name = ogonek;
transform = "{1, 0, 0, 1, 90, 0}";
}
);
layerId = "0791FDB8-5A5D-41D7-9039-1C27D6F382A7";
name = "Bold Italic";
width = 1228;
}
);
unicode = 0172;
},
{
glyphname = V;
lastChange = "2014-05-19 04:55:02 -0700";
layers = (
{
layerId = UUID0;
name = "Regular Italic";
paths = (
{
closed = 1;
nodes = (
"229 1188 OFFCURVE",
"217 1168 OFFCURVE",
"226 1124 CURVE SMOOTH",
"442 43 LINE SMOOTH",
"451 -4 OFFCURVE",
"481 -22 OFFCURVE",
"538 -22 CURVE SMOOTH",
"595 -22 OFFCURVE",
"630 -4 OFFCURVE",
"656 43 CURVE SMOOTH",
"1238 1096 LINE SMOOTH",
"1262 1140 OFFCURVE",
"1255 1164 OFFCURVE",
"1206 1187 CURVE SMOOTH",
"1158 1210 OFFCURVE",
"1126 1203 OFFCURVE",
"1102 1159 CURVE SMOOTH",
"567 182 LINE",
"377 1146 LINE SMOOTH",
"368 1190 OFFCURVE",
"349 1202 OFFCURVE",
"289 1195 CURVE SMOOTH"
);
}
);
width = 1228;
},
{
layerId = "0791FDB8-5A5D-41D7-9039-1C27D6F382A7";
name = "Bold Italic";
paths = (
{
closed = 1;
nodes = (
"223 1168 OFFCURVE",
"196 1135 OFFCURVE",
"205 1090 CURVE SMOOTH",
"414 43 LINE SMOOTH",
"423 -3 OFFCURVE",
"451 -22 OFFCURVE",
"534 -22 CURVE SMOOTH",
"617 -22 OFFCURVE",
"652 -4 OFFCURVE",
"678 43 CURVE SMOOTH",
"1270 1090 LINE SMOOTH",
"1296 1136 OFFCURVE",
"1273 1168 OFFCURVE",
"1180 1189 CURVE SMOOTH",
"1088 1210 OFFCURVE",
"1044 1205 OFFCURVE",
"1019 1160 CURVE SMOOTH",
"596 394 LINE",
"453 1160 LINE SMOOTH",
"445 1204 OFFCURVE",
"404 1210 OFFCURVE",
"313 1189 CURVE SMOOTH"
);
}
);
width = 1228;
}
);
unicode = 0056;
},
{
glyphname = W;
lastChange = "2014-05-19 04:54:48 -0700";
layers = (
{
layerId = UUID0;
name = "Regular Italic";
paths = (
{
closed = 1;
nodes = (
"211 1196 OFFCURVE",
"198 1180 OFFCURVE",
"196 1136 CURVE SMOOTH",
"154 43 LINE SMOOTH",
"152 -6 OFFCURVE",
"181 -22 OFFCURVE",
"232 -22 CURVE SMOOTH",
"283 -22 OFFCURVE",
"316 -2 OFFCURVE",
"340 43 CURVE SMOOTH",
"650 629 LINE",
"754 43 LINE SMOOTH",
"762 -2 OFFCURVE",
"795 -22 OFFCURVE",
"846 -22 CURVE SMOOTH",
"897 -22 OFFCURVE",
"925 -6 OFFCURVE",
"940 43 CURVE SMOOTH",
"1275 1110 LINE SMOOTH",
"1291 1161 OFFCURVE",
"1285 1185 OFFCURVE",
"1226 1195 CURVE SMOOTH",
"1169 1205 OFFCURVE",
"1145 1191 OFFCURVE",
"1130 1141 CURVE SMOOTH",
"862 258 LINE",
"758 845 LINE SMOOTH",
"754 871 OFFCURVE",
"733 885 OFFCURVE",
"689 885 CURVE SMOOTH",
"645 885 OFFCURVE",
"624 871 OFFCURVE",
"610 845 CURVE SMOOTH",
"300 258 LINE",
"343 1133 LINE SMOOTH",
"345 1180 OFFCURVE",
"330 1196 OFFCURVE",
"270 1196 CURVE SMOOTH"
);
}
);
width = 1228;
},
{
layerId = "0791FDB8-5A5D-41D7-9039-1C27D6F382A7";
name = "Bold Italic";
paths = (
{
closed = 1;
nodes = (
"216 1197 OFFCURVE",
"187 1176 OFFCURVE",
"184 1132 CURVE SMOOTH",
"111 55 LINE SMOOTH",
"108 6 OFFCURVE",
"130 -10 OFFCURVE",
"225 -10 CURVE SMOOTH",
"320 -10 OFFCURVE",
"354 11 OFFCURVE",
"380 55 CURVE SMOOTH",
"631 477 LINE",
"732 55 LINE SMOOTH",
"742 11 OFFCURVE",
"762 -10 OFFCURVE",
"857 -10 CURVE SMOOTH",
"952 -10 OFFCURVE",
"977 6 OFFCURVE",
"991 55 CURVE SMOOTH",
"1295 1118 LINE SMOOTH",
"1308 1162 OFFCURVE",
"1283 1188 OFFCURVE",
"1191 1195 CURVE SMOOTH",
"1100 1202 OFFCURVE",
"1066 1185 OFFCURVE",
"1054 1142 CURVE SMOOTH",
"867 466 LINE",
"780 831 LINE SMOOTH",
"774 856 OFFCURVE",
"759 875 OFFCURVE",
"690 875 CURVE SMOOTH",
"621 875 OFFCURVE",
"603 860 OFFCURVE",
"586 831 CURVE SMOOTH",
"371 466 LINE",
"422 1135 LINE SMOOTH",
"425 1178 OFFCURVE",
"399 1197 OFFCURVE",
"305 1197 CURVE SMOOTH"
);
}
);
width = 1228;
}
);
unicode = 0057;
},
{
glyphname = X;
lastChange = "2014-05-19 04:54:28 -0700";
layers = (
{
layerId = UUID0;
name = "Regular Italic";
paths = (
{
closed = 1;
nodes = (
"1115 1215 OFFCURVE",
"1078 1218 OFFCURVE",
"1045 1178 CURVE SMOOTH",
"616 657 LINE",
"571 623 LINE",
"116 97 LINE SMOOTH",
"82 57 OFFCURVE",
"86 26 OFFCURVE",
"127 0 CURVE SMOOTH",
"170 -28 OFFCURVE",
"207 -31 OFFCURVE",
"240 9 CURVE SMOOTH",
"663 516 LINE",
"711 552 LINE",
"1169 1090 LINE SMOOTH",
"1203 1130 OFFCURVE",
"1199 1161 OFFCURVE",
"1158 1187 CURVE SMOOTH"
);
},
{
closed = 1;
nodes = (
"309 1163 OFFCURVE",
"294 1142 OFFCURVE",
"315 1102 CURVE SMOOTH",
"590 568 LINE",
"617 538 LINE",
"877 17 LINE SMOOTH",
"897 -23 OFFCURVE",
"920 -26 OFFCURVE",
"973 0 CURVE SMOOTH",
"1022 24 OFFCURVE",
"1037 45 OFFCURVE",
"1016 85 CURVE SMOOTH",
"731 629 LINE",
"707 656 LINE",
"454 1170 LINE SMOOTH",
"434 1210 OFFCURVE",
"411 1213 OFFCURVE",
"358 1187 CURVE SMOOTH"
);
}
);
width = 1228;
},
{
layerId = "0791FDB8-5A5D-41D7-9039-1C27D6F382A7";
name = "Bold Italic";
paths = (
{
closed = 1;
nodes = (
"1057 1217 OFFCURVE",
"1012 1211 OFFCURVE",
"979 1171 CURVE SMOOTH",
"612 721 LINE",
"598 751 LINE",
"83 136 LINE SMOOTH",
"49 96 OFFCURVE",
"55 58 OFFCURVE",
"139 14 CURVE SMOOTH",
"227 -32 OFFCURVE",
"274 -27 OFFCURVE",
"307 13 CURVE SMOOTH",
"670 461 LINE",
"686 441 LINE",
"1199 1050 LINE SMOOTH",
"1233 1090 OFFCURVE",
"1229 1127 OFFCURVE",
"1145 1171 CURVE SMOOTH"
);
},
{
closed = 1;
nodes = (
"245 1134 OFFCURVE",
"231 1100 OFFCURVE",
"252 1060 CURVE SMOOTH",
"568 460 LINE",
"608 430 LINE",
"825 18 LINE SMOOTH",
"846 -21 OFFCURVE",
"881 -23 OFFCURVE",
"968 14 CURVE SMOOTH",
"1062 54 OFFCURVE",
"1077 88 OFFCURVE",
"1056 128 CURVE SMOOTH",
"744 721 LINE",
"700 744 LINE",
"480 1170 LINE SMOOTH",
"460 1209 OFFCURVE",
"426 1211 OFFCURVE",
"339 1174 CURVE SMOOTH"
);
}
);
width = 1228;
}
);
unicode = 0058;
},
{
glyphname = Y;
lastChange = "2014-11-16 00:07:24 -0700";
layers = (
{
background = {
paths = (
{
closed = 1;
nodes = (
"1143 1213 OFFCURVE",
"1110 1205 OFFCURVE",
"1083 1172 CURVE SMOOTH",
"649 642 LINE",
"404 1165 LINE SMOOTH",
"389 1198 OFFCURVE",
"368 1209 OFFCURVE",
"314 1187 CURVE SMOOTH",
"259 1165 OFFCURVE",
"252 1141 OFFCURVE",
"271 1101 CURVE SMOOTH",
"556 499 LINE",
"478 55 LINE SMOOTH",
"470 9 OFFCURVE",
"485 -10 OFFCURVE",
"541 -10 CURVE SMOOTH",
"543 -10 LINE SMOOTH",
"596 -10 OFFCURVE",
"620 9 OFFCURVE",
"628 55 CURVE SMOOTH",
"704 486 LINE",
"1206 1090 LINE SMOOTH",
"1239 1130 OFFCURVE",
"1234 1159 OFFCURVE",
"1187 1187 CURVE SMOOTH"
);
}
);
};
layerId = UUID0;
name = "Regular Italic";
paths = (
{
closed = 1;
nodes = (
"1143 1213 OFFCURVE",
"1110 1205 OFFCURVE",
"1083 1172 CURVE SMOOTH",
"620 607 LINE",
"668 601 LINE",
"404 1165 LINE SMOOTH",
"389 1198 OFFCURVE",
"368 1209 OFFCURVE",
"314 1187 CURVE SMOOTH",
"259 1165 OFFCURVE",
"252 1141 OFFCURVE",
"271 1101 CURVE SMOOTH",
"576 457 LINE",
"680 457 LINE",
"1206 1090 LINE SMOOTH",
"1239 1130 OFFCURVE",
"1234 1159 OFFCURVE",
"1187 1187 CURVE SMOOTH"
);
},
{
closed = 1;
nodes = (
"559 515 LINE",
"478 55 LINE SMOOTH",
"470 9 OFFCURVE",
"485 -10 OFFCURVE",
"541 -10 CURVE SMOOTH",
"543 -10 LINE SMOOTH",
"596 -10 OFFCURVE",
"620 9 OFFCURVE",
"628 55 CURVE SMOOTH",
"709 515 LINE"
);
}
);
width = 1228;
},
{
background = {
paths = (
{
closed = 1;
nodes = (
"1091 1210 OFFCURVE",
"1050 1210 OFFCURVE",
"1017 1169 CURVE SMOOTH",
"655 708 LINE",
"457 1169 LINE SMOOTH",
"439 1210 OFFCURVE",
"405 1209 OFFCURVE",
"318 1174 CURVE SMOOTH",
"227 1137 OFFCURVE",
"211 1110 OFFCURVE",
"228 1069 CURVE SMOOTH",
"500 462 LINE",
"430 63 LINE SMOOTH",
"422 18 OFFCURVE",
"437 0 OFFCURVE",
"482 0 CURVE",
"606 0 LINE SMOOTH",
"651 0 OFFCURVE",
"672 18 OFFCURVE",
"680 63 CURVE SMOOTH",
"746 442 LINE",
"1232 1049 LINE SMOOTH",
"1270 1090 OFFCURVE",
"1262 1132 OFFCURVE",
"1172 1173 CURVE SMOOTH"
);
}
);
};
layerId = "0791FDB8-5A5D-41D7-9039-1C27D6F382A7";
name = "Bold Italic";
paths = (
{
closed = 1;
nodes = (
"1091 1210 OFFCURVE",
"1050 1210 OFFCURVE",
"1017 1169 CURVE SMOOTH",
"627 673 LINE",
"673 667 LINE",
"457 1169 LINE SMOOTH",
"439 1210 OFFCURVE",
"405 1209 OFFCURVE",
"318 1174 CURVE SMOOTH",
"227 1137 OFFCURVE",
"210 1110 OFFCURVE",
"228 1069 CURVE SMOOTH",
"524 409 LINE",
"719 409 LINE",
"1232 1049 LINE SMOOTH",
"1267 1093 OFFCURVE",
"1262 1132 OFFCURVE",
"1172 1173 CURVE SMOOTH"
);
},
{
closed = 1;
nodes = (
"518 566 LINE",
"430 63 LINE SMOOTH",
"422 18 OFFCURVE",
"437 0 OFFCURVE",
"482 0 CURVE SMOOTH",
"606 0 LINE SMOOTH",
"651 0 OFFCURVE",
"672 18 OFFCURVE",
"680 63 CURVE SMOOTH",
"768 566 LINE"
);
}
);
width = 1228;
}
);
unicode = 0059;
},
{
glyphname = Z;
lastChange = "2014-05-18 14:45:59 -0700";
layers = (
{
layerId = UUID0;
name = "Regular Italic";
paths = (
{
closed = 1;
nodes = (
"936 0 LINE SMOOTH",
"981 0 OFFCURVE",
"1002 20 OFFCURVE",
"1011 72 CURVE SMOOTH",
"1020 124 OFFCURVE",
"1006 144 OFFCURVE",
"961 144 CURVE SMOOTH",
"359 144 LINE",
"1141 1080 LINE SMOOTH",
"1149 1090 OFFCURVE",
"1155 1103 OFFCURVE",
"1158 1119 CURVE SMOOTH",
"1167 1169 OFFCURVE",
"1150 1187 OFFCURVE",
"1105 1187 CURVE SMOOTH",
"385 1187 LINE SMOOTH",
"340 1187 OFFCURVE",
"318 1167 OFFCURVE",
"309 1115 CURVE SMOOTH",
"300 1063 OFFCURVE",
"314 1043 OFFCURVE",
"359 1043 CURVE SMOOTH",
"917 1043 LINE",
"140 111 LINE SMOOTH",
"130 99 OFFCURVE",
"121 85 OFFCURVE",
"118 68 CURVE SMOOTH",
"109 18 OFFCURVE",
"125 0 OFFCURVE",
"170 0 CURVE SMOOTH"
);
}
);
width = 1228;
},
{
layerId = "0791FDB8-5A5D-41D7-9039-1C27D6F382A7";
name = "Bold Italic";
paths = (
{
closed = 1;
nodes = (
"967 0 LINE SMOOTH",
"1012 0 OFFCURVE",
"1033 22 OFFCURVE",
"1050 117 CURVE SMOOTH",
"1067 212 OFFCURVE",
"1053 235 OFFCURVE",
"1008 235 CURVE SMOOTH",
"484 235 LINE",
"1141 992 LINE SMOOTH",
"1159 1013 OFFCURVE",
"1173 1041 OFFCURVE",
"1181 1084 CURVE SMOOTH",
"1196 1169 OFFCURVE",
"1181 1187 OFFCURVE",
"1136 1187 CURVE SMOOTH",
"350 1187 LINE SMOOTH",
"305 1187 OFFCURVE",
"283 1164 OFFCURVE",
"266 1069 CURVE SMOOTH",
"249 974 OFFCURVE",
"263 952 OFFCURVE",
"308 952 CURVE SMOOTH",
"788 952 LINE",
"132 195 LINE SMOOTH",
"115 176 OFFCURVE",
"103 147 OFFCURVE",
"95 102 CURVE SMOOTH",
"80 17 OFFCURVE",
"96 0 OFFCURVE",
"141 0 CURVE SMOOTH"
);
}
);
width = 1228;
}
);
unicode = 005A;
},
{
glyphname = a;
lastChange = "2014-05-18 15:02:17 -0700";
layers = (
{
layerId = UUID0;
name = "Regular Italic";
paths = (
{
closed = 1;
nodes = (
"302 946 OFFCURVE",
"143 625 OFFCURVE",
"143 366 CURVE SMOOTH",
"143 127 OFFCURVE",
"290 -22 OFFCURVE",
"505 -22 CURVE SMOOTH",
"633 -22 OFFCURVE",
"749 34 OFFCURVE",
"850 143 CURVE",
"835 55 LINE SMOOTH",
"827 9 OFFCURVE",
"842 -10 OFFCURVE",
"895 -10 CURVE SMOOTH",
"897 -10 LINE SMOOTH",
"950 -10 OFFCURVE",
"967 9 OFFCURVE",
"975 55 CURVE SMOOTH",
"1119 869 LINE SMOOTH",
"1127 915 OFFCURVE",
"1112 934 OFFCURVE",
"1059 934 CURVE SMOOTH",
"1057 934 LINE SMOOTH",
"1004 934 OFFCURVE",
"987 915 OFFCURVE",
"979 869 CURVE SMOOTH",
"960 766 LINE",
"897 873 OFFCURVE",
"792 946 OFFCURVE",
"655 946 CURVE SMOOTH"
);
},
{
closed = 1;
nodes = (
"803 798 OFFCURVE",
"904 705 OFFCURVE",
"904 541 CURVE SMOOTH",
"904 335 OFFCURVE",
"768 126 OFFCURVE",
"531 126 CURVE SMOOTH",
"378 126 OFFCURVE",
"296 226 OFFCURVE",
"296 375 CURVE SMOOTH",
"296 581 OFFCURVE",
"424 798 OFFCURVE",
"649 798 CURVE SMOOTH"
);
}
);
width = 1228;
},
{
layerId = "0791FDB8-5A5D-41D7-9039-1C27D6F382A7";
name = "Bold Italic";
paths = (
{
closed = 1;
nodes = (
"291 946 OFFCURVE",
"129 632 OFFCURVE",
"129 380 CURVE SMOOTH",
"129 144 OFFCURVE",
"265 -22 OFFCURVE",
"484 -22 CURVE SMOOTH",
"615 -22 OFFCURVE",
"726 43 OFFCURVE",
"804 135 CURVE",
"792 63 LINE SMOOTH",
"785 18 OFFCURVE",
"799 0 OFFCURVE",
"844 0 CURVE SMOOTH",
"928 0 LINE SMOOTH",
"973 0 OFFCURVE",
"994 18 OFFCURVE",
"1002 63 CURVE SMOOTH",
"1142 861 LINE SMOOTH",
"1150 906 OFFCURVE",
"1135 924 OFFCURVE",
"1090 924 CURVE SMOOTH",
"1006 924 LINE SMOOTH",
"961 924 OFFCURVE",
"940 906 OFFCURVE",
"932 861 CURVE SMOOTH",
"917 772 LINE",
"867 877 OFFCURVE",
"762 946 OFFCURVE",
"634 946 CURVE SMOOTH"
);
},
{
closed = 1;
nodes = (
"753 714 OFFCURVE",
"835 647 OFFCURVE",
"835 522 CURVE SMOOTH",
"835 377 OFFCURVE",
"736 210 OFFCURVE",
"556 210 CURVE SMOOTH",
"451 210 OFFCURVE",
"389 279 OFFCURVE",
"389 391 CURVE SMOOTH",
"389 525 OFFCURVE",
"462 714 OFFCURVE",
"644 714 CURVE SMOOTH"
);
}
);
width = 1228;
}
);
unicode = 0061;
},
{
color = (0,3,255,1);
glyphname = aogonek;
lastChange = "2014-11-15 17:51:53 -0700";
layers = (
{
background = {
paths = (
{
closed = 1;
nodes = (
"378 126 OFFCURVE",
"296 226 OFFCURVE",
"296 375 CURVE SMOOTH",
"296 581 OFFCURVE",
"424 798 OFFCURVE",
"649 798 CURVE SMOOTH",
"803 798 OFFCURVE",
"904 705 OFFCURVE",
"904 541 CURVE SMOOTH",
"904 335 OFFCURVE",
"768 126 OFFCURVE",
"531 126 CURVE SMOOTH"
);
},
{
closed = 1;
nodes = (
"759 -336 OFFCURVE",
"734 -316 OFFCURVE",
"734 -277 CURVE SMOOTH",
"734 -205 OFFCURVE",
"801 -115 OFFCURVE",
"951 4 CURVE",
"933 38 LINE",
"846 48 LINE",
"677 -68 OFFCURVE",
"578 -182 OFFCURVE",
"578 -310 CURVE SMOOTH",
"578 -406 OFFCURVE",
"636 -472 OFFCURVE",
"743 -472 CURVE SMOOTH",
"807 -472 OFFCURVE",
"872 -460 OFFCURVE",
"921 -443 CURVE SMOOTH",
"952 -432 OFFCURVE",
"962 -411 OFFCURVE",
"957 -374 CURVE SMOOTH",
"952 -337 OFFCURVE",
"937 -322 OFFCURVE",
"910 -326 CURVE SMOOTH",
"874 -332 OFFCURVE",
"838 -336 OFFCURVE",
"799 -336 CURVE SMOOTH"
);
},
{
closed = 1;
nodes = (
"1127 915 OFFCURVE",
"1112 934 OFFCURVE",
"1059 934 CURVE SMOOTH",
"1057 934 LINE SMOOTH",
"1004 934 OFFCURVE",
"987 915 OFFCURVE",
"979 869 CURVE SMOOTH",
"960 766 LINE",
"897 873 OFFCURVE",
"792 946 OFFCURVE",
"655 946 CURVE SMOOTH",
"302 946 OFFCURVE",
"143 625 OFFCURVE",
"143 366 CURVE SMOOTH",
"143 127 OFFCURVE",
"290 -22 OFFCURVE",
"505 -22 CURVE SMOOTH",
"633 -22 OFFCURVE",
"749 34 OFFCURVE",
"850 143 CURVE",
"826 5 LINE",
"896 -10 LINE",
"949 -10 OFFCURVE",
"967 9 OFFCURVE",
"975 55 CURVE SMOOTH",
"1119 869 LINE SMOOTH"
);
}
);
};
layerId = UUID0;
name = "Regular Italic";
paths = (
{
closed = 1;
nodes = (
"302 946 OFFCURVE",
"143 625 OFFCURVE",
"143 366 CURVE SMOOTH",
"143 127 OFFCURVE",
"290 -22 OFFCURVE",
"505 -22 CURVE SMOOTH",
"633 -22 OFFCURVE",
"749 34 OFFCURVE",
"850 143 CURVE",
"831.759 38.1123 LINE",
"671.452 -74.4924 OFFCURVE",
"578 -185.639 OFFCURVE",
"578 -310 CURVE SMOOTH",
"578 -406 OFFCURVE",
"636 -472 OFFCURVE",
"743 -472 CURVE SMOOTH",
"807 -472 OFFCURVE",
"872 -460 OFFCURVE",
"921 -443 CURVE SMOOTH",
"952 -432 OFFCURVE",
"962 -411 OFFCURVE",
"957 -374 CURVE SMOOTH",
"952 -337 OFFCURVE",
"937 -322 OFFCURVE",
"910 -326 CURVE SMOOTH",
"874 -332 OFFCURVE",
"838 -336 OFFCURVE",
"799 -336 CURVE SMOOTH",
"759 -336 OFFCURVE",
"734 -316 OFFCURVE",
"734 -277 CURVE SMOOTH",
"734 -205 OFFCURVE",
"801 -115 OFFCURVE",
"951 4 CURVE SMOOTH",
"964 15 OFFCURVE",
"970.847 31.122 OFFCURVE",
"975 55 CURVE SMOOTH",
"1119 869 LINE SMOOTH",
"1127 915 OFFCURVE",
"1112 934 OFFCURVE",
"1059 934 CURVE SMOOTH",
"1057 934 LINE SMOOTH",
"1004 934 OFFCURVE",
"987 915 OFFCURVE",
"979 869 CURVE SMOOTH",
"960 766 LINE",
"897 873 OFFCURVE",
"792 946 OFFCURVE",
"655 946 CURVE SMOOTH"
);
},
{
closed = 1;
nodes = (
"803 798 OFFCURVE",
"904 705 OFFCURVE",
"904 541 CURVE SMOOTH",
"904 335 OFFCURVE",
"768 126 OFFCURVE",
"531 126 CURVE SMOOTH",
"378 126 OFFCURVE",
"296 226 OFFCURVE",
"296 375 CURVE SMOOTH",
"296 581 OFFCURVE",
"424 798 OFFCURVE",
"649 798 CURVE SMOOTH"
);
}
);
width = 1228;
},
{
layerId = "0791FDB8-5A5D-41D7-9039-1C27D6F382A7";
name = "Bold Italic";
paths = (
{
closed = 1;
nodes = (
"291 946 OFFCURVE",
"129 632 OFFCURVE",
"129 380 CURVE SMOOTH",
"129 144 OFFCURVE",
"265 -22 OFFCURVE",
"484 -22 CURVE SMOOTH",
"615 -22 OFFCURVE",
"726 43 OFFCURVE",
"804 135 CURVE",
"785.285 24.4919 LINE",
"630.445 -56.9351 OFFCURVE",
"508 -159.032 OFFCURVE",
"508 -300 CURVE SMOOTH",
"508 -408 OFFCURVE",
"591 -472 OFFCURVE",
"730 -472 CURVE SMOOTH",
"809 -472 OFFCURVE",
"901 -457 OFFCURVE",
"967 -436 CURVE SMOOTH",
"997 -427 OFFCURVE",
"1013 -400 OFFCURVE",
"1007 -350 CURVE SMOOTH",
"1001 -302 OFFCURVE",
"982 -280 OFFCURVE",
"955 -285 CURVE SMOOTH",
"915 -292 OFFCURVE",
"875 -298 OFFCURVE",
"836 -298 CURVE SMOOTH",
"787 -298 OFFCURVE",
"758 -280 OFFCURVE",
"758 -235 CURVE SMOOTH",
"758 -163 OFFCURVE",
"853 -77 OFFCURVE",
"976 11.9999 CURVE SMOOTH",
"990 22 OFFCURVE",
"998 39 OFFCURVE",
"1002 63 CURVE SMOOTH",
"1142 861 LINE SMOOTH",
"1150 906 OFFCURVE",
"1135 924 OFFCURVE",
"1090 924 CURVE SMOOTH",
"1006 924 LINE SMOOTH",
"961 924 OFFCURVE",
"940 906 OFFCURVE",
"932 861 CURVE SMOOTH",
"917 772 LINE",
"867 877 OFFCURVE",
"762 946 OFFCURVE",
"634 946 CURVE SMOOTH"
);
},
{
closed = 1;
nodes = (
"753 714 OFFCURVE",
"835 647 OFFCURVE",
"835 522 CURVE SMOOTH",
"835 377 OFFCURVE",
"736 210 OFFCURVE",
"556 210 CURVE SMOOTH",
"451 210 OFFCURVE",
"389 279 OFFCURVE",
"389 391 CURVE SMOOTH",
"389 525 OFFCURVE",
"462 714 OFFCURVE",
"644 714 CURVE SMOOTH"
);
}
);
width = 1228;
}
);
unicode = 0105;
},
{
glyphname = ae;
lastChange = "2014-11-15 18:04:01 -0700";
layers = (
{
background = {
paths = (
{
closed = 1;
nodes = (
"1001 801 OFFCURVE",
"1031 745 OFFCURVE",
"1031 649 CURVE SMOOTH",
"1031 628 OFFCURVE",
"1029 605 OFFCURVE",
"1026 580 CURVE",
"726 580 LINE",
"770 739 OFFCURVE",
"834 801 OFFCURVE",
"926 801 CURVE SMOOTH"
);
}
);
};
layerId = UUID0;
name = "Regular Italic";
paths = (
{
closed = 1;
nodes = (
"845 946 OFFCURVE",
"761 907 OFFCURVE",
"695 830 CURVE",
"665 903 OFFCURVE",
"601 946 OFFCURVE",
"494 946 CURVE SMOOTH",
"400 946 OFFCURVE",
"308 917 OFFCURVE",
"211 844 CURVE SMOOTH",
"176 818 OFFCURVE",
"171 784 OFFCURVE",
"196 748 CURVE SMOOTH",
"220 713 OFFCURVE",
"253 707 OFFCURVE",
"286 729 CURVE SMOOTH",
"355 776 OFFCURVE",
"418 801 OFFCURVE",
"479 801 CURVE SMOOTH",
"557 801 OFFCURVE",
"584 760 OFFCURVE",
"584 689 CURVE SMOOTH",
"584 664 OFFCURVE",
"581 635 OFFCURVE",
"575 602 CURVE SMOOTH",
"571 580 LINE",
"437 580 OFFCURVE",
"323 556 OFFCURVE",
"236 510 CURVE SMOOTH",
"114 445 OFFCURVE",
"44 325 OFFCURVE",
"44 195 CURVE SMOOTH",
"44 65 OFFCURVE",
"133 -22 OFFCURVE",
"271 -22 CURVE SMOOTH",
"379 -22 OFFCURVE",
"490 33 OFFCURVE",
"570 122 CURVE",
"608 24 OFFCURVE",
"684 -22 OFFCURVE",
"789 -22 CURVE SMOOTH",
"884 -22 OFFCURVE",
"970 14 OFFCURVE",
"1056 84 CURVE SMOOTH",
"1094 114 OFFCURVE",
"1105 149 OFFCURVE",
"1080 187 CURVE SMOOTH",
"1056 225 OFFCURVE",
"1017 226 OFFCURVE",
"988 201 CURVE SMOOTH",
"922 147 OFFCURVE",
"868 123 OFFCURVE",
"804 123 CURVE SMOOTH",
"734 123 OFFCURVE",
"684 170 OFFCURVE",
"684 308 CURVE SMOOTH",
"684 345 OFFCURVE",
"688 389 OFFCURVE",
"696 440 CURVE",
"1095 440 LINE",
"1140 440 OFFCURVE",
"1162 457 OFFCURVE",
"1169 502 CURVE SMOOTH",
"1177 554 OFFCURVE",
"1181 602 OFFCURVE",
"1181 647 CURVE SMOOTH",
"1181 831 OFFCURVE",
"1110 946 OFFCURVE",
"939 946 CURVE SMOOTH"
);
},
{
closed = 1;
nodes = (
"528 340 LINE SMOOTH",
"506 211 OFFCURVE",
"402 119 OFFCURVE",
"289 119 CURVE SMOOTH",
"232 119 OFFCURVE",
"197 151 OFFCURVE",
"197 209 CURVE SMOOTH",
"197 288 OFFCURVE",
"239 359 OFFCURVE",
"316 398 CURVE SMOOTH",
"373 427 OFFCURVE",
"451 440 OFFCURVE",
"546 440 CURVE"
);
},
{
closed = 1;
nodes = (
"1001 801 OFFCURVE",
"1031 745 OFFCURVE",
"1031 649 CURVE SMOOTH",
"1031 628 OFFCURVE",
"1029 605 OFFCURVE",
"1026 580 CURVE",
"726 580 LINE",
"770 739 OFFCURVE",
"834 801 OFFCURVE",
"926 801 CURVE SMOOTH"
);
}
);
width = 1228;
},
{
layerId = "0791FDB8-5A5D-41D7-9039-1C27D6F382A7";
name = "Bold Italic";
paths = (
{
closed = 1;
nodes = (
"841 946 OFFCURVE",
"758 910 OFFCURVE",
"694 852 CURVE",
"653 911 OFFCURVE",
"582 946 OFFCURVE",
"469 946 CURVE SMOOTH",
"372 946 OFFCURVE",
"263 916 OFFCURVE",
"162 862 CURVE SMOOTH",
"125 842 OFFCURVE",
"112 803 OFFCURVE",
"137 740 CURVE SMOOTH",
"167 663 OFFCURVE",
"197 649 OFFCURVE",
"236 667 CURVE SMOOTH",
"297 696 OFFCURVE",
"359 719 OFFCURVE",
"421 719 CURVE SMOOTH",
"506 719 OFFCURVE",
"545 684 OFFCURVE",
"545 620 CURVE SMOOTH",
"545 608 OFFCURVE",
"543 594 OFFCURVE",
"542 588 CURVE SMOOTH",
"541 582 LINE",
"507 586 OFFCURVE",
"473 588 OFFCURVE",
"442 588 CURVE SMOOTH",
"169 588 OFFCURVE",
"6 451 OFFCURVE",
"6 221 CURVE SMOOTH",
"6 72 OFFCURVE",
"112 -22 OFFCURVE",
"271 -22 CURVE SMOOTH",
"384 -22 OFFCURVE",
"492 18 OFFCURVE",
"570 102 CURVE",
"609 24 OFFCURVE",
"679 -22 OFFCURVE",
"789 -22 CURVE SMOOTH",
"896 -22 OFFCURVE",
"996 10 OFFCURVE",
"1093 49 CURVE SMOOTH",
"1143 69 OFFCURVE",
"1154 99 OFFCURVE",
"1132 179 CURVE SMOOTH",
"1110 259 OFFCURVE",
"1086 273 OFFCURVE",
"1040 255 CURVE SMOOTH",
"960 224 OFFCURVE",
"899 205 OFFCURVE",
"824 205 CURVE SMOOTH",
"756 205 OFFCURVE",
"717 249 OFFCURVE",
"717 332 CURVE SMOOTH",
"717 346 OFFCURVE",
"718 361 OFFCURVE",
"719 370 CURVE",
"1125 370 LINE SMOOTH",
"1170 370 OFFCURVE",
"1191 387 OFFCURVE",
"1199 432 CURVE SMOOTH",
"1210 497 OFFCURVE",
"1217 558 OFFCURVE",
"1217 614 CURVE SMOOTH",
"1217 813 OFFCURVE",
"1138 946 OFFCURVE",
"934 946 CURVE SMOOTH"
);
},
{
closed = 1;
nodes = (
"502 358 LINE SMOOTH",
"485 261 OFFCURVE",
"416 189 OFFCURVE",
"321 189 CURVE SMOOTH",
"265 189 OFFCURVE",
"238 216 OFFCURVE",
"238 260 CURVE SMOOTH",
"238 355 OFFCURVE",
"307 393 OFFCURVE",
"438 393 CURVE SMOOTH",
"459 393 OFFCURVE",
"482 392 OFFCURVE",
"507 390 CURVE"
);
},
{
closed = 1;
nodes = (
"972 719 OFFCURVE",
"1000 677 OFFCURVE",
"1000 605 CURVE SMOOTH",
"1000 592 OFFCURVE",
"999 579 OFFCURVE",
"997 565 CURVE",
"753 565 LINE",
"785 669 OFFCURVE",
"833 719 OFFCURVE",
"914 719 CURVE SMOOTH"
);
}
);
width = 1228;
}
);
unicode = 00E6;
},
{
glyphname = b;
lastChange = "2014-05-18 14:58:17 -0700";
layers = (
{
layerId = UUID0;
name = "Regular Italic";
paths = (
{
closed = 1;
nodes = (
"428 1322 LINE SMOOTH",
"375 1322 OFFCURVE",
"351 1303 OFFCURVE",
"343 1257 CURVE SMOOTH",
"131 55 LINE SMOOTH",
"123 9 OFFCURVE",
"138 -10 OFFCURVE",
"191 -10 CURVE SMOOTH",
"193 -10 LINE SMOOTH",
"246 -10 OFFCURVE",
"263 9 OFFCURVE",
"271 55 CURVE SMOOTH",
"290 158 LINE",
"354 44 OFFCURVE",
"458 -22 OFFCURVE",
"595 -22 CURVE SMOOTH",
"948 -22 OFFCURVE",
"1107 299 OFFCURVE",
"1107 558 CURVE SMOOTH",
"1107 797 OFFCURVE",
"960 946 OFFCURVE",
"745 946 CURVE SMOOTH",
"617 946 OFFCURVE",
"505 893 OFFCURVE",
"413 802 CURVE",
"493 1257 LINE SMOOTH",
"501 1303 OFFCURVE",
"486 1322 OFFCURVE",
"430 1322 CURVE SMOOTH"
);
},
{
closed = 1;
nodes = (
"872 798 OFFCURVE",
"954 698 OFFCURVE",
"954 549 CURVE SMOOTH",
"954 343 OFFCURVE",
"826 126 OFFCURVE",
"601 126 CURVE SMOOTH",
"447 126 OFFCURVE",
"346 219 OFFCURVE",
"346 383 CURVE SMOOTH",
"346 589 OFFCURVE",
"482 798 OFFCURVE",
"719 798 CURVE SMOOTH"
);
}
);
width = 1228;
},
{
layerId = "0791FDB8-5A5D-41D7-9039-1C27D6F382A7";
name = "Bold Italic";
paths = (
{
closed = 1;
nodes = (
"391 1312 LINE SMOOTH",
"346 1312 OFFCURVE",
"325 1294 OFFCURVE",
"317 1249 CURVE SMOOTH",
"108 63 LINE SMOOTH",
"100 18 OFFCURVE",
"115 0 OFFCURVE",
"160 0 CURVE SMOOTH",
"244 0 LINE SMOOTH",
"289 0 OFFCURVE",
"310 18 OFFCURVE",
"318 63 CURVE SMOOTH",
"333 152 LINE",
"383 47 OFFCURVE",
"488 -22 OFFCURVE",
"616 -22 CURVE SMOOTH",
"959 -22 OFFCURVE",
"1121 292 OFFCURVE",
"1121 544 CURVE SMOOTH",
"1121 780 OFFCURVE",
"985 946 OFFCURVE",
"766 946 CURVE SMOOTH",
"663 946 OFFCURVE",
"573 903 OFFCURVE",
"493 833 CURVE",
"567 1249 LINE SMOOTH",
"575 1294 OFFCURVE",
"560 1312 OFFCURVE",
"515 1312 CURVE SMOOTH"
);
},
{
closed = 1;
nodes = (
"799 714 OFFCURVE",
"861 645 OFFCURVE",
"861 533 CURVE SMOOTH",
"861 399 OFFCURVE",
"788 210 OFFCURVE",
"606 210 CURVE SMOOTH",
"497 210 OFFCURVE",
"415 277 OFFCURVE",
"415 402 CURVE SMOOTH",
"415 547 OFFCURVE",
"514 714 OFFCURVE",
"694 714 CURVE SMOOTH"
);
}
);
width = 1228;
}
);
unicode = 0062;
},
{
glyphname = c;
lastChange = "2014-05-18 14:56:56 -0700";
layers = (
{
layerId = UUID0;
name = "Regular Italic";
paths = (
{
closed = 1;
nodes = (
"379 946 OFFCURVE",
"154 673 OFFCURVE",
"154 380 CURVE SMOOTH",
"154 150 OFFCURVE",
"308 -22 OFFCURVE",
"565 -22 CURVE SMOOTH",
"711 -22 OFFCURVE",
"870 18 OFFCURVE",
"983 81 CURVE SMOOTH",
"1026 105 OFFCURVE",
"1034 139 OFFCURVE",
"1012 183 CURVE SMOOTH",
"988 231 OFFCURVE",
"954 236 OFFCURVE",
"920 216 CURVE SMOOTH",
"822 159 OFFCURVE",
"698 126 OFFCURVE",
"581 126 CURVE SMOOTH",
"411 126 OFFCURVE",
"309 234 OFFCURVE",
"309 391 CURVE SMOOTH",
"309 607 OFFCURVE",
"480 798 OFFCURVE",
"709 798 CURVE SMOOTH",
"813 798 OFFCURVE",
"921 765 OFFCURVE",
"1008 702 CURVE SMOOTH",
"1038 680 OFFCURVE",
"1075 683 OFFCURVE",
"1101 729 CURVE SMOOTH",
"1126 773 OFFCURVE",
"1115 807 OFFCURVE",
"1076 835 CURVE SMOOTH",
"975 907 OFFCURVE",
"845 946 OFFCURVE",
"720 946 CURVE SMOOTH"
);
}
);
width = 1228;
},
{
layerId = "0791FDB8-5A5D-41D7-9039-1C27D6F382A7";
name = "Bold Italic";
paths = (
{
closed = 1;
nodes = (
"390 946 OFFCURVE",
"145 724 OFFCURVE",
"145 400 CURVE SMOOTH",
"145 152 OFFCURVE",
"308 -22 OFFCURVE",
"594 -22 CURVE SMOOTH",
"733 -22 OFFCURVE",
"864 5 OFFCURVE",
"998 62 CURVE",
"1045 83 OFFCURVE",
"1059 124 OFFCURVE",
"1034 205 CURVE SMOOTH",
"1010 281 OFFCURVE",
"976 306 OFFCURVE",
"932 285 CURVE SMOOTH",
"831 238 OFFCURVE",
"720 210 OFFCURVE",
"621 210 CURVE SMOOTH",
"486 210 OFFCURVE",
"410 290 OFFCURVE",
"410 423 CURVE SMOOTH",
"410 603 OFFCURVE",
"542 714 OFFCURVE",
"709 714 CURVE SMOOTH",
"805 714 OFFCURVE",
"898 690 OFFCURVE",
"985 641 CURVE SMOOTH",
"1021 620 OFFCURVE",
"1062 629 OFFCURVE",
"1102 708 CURVE SMOOTH",
"1143 789 OFFCURVE",
"1129 836 OFFCURVE",
"1091 857 CURVE SMOOTH",
"986 916 OFFCURVE",
"852 946 OFFCURVE",
"720 946 CURVE SMOOTH"
);
}
);
width = 1228;
}
);
unicode = 0063;
},
{
glyphname = d;
lastChange = "2014-11-14 05:06:57 -0700";
layers = (
{
background = {
paths = (
{
closed = 1;
nodes = (
"1122 1322 LINE SMOOTH",
"1069 1322 OFFCURVE",
"1045 1303 OFFCURVE",
"1037 1257 CURVE SMOOTH",
"943 724 LINE",
"958 768 LINE",
"896 880 OFFCURVE",
"792 946 OFFCURVE",
"655 946 CURVE SMOOTH",
"302 946 OFFCURVE",
"143 625 OFFCURVE",
"143 366 CURVE SMOOTH",
"143 127 OFFCURVE",
"290 -22 OFFCURVE",
"505 -22 CURVE SMOOTH",
"633 -22 OFFCURVE",
"749 31 OFFCURVE",
"849 134 CURVE",
"835 55 LINE SMOOTH",
"827 9 OFFCURVE",
"842 -10 OFFCURVE",
"895 -10 CURVE SMOOTH",
"897 -10 LINE SMOOTH",
"950 -10 OFFCURVE",
"967 9 OFFCURVE",
"975 55 CURVE SMOOTH",
"1187 1257 LINE SMOOTH",
"1195 1303 OFFCURVE",
"1180 1322 OFFCURVE",
"1124 1322 CURVE SMOOTH"
);
},
{
closed = 1;
nodes = (
"803 798 OFFCURVE",
"904 705 OFFCURVE",
"904 541 CURVE SMOOTH",
"904 335 OFFCURVE",
"768 126 OFFCURVE",
"531 126 CURVE SMOOTH",
"378 126 OFFCURVE",
"296 226 OFFCURVE",
"296 375 CURVE SMOOTH",
"296 581 OFFCURVE",
"424 798 OFFCURVE",
"649 798 CURVE SMOOTH"
);
}
);
};
layerId = UUID0;
name = "Regular Italic";
paths = (
{
closed = 1;
nodes = (
"1122 1322 LINE SMOOTH",
"1069 1322 OFFCURVE",
"1045 1303 OFFCURVE",
"1037 1257 CURVE SMOOTH",
"945 733 LINE",
"967 750 LINE",
"907 873 OFFCURVE",
"799 946 OFFCURVE",
"655 946 CURVE SMOOTH",
"302 946 OFFCURVE",
"143 625 OFFCURVE",
"143 366 CURVE SMOOTH",
"143 127 OFFCURVE",
"290 -22 OFFCURVE",
"505 -22 CURVE SMOOTH",
"633 -22 OFFCURVE",
"749 31 OFFCURVE",
"849 134 CURVE",
"835 55 LINE SMOOTH",
"827 9 OFFCURVE",
"842 -10 OFFCURVE",
"895 -10 CURVE SMOOTH",
"897 -10 LINE SMOOTH",
"950 -10 OFFCURVE",
"967 9 OFFCURVE",
"975 55 CURVE SMOOTH",
"1187 1257 LINE SMOOTH",
"1195 1303 OFFCURVE",
"1180 1322 OFFCURVE",
"1124 1322 CURVE SMOOTH"
);
},
{
closed = 1;
nodes = (
"803 798 OFFCURVE",
"904 705 OFFCURVE",
"904 541 CURVE SMOOTH",
"904 335 OFFCURVE",
"768 126 OFFCURVE",
"531 126 CURVE SMOOTH",
"378 126 OFFCURVE",
"296 226 OFFCURVE",
"296 375 CURVE SMOOTH",
"296 581 OFFCURVE",
"424 798 OFFCURVE",
"649 798 CURVE SMOOTH"
);
}
);
width = 1228;
},
{
layerId = "0791FDB8-5A5D-41D7-9039-1C27D6F382A7";
name = "Bold Italic";
paths = (
{
closed = 1;
nodes = (
"1035 1312 LINE SMOOTH",
"990 1312 OFFCURVE",
"969 1294 OFFCURVE",
"961 1249 CURVE SMOOTH",
"878 779 LINE",
"902 799 LINE",
"848 889 OFFCURVE",
"751 946 OFFCURVE",
"634 946 CURVE SMOOTH",
"291 946 OFFCURVE",
"129 632 OFFCURVE",
"129 380 CURVE SMOOTH",
"129 144 OFFCURVE",
"265 -22 OFFCURVE",
"484 -22 CURVE SMOOTH",
"615 -22 OFFCURVE",
"726 43 OFFCURVE",
"804 135 CURVE",
"792 63 LINE SMOOTH",
"785 18 OFFCURVE",
"799 0 OFFCURVE",
"844 0 CURVE SMOOTH",
"928 0 LINE SMOOTH",
"973 0 OFFCURVE",
"994 18 OFFCURVE",
"1002 63 CURVE SMOOTH",
"1211 1249 LINE SMOOTH",
"1219 1294 OFFCURVE",
"1204 1312 OFFCURVE",
"1159 1312 CURVE SMOOTH"
);
},
{
closed = 1;
nodes = (
"753 714 OFFCURVE",
"835 647 OFFCURVE",
"835 522 CURVE SMOOTH",
"835 377 OFFCURVE",
"736 210 OFFCURVE",
"556 210 CURVE SMOOTH",
"451 210 OFFCURVE",
"389 279 OFFCURVE",
"389 391 CURVE SMOOTH",
"389 525 OFFCURVE",
"462 714 OFFCURVE",
"644 714 CURVE SMOOTH"
);
}
);
width = 1228;
}
);
unicode = 0064;
},
{
color = (255,5,0,1);
glyphname = eth;
lastChange = "2014-11-15 17:59:38 -0700";
layers = (
{
layerId = UUID0;
name = "Regular Italic";
paths = (
{
closed = 1;
nodes = (
"350 886 OFFCURVE",
"142 639 OFFCURVE",
"142 363 CURVE SMOOTH",
"142 137 OFFCURVE",
"308 -22 OFFCURVE",
"550 -22 CURVE SMOOTH",
"822 -22 OFFCURVE",
"1042 140 OFFCURVE",
"1090 412 CURVE",
"966 771 LINE",
"897 839 OFFCURVE",
"802 886 OFFCURVE",
"690 886 CURVE SMOOTH"
);
},
{
closed = 1;
nodes = (
"841 738 OFFCURVE",
"942 645 OFFCURVE",
"942 496 CURVE SMOOTH",
"942 307 OFFCURVE",
"799 126 OFFCURVE",
"566 126 CURVE SMOOTH",
"399 126 OFFCURVE",
"298 219 OFFCURVE",
"298 367 CURVE SMOOTH",
"298 570 OFFCURVE",
"451 738 OFFCURVE",
"674 738 CURVE SMOOTH"
);
},
{
closed = 1;
nodes = (
"569 1343 OFFCURVE",
"540 1335 OFFCURVE",
"513 1288 CURVE SMOOTH",
"487 1243 OFFCURVE",
"496 1215 OFFCURVE",
"533 1195 CURVE SMOOTH",
"826 1038 OFFCURVE",
"1024 812 OFFCURVE",
"959 442 CURVE",
"1090 412 LINE",
"1101 473 OFFCURVE",
"1106 532 OFFCURVE",
"1106 587 CURVE SMOOTH",
"1106 939 OFFCURVE",
"896 1171 OFFCURVE",
"606 1323 CURVE SMOOTH"
);
},
{
closed = 1;
nodes = (
"465 1074 LINE SMOOTH",
"420 1058 OFFCURVE",
"410 1033 OFFCURVE",
"425 988 CURVE SMOOTH",
"439 946 OFFCURVE",
"465 930 OFFCURVE",
"510 946 CURVE SMOOTH",
"1102 1154 LINE SMOOTH",
"1147 1170 OFFCURVE",
"1156 1197 OFFCURVE",
"1142 1240 CURVE SMOOTH",
"1127 1286 OFFCURVE",
"1101 1298 OFFCURVE",
"1057 1282 CURVE SMOOTH"
);
}
);
width = 1228;
},
{
layerId = "0791FDB8-5A5D-41D7-9039-1C27D6F382A7";
name = "Bold Italic";
paths = (
{
closed = 1;
nodes = (
"273 866 OFFCURVE",
"122 572 OFFCURVE",
"122 359 CURVE SMOOTH",
"122 140 OFFCURVE",
"284 -22 OFFCURVE",
"550 -22 CURVE SMOOTH",
"849 -22 OFFCURVE",
"1060 142 OFFCURVE",
"1113 442 CURVE",
"904 767 LINE",
"844 832 OFFCURVE",
"758 866 OFFCURVE",
"656 866 CURVE SMOOTH"
);
},
{
closed = 1;
nodes = (
"774 639 OFFCURVE",
"846 577 OFFCURVE",
"846 470 CURVE SMOOTH",
"846 339 OFFCURVE",
"758 205 OFFCURVE",
"580 205 CURVE SMOOTH",
"461 205 OFFCURVE",
"390 268 OFFCURVE",
"390 375 CURVE SMOOTH",
"390 495 OFFCURVE",
"470 639 OFFCURVE",
"656 639 CURVE SMOOTH"
);
},
{
closed = 1;
nodes = (
"637 1361 OFFCURVE",
"604 1350 OFFCURVE",
"540 1277 CURVE SMOOTH",
"481 1209 OFFCURVE",
"476 1170 OFFCURVE",
"514 1149 CURVE SMOOTH",
"720 1034 OFFCURVE",
"939 834 OFFCURVE",
"900 480 CURVE",
"1113 442 LINE",
"1123 500 OFFCURVE",
"1129 557 OFFCURVE",
"1129 613 CURVE SMOOTH",
"1129 914 OFFCURVE",
"979 1173 OFFCURVE",
"676 1340 CURVE SMOOTH"
);
},
{
closed = 1;
nodes = (
"498 1067 LINE SMOOTH",
"454 1046 OFFCURVE",
"443 1024 OFFCURVE",
"472 960 CURVE SMOOTH",
"501 896 OFFCURVE",
"523 887 OFFCURVE",
"567 908 CURVE SMOOTH",
"1071 1153 LINE SMOOTH",
"1114 1174 OFFCURVE",
"1120 1197 OFFCURVE",
"1091 1259 CURVE SMOOTH",
"1061 1322 OFFCURVE",
"1046 1333 OFFCURVE",
"1002 1312 CURVE SMOOTH"
);
}
);
width = 1228;
}
);
unicode = 00F0;
},
{
color = (0,243,255,1);
glyphname = dcaron;
lastChange = "2014-11-15 17:58:13 -0700";
layers = (
{
background = {
paths = (
{
closed = 1;
nodes = (
"736 117 LINE",
"725 55 LINE SMOOTH",
"717 9 OFFCURVE",
"733 -10 OFFCURVE",
"786 -10 CURVE SMOOTH",
"839 -10 OFFCURVE",
"857 9 OFFCURVE",
"865 55 CURVE SMOOTH",
"1077 1257 LINE SMOOTH",
"1085 1303 OFFCURVE",
"1068 1322 OFFCURVE",
"1012 1322 CURVE SMOOTH",
"956 1322 OFFCURVE",
"935 1303 OFFCURVE",
"927 1257 CURVE SMOOTH",
"839 757 LINE"
);
},
{
closed = 1;
nodes = (
"280 946 OFFCURVE",
"133 625 OFFCURVE",
"133 366 CURVE SMOOTH",
"133 127 OFFCURVE",
"264 -22 OFFCURVE",
"455 -22 CURVE SMOOTH",
"559 -22 OFFCURVE",
"659 27 OFFCURVE",
"742 120 CURVE",
"865 439 LINE",
"850 788 LINE",
"805 882 OFFCURVE",
"714 946 OFFCURVE",
"605 946 CURVE SMOOTH"
);
},
{
closed = 1;
nodes = (
"717 798 OFFCURVE",
"794 705 OFFCURVE",
"794 541 CURVE SMOOTH",
"794 335 OFFCURVE",
"682 126 OFFCURVE",
"481 126 CURVE SMOOTH",
"354 126 OFFCURVE",
"286 226 OFFCURVE",
"286 375 CURVE SMOOTH",
"286 581 OFFCURVE",
"398 798 OFFCURVE",
"599 798 CURVE SMOOTH"
);
},
{
closed = 1;
nodes = (
"1012 1322 LINE SMOOTH",
"959 1322 OFFCURVE",
"935 1303 OFFCURVE",
"927 1257 CURVE SMOOTH",
"839 757 LINE",
"736 117 LINE",
"725 55 LINE SMOOTH",
"717 9 OFFCURVE",
"732 -10 OFFCURVE",
"785 -10 CURVE SMOOTH",
"787 -10 LINE SMOOTH",
"840 -10 OFFCURVE",
"857 9 OFFCURVE",
"865 55 CURVE SMOOTH",
"1077 1257 LINE SMOOTH",
"1085 1303 OFFCURVE",
"1070 1322 OFFCURVE",
"1014 1322 CURVE SMOOTH"
);
}
);
};
components = (
{
name = quoteright;
transform = "{0.810, 0, 0, 0.811, 749, 332}";
}
);
layerId = UUID0;
name = "Regular Italic";
paths = (
{
closed = 1;
nodes = (
"1012 1322 LINE SMOOTH",
"959 1322 OFFCURVE",
"935 1303 OFFCURVE",
"927 1257 CURVE SMOOTH",
"838 752 LINE",
"859 768 LINE",
"817 873 OFFCURVE",
"721 946 OFFCURVE",
"605 946 CURVE SMOOTH",
"280 946 OFFCURVE",
"133 625 OFFCURVE",
"133 366 CURVE SMOOTH",
"133 127 OFFCURVE",
"264 -22 OFFCURVE",
"455 -22 CURVE SMOOTH",
"556.178 -22 OFFCURVE",
"653.57 24.3771 OFFCURVE",
"735.206 112.527 CURVE",
"725 55 LINE SMOOTH",
"717 9 OFFCURVE",
"732 -9.9999 OFFCURVE",
"785 -9.9999 CURVE SMOOTH",
"787 -9.9999 LINE SMOOTH",
"840 -9.9999 OFFCURVE",
"857 9 OFFCURVE",
"865 55 CURVE SMOOTH",
"1077 1257 LINE SMOOTH",
"1085 1303 OFFCURVE",
"1070 1322 OFFCURVE",
"1014 1322 CURVE SMOOTH"
);
},
{
closed = 1;
nodes = (
"717 798 OFFCURVE",
"794 705 OFFCURVE",
"794 541 CURVE SMOOTH",
"794 335 OFFCURVE",
"682 126 OFFCURVE",
"481 126 CURVE SMOOTH",
"354 126 OFFCURVE",
"286 226 OFFCURVE",
"286 375 CURVE SMOOTH",
"286 581 OFFCURVE",
"398 798 OFFCURVE",
"599 798 CURVE SMOOTH"
);
}
);
width = 1228;
},
{
background = {
paths = (
{
closed = 1;
nodes = (
"895 1312 LINE SMOOTH",
"850 1312 OFFCURVE",
"829 1294 OFFCURVE",
"821 1249 CURVE SMOOTH",
"740 794 LINE",
"765 807 LINE",
"716 908 OFFCURVE",
"638 946 OFFCURVE",
"539 946 CURVE SMOOTH",
"267 946 OFFCURVE",
"77 680 OFFCURVE",
"77 357 CURVE SMOOTH",
"77 138 OFFCURVE",
"176 -22 OFFCURVE",
"389 -22 CURVE SMOOTH",
"499 -22 OFFCURVE",
"590 33 OFFCURVE",
"663 127 CURVE",
"652 63 LINE SMOOTH",
"644 18 OFFCURVE",
"659 0 OFFCURVE",
"704 0 CURVE SMOOTH",
"788 0 LINE SMOOTH",
"833 0 OFFCURVE",
"854 18 OFFCURVE",
"862 63 CURVE SMOOTH",
"1071 1249 LINE SMOOTH",
"1079 1294 OFFCURVE",
"1064 1312 OFFCURVE",
"1019 1312 CURVE SMOOTH"
);
},
{
closed = 1;
nodes = (
"633 714 OFFCURVE",
"696 651 OFFCURVE",
"696 533 CURVE SMOOTH",
"696 450 OFFCURVE",
"669 367 OFFCURVE",
"633 313 CURVE SMOOTH",
"587 245 OFFCURVE",
"527 210 OFFCURVE",
"460 210 CURVE SMOOTH",
"381 210 OFFCURVE",
"338 273 OFFCURVE",
"338 378 CURVE SMOOTH",
"338 474 OFFCURVE",
"368 575 OFFCURVE",
"412 635 CURVE SMOOTH",
"450 687 OFFCURVE",
"498 714 OFFCURVE",
"548 714 CURVE SMOOTH"
);
}
);
};
components = (
{
name = quoteright;
transform = "{0.827, 0, 0, 0.828, 743, 311}";
}
);
layerId = "0791FDB8-5A5D-41D7-9039-1C27D6F382A7";
name = "Bold Italic";
paths = (
{
closed = 1;
nodes = (
"895 1312 LINE SMOOTH",
"850 1312 OFFCURVE",
"829 1294 OFFCURVE",
"821 1249 CURVE SMOOTH",
"740 794 LINE",
"765 807 LINE",
"716 908 OFFCURVE",
"638 946 OFFCURVE",
"539 946 CURVE SMOOTH",
"267 946 OFFCURVE",
"77 680 OFFCURVE",
"77 357 CURVE SMOOTH",
"77 138 OFFCURVE",
"176 -22 OFFCURVE",
"389 -22 CURVE SMOOTH",
"499 -22 OFFCURVE",
"590 33 OFFCURVE",
"663 127 CURVE",
"652 63 LINE SMOOTH",
"644 18 OFFCURVE",
"659 0 OFFCURVE",
"704 0 CURVE SMOOTH",
"788 0 LINE SMOOTH",
"833 0 OFFCURVE",
"854 18 OFFCURVE",
"862 63 CURVE SMOOTH",
"1071 1249 LINE SMOOTH",
"1079 1294 OFFCURVE",
"1064 1312 OFFCURVE",
"1019 1312 CURVE SMOOTH"
);
},
{
closed = 1;
nodes = (
"633 714 OFFCURVE",
"696 651 OFFCURVE",
"696 533 CURVE SMOOTH",
"696 377 OFFCURVE",
"606 210 OFFCURVE",
"460 210 CURVE SMOOTH",
"381 210 OFFCURVE",
"338 273 OFFCURVE",
"338 378 CURVE SMOOTH",
"338 539 OFFCURVE",
"416 714 OFFCURVE",
"548 714 CURVE SMOOTH"
);
}
);
width = 1228;
}
);
unicode = 010F;
},
{
color = (0,243,255,1);
glyphname = dcroat;
lastChange = "2014-11-15 17:52:53 -0700";
layers = (
{
layerId = UUID0;
name = "Regular Italic";
paths = (
{
closed = 1;
nodes = (
"1122 1322 LINE SMOOTH",
"1069 1322 OFFCURVE",
"1045 1303 OFFCURVE",
"1037 1257 CURVE SMOOTH",
"945 733 LINE",
"967 750 LINE",
"907 873 OFFCURVE",
"799 946 OFFCURVE",
"655 946 CURVE SMOOTH",
"302 946 OFFCURVE",
"143 625 OFFCURVE",
"143 366 CURVE SMOOTH",
"143 127 OFFCURVE",
"290 -22 OFFCURVE",
"505 -22 CURVE SMOOTH",
"633 -22 OFFCURVE",
"749 31 OFFCURVE",
"849 134 CURVE",
"835 55 LINE SMOOTH",
"827 9 OFFCURVE",
"842 -10 OFFCURVE",
"895 -10 CURVE SMOOTH",
"897 -10 LINE SMOOTH",
"950 -10 OFFCURVE",
"967 9 OFFCURVE",
"975 55 CURVE SMOOTH",
"1187 1257 LINE SMOOTH",
"1195 1303 OFFCURVE",
"1180 1322 OFFCURVE",
"1124 1322 CURVE SMOOTH"
);
},
{
closed = 1;
nodes = (
"803 798 OFFCURVE",
"904 705 OFFCURVE",
"904 541 CURVE SMOOTH",
"904 335 OFFCURVE",
"768 126 OFFCURVE",
"531 126 CURVE SMOOTH",
"378 126 OFFCURVE",
"296 226 OFFCURVE",
"296 375 CURVE SMOOTH",
"296 581 OFFCURVE",
"424 798 OFFCURVE",
"649 798 CURVE SMOOTH"
);
},
{
closed = 1;
nodes = (
"709 1170 LINE SMOOTH",
"664 1170 OFFCURVE",
"642 1150 OFFCURVE",
"633 1098 CURVE SMOOTH",
"624 1046 OFFCURVE",
"638 1026 OFFCURVE",
"683 1026 CURVE SMOOTH",
"1245 1026 LINE SMOOTH",
"1290 1026 OFFCURVE",
"1312 1046 OFFCURVE",
"1321 1098 CURVE SMOOTH",
"1330 1150 OFFCURVE",
"1316 1170 OFFCURVE",
"1271 1170 CURVE SMOOTH"
);
}
);
width = 1228;
},
{
layerId = "0791FDB8-5A5D-41D7-9039-1C27D6F382A7";
name = "Bold Italic";
paths = (
{
closed = 1;
nodes = (
"1035 1312 LINE SMOOTH",
"990 1312 OFFCURVE",
"969 1294 OFFCURVE",
"961 1249 CURVE SMOOTH",
"870 729 LINE",
"897 744 LINE",
"828 860 OFFCURVE",
"723 906 OFFCURVE",
"607 906 CURVE SMOOTH",
"315 906 OFFCURVE",
"127 669 OFFCURVE",
"127 380 CURVE SMOOTH",
"127 151 OFFCURVE",
"247 -22 OFFCURVE",
"494 -22 CURVE SMOOTH",
"622 -22 OFFCURVE",
"725 39 OFFCURVE",
"802 121 CURVE",
"792 63 LINE SMOOTH",
"784 18 OFFCURVE",
"799 0 OFFCURVE",
"844 0 CURVE SMOOTH",
"928 0 LINE SMOOTH",
"973 0 OFFCURVE",
"994 18 OFFCURVE",
"1002 63 CURVE SMOOTH",
"1211 1249 LINE SMOOTH",
"1219 1294 OFFCURVE",
"1204 1312 OFFCURVE",
"1159 1312 CURVE SMOOTH"
);
},
{
closed = 1;
nodes = (
"741 674 OFFCURVE",
"827 606 OFFCURVE",
"827 477 CURVE SMOOTH",
"827 317 OFFCURVE",
"714 210 OFFCURVE",
"565 210 CURVE SMOOTH",
"452 210 OFFCURVE",
"390 283 OFFCURVE",
"390 402 CURVE SMOOTH",
"390 567 OFFCURVE",
"490 674 OFFCURVE",
"626 674 CURVE SMOOTH"
);
},
{
closed = 1;
nodes = (
"722 1187 LINE SMOOTH",
"677 1187 OFFCURVE",
"656 1169 OFFCURVE",
"641 1084 CURVE SMOOTH",
"626 999 OFFCURVE",
"641 982 OFFCURVE",
"686 982 CURVE SMOOTH",
"1248 982 LINE SMOOTH",
"1293 982 OFFCURVE",
"1314 999 OFFCURVE",
"1329 1084 CURVE SMOOTH",
"1344 1169 OFFCURVE",
"1329 1187 OFFCURVE",
"1284 1187 CURVE SMOOTH"
);
}
);
width = 1228;
}
);
unicode = 0111;
},
{
color = 9;
glyphname = e;
lastChange = "2014-11-12 22:59:12 -0700";
layers = (
{
layerId = UUID0;
name = "Regular Italic";
paths = (
{
closed = 1;
nodes = (
"379 946 OFFCURVE",
"150 684 OFFCURVE",
"150 354 CURVE SMOOTH",
"150 122 OFFCURVE",
"287 -22 OFFCURVE",
"539 -22 CURVE SMOOTH",
"694 -22 OFFCURVE",
"856 16 OFFCURVE",
"969 66 CURVE SMOOTH",
"1011 85 OFFCURVE",
"1026 114 OFFCURVE",
"1010 166 CURVE SMOOTH",
"994 217 OFFCURVE",
"962 232 OFFCURVE",
"929 215 CURVE SMOOTH",
"828 164 OFFCURVE",
"688 123 OFFCURVE",
"554 123 CURVE SMOOTH",
"398 123 OFFCURVE",
"302 194 OFFCURVE",
"302 361 CURVE SMOOTH",
"302 602 OFFCURVE",
"449 801 OFFCURVE",
"704 801 CURVE SMOOTH",
"849 801 OFFCURVE",
"923 734 OFFCURVE",
"923 650 CURVE SMOOTH",
"923 592 OFFCURVE",
"899 558 OFFCURVE",
"822 550 CURVE SMOOTH",
"281 488 LINE",
"248 348 LINE",
"853 411 LINE SMOOTH",
"1015 428 OFFCURVE",
"1077 520 OFFCURVE",
"1077 655 CURVE SMOOTH",
"1077 821 OFFCURVE",
"941 946 OFFCURVE",
"719 946 CURVE SMOOTH"
);
}
);
width = 1228;
},
{
background = {
paths = (
{
closed = 1;
nodes = (
"321 946 OFFCURVE",
"126 670 OFFCURVE",
"126 379 CURVE SMOOTH",
"126 149 OFFCURVE",
"269 -22 OFFCURVE",
"530 -22 CURVE SMOOTH",
"673 -22 OFFCURVE",
"829 5 OFFCURVE",
"970 49 CURVE SMOOTH",
"1021 65 OFFCURVE",
"1035 94 OFFCURVE",
"1019 176 CURVE SMOOTH",
"1003 257 OFFCURVE",
"981 273 OFFCURVE",
"935 260 CURVE SMOOTH",
"796 220 OFFCURVE",
"678 205 OFFCURVE",
"570 205 CURVE SMOOTH",
"425 205 OFFCURVE",
"353 293 OFFCURVE",
"382 459 CURVE SMOOTH",
"413 635 OFFCURVE",
"525 719 OFFCURVE",
"674 719 CURVE SMOOTH",
"782 719 OFFCURVE",
"828 670 OFFCURVE",
"828 624 CURVE SMOOTH",
"828 590 OFFCURVE",
"810 557 OFFCURVE",
"750 551 CURVE SMOOTH",
"308 507 LINE",
"275 318 LINE",
"838 374 LINE SMOOTH",
"938 384 OFFCURVE",
"1003 418 OFFCURVE",
"1042 475 CURVE SMOOTH",
"1075 524 OFFCURVE",
"1086 583 OFFCURVE",
"1086 634 CURVE SMOOTH",
"1086 817 OFFCURVE",
"935 946 OFFCURVE",
"700 946 CURVE SMOOTH"
);
}
);
};
layerId = "0791FDB8-5A5D-41D7-9039-1C27D6F382A7";
name = "Bold Italic";
paths = (
{
closed = 1;
nodes = (
"321 946 OFFCURVE",
"126 670 OFFCURVE",
"126 379 CURVE SMOOTH",
"126 149 OFFCURVE",
"269 -22 OFFCURVE",
"530 -22 CURVE SMOOTH",
"673 -22 OFFCURVE",
"829 5 OFFCURVE",
"970 49 CURVE SMOOTH",
"1021 65 OFFCURVE",
"1035 94 OFFCURVE",
"1019 176 CURVE SMOOTH",
"1003 257 OFFCURVE",
"981 273 OFFCURVE",
"935 260 CURVE SMOOTH",
"796 220 OFFCURVE",
"678 205 OFFCURVE",
"570 205 CURVE SMOOTH",
"425 205 OFFCURVE",
"353 293 OFFCURVE",
"382 459 CURVE SMOOTH",
"413 635 OFFCURVE",
"525 719 OFFCURVE",
"674 719 CURVE SMOOTH",
"782 719 OFFCURVE",
"828 674 OFFCURVE",
"828 624 CURVE SMOOTH",
"828 590 OFFCURVE",
"810 557 OFFCURVE",
"750 551 CURVE SMOOTH",
"308 507 LINE",
"275 318 LINE",
"838 374 LINE SMOOTH",
"1017 392 OFFCURVE",
"1086 495 OFFCURVE",
"1086 634 CURVE SMOOTH",
"1086 817 OFFCURVE",
"935 946 OFFCURVE",
"700 946 CURVE SMOOTH"
);
}
);
width = 1228;
}
);
unicode = 0065;
},
{
color = (0,3,255,1);
glyphname = eogonek;
lastChange = "2014-11-15 17:49:15 -0700";
layers = (
{
background = {
paths = (
{
closed = 1;
nodes = (
"689 -336 OFFCURVE",
"664 -316 OFFCURVE",
"664 -277 CURVE SMOOTH",
"664 -195 OFFCURVE",
"753 -84 OFFCURVE",
"992 86 CURVE",
"943 148 LINE",
"746 28 LINE",
"595 -82 OFFCURVE",
"508 -190 OFFCURVE",
"508 -310 CURVE SMOOTH",
"508 -406 OFFCURVE",
"566 -472 OFFCURVE",
"673 -472 CURVE SMOOTH",
"737 -472 OFFCURVE",
"802 -460 OFFCURVE",
"851 -443 CURVE SMOOTH",
"882 -432 OFFCURVE",
"892 -411 OFFCURVE",
"887 -374 CURVE SMOOTH",
"882 -337 OFFCURVE",
"867 -322 OFFCURVE",
"840 -326 CURVE SMOOTH",
"804 -332 OFFCURVE",
"768 -336 OFFCURVE",
"729 -336 CURVE SMOOTH"
);
},
{
closed = 1;
nodes = (
"1017 104 OFFCURVE",
"1022 129 OFFCURVE",
"1010 166 CURVE SMOOTH",
"994 217 OFFCURVE",
"962 232 OFFCURVE",
"929 215 CURVE SMOOTH",
"828 164 OFFCURVE",
"688 123 OFFCURVE",
"554 123 CURVE SMOOTH",
"398 123 OFFCURVE",
"302 194 OFFCURVE",
"302 361 CURVE SMOOTH",
"302 602 OFFCURVE",
"449 801 OFFCURVE",
"704 801 CURVE SMOOTH",
"849 801 OFFCURVE",
"923 734 OFFCURVE",
"923 650 CURVE SMOOTH",
"923 592 OFFCURVE",
"899 558 OFFCURVE",
"822 550 CURVE SMOOTH",
"281 488 LINE",
"248 348 LINE",
"853 411 LINE SMOOTH",
"1015 428 OFFCURVE",
"1077 520 OFFCURVE",
"1077 655 CURVE SMOOTH",
"1077 821 OFFCURVE",
"941 946 OFFCURVE",
"719 946 CURVE SMOOTH",
"379 946 OFFCURVE",
"150 684 OFFCURVE",
"150 354 CURVE SMOOTH",
"150 122 OFFCURVE",
"287 -22 OFFCURVE",
"539 -22 CURVE SMOOTH",
"650 -22 OFFCURVE",
"764 -2 OFFCURVE",
"861 27 CURVE SMOOTH",
"900 39 OFFCURVE",
"964 66 OFFCURVE",
"992 86 CURVE SMOOTH"
);
}
);
};
layerId = UUID0;
name = "Regular Italic";
paths = (
{
closed = 1;
nodes = (
"379 946 OFFCURVE",
"150 684 OFFCURVE",
"150 354 CURVE SMOOTH",
"150 122 OFFCURVE",
"287 -22 OFFCURVE",
"539 -22 CURVE SMOOTH",
"591.612 -22 OFFCURVE",
"644.898 -17.5062 OFFCURVE",
"696.728 -9.6912 CURVE",
"576.235 -106.865 OFFCURVE",
"508 -203.727 OFFCURVE",
"508 -310 CURVE SMOOTH",
"508 -406 OFFCURVE",
"566 -472 OFFCURVE",
"673 -472 CURVE SMOOTH",
"737 -472 OFFCURVE",
"802 -460 OFFCURVE",
"851 -443 CURVE SMOOTH",
"882 -432 OFFCURVE",
"892 -411 OFFCURVE",
"887 -374 CURVE SMOOTH",
"882 -337 OFFCURVE",
"867 -322 OFFCURVE",
"840 -326 CURVE SMOOTH",
"804 -332 OFFCURVE",
"768 -336 OFFCURVE",
"729 -336 CURVE SMOOTH",
"689 -336 OFFCURVE",
"664 -316 OFFCURVE",
"664 -277 CURVE SMOOTH",
"664 -195.038 OFFCURVE",
"753 -84 OFFCURVE",
"992 86 CURVE SMOOTH",
"1017 104 OFFCURVE",
"1022 129 OFFCURVE",
"1010 166 CURVE SMOOTH",
"994 217 OFFCURVE",
"962 232 OFFCURVE",
"929 215 CURVE SMOOTH",
"828 164 OFFCURVE",
"688 123 OFFCURVE",
"554 123 CURVE SMOOTH",
"400.315 123 OFFCURVE",
"304.862 191.909 OFFCURVE",
"302.063 353.63 CURVE",
"853 411 LINE SMOOTH",
"1015 428 OFFCURVE",
"1077 520 OFFCURVE",
"1077 655 CURVE SMOOTH",
"1077 821 OFFCURVE",
"941 946 OFFCURVE",
"719 946 CURVE SMOOTH"
);
},
{
closed = 1;
nodes = (
"849 801 OFFCURVE",
"923 734 OFFCURVE",
"923 650 CURVE SMOOTH",
"923 592 OFFCURVE",
"899 558 OFFCURVE",
"822 550 CURVE SMOOTH",
"317.514 492.185 LINE",
"361.474 670.162 OFFCURVE",
"497.233 801 OFFCURVE",
"704 801 CURVE SMOOTH"
);
}
);
width = 1228;
},
{
background = {
paths = (
{
closed = 1;
nodes = (
"517 946 OFFCURVE",
"372 882 OFFCURVE",
"271 772 CURVE SMOOTH",
"172 664 OFFCURVE",
"126 517 OFFCURVE",
"126 379 CURVE SMOOTH",
"126 149 OFFCURVE",
"269 -22 OFFCURVE",
"530 -22 CURVE SMOOTH",
"575 -22 OFFCURVE",
"621 -19 OFFCURVE",
"667 -14 CURVE",
"547 -89 OFFCURVE",
"459 -180 OFFCURVE",
"459 -300 CURVE SMOOTH",
"459 -408 OFFCURVE",
"542 -472 OFFCURVE",
"681 -472 CURVE SMOOTH",
"760 -472 OFFCURVE",
"852 -457 OFFCURVE",
"918 -436 CURVE SMOOTH",
"948 -427 OFFCURVE",
"964 -400 OFFCURVE",
"958 -350 CURVE SMOOTH",
"952 -302 OFFCURVE",
"933 -280 OFFCURVE",
"906 -285 CURVE SMOOTH",
"866 -292 OFFCURVE",
"826 -298 OFFCURVE",
"787 -298 CURVE SMOOTH",
"738 -298 OFFCURVE",
"709 -280 OFFCURVE",
"709 -235 CURVE SMOOTH",
"709 -159 OFFCURVE",
"814 -63 OFFCURVE",
"1001 66 CURVE",
"1025 85 OFFCURVE",
"1031 116 OFFCURVE",
"1019 176 CURVE SMOOTH",
"1003 257 OFFCURVE",
"981 273 OFFCURVE",
"935 260 CURVE SMOOTH",
"796 220 OFFCURVE",
"678 205 OFFCURVE",
"570 205 CURVE SMOOTH",
"469 205 OFFCURVE",
"404 247 OFFCURVE",
"383 329 CURVE",
"838 374 LINE SMOOTH",
"938 384 OFFCURVE",
"1003 418 OFFCURVE",
"1042 475 CURVE SMOOTH",
"1075 524 OFFCURVE",
"1086 583 OFFCURVE",
"1086 634 CURVE SMOOTH",
"1086 817 OFFCURVE",
"935 946 OFFCURVE",
"700 946 CURVE SMOOTH"
);
},
{
closed = 1;
nodes = (
"782 719 OFFCURVE",
"828 670 OFFCURVE",
"828 624 CURVE SMOOTH",
"828 590 OFFCURVE",
"810 557 OFFCURVE",
"750 551 CURVE SMOOTH",
"396 515 LINE",
"439 653 OFFCURVE",
"542 719 OFFCURVE",
"674 719 CURVE SMOOTH"
);
}
);
};
layerId = "0791FDB8-5A5D-41D7-9039-1C27D6F382A7";
name = "Bold Italic";
paths = (
{
closed = 1;
nodes = (
"321 946 OFFCURVE",
"126 670 OFFCURVE",
"126 379 CURVE SMOOTH",
"126 149 OFFCURVE",
"269 -22 OFFCURVE",
"530 -22 CURVE SMOOTH",
"575 -22 OFFCURVE",
"621 -19 OFFCURVE",
"667 -14 CURVE",
"547 -89 OFFCURVE",
"459 -180 OFFCURVE",
"459 -300 CURVE SMOOTH",
"459 -408 OFFCURVE",
"542 -472 OFFCURVE",
"681 -472 CURVE SMOOTH",
"760 -472 OFFCURVE",
"852 -457 OFFCURVE",
"918 -436 CURVE SMOOTH",
"948 -427 OFFCURVE",
"964 -400 OFFCURVE",
"958 -350 CURVE SMOOTH",
"952 -302 OFFCURVE",
"933 -280 OFFCURVE",
"906 -285 CURVE SMOOTH",
"866 -292 OFFCURVE",
"826 -298 OFFCURVE",
"787 -298 CURVE SMOOTH",
"738 -298 OFFCURVE",
"709 -280 OFFCURVE",
"709 -235 CURVE SMOOTH",
"709 -159 OFFCURVE",
"814 -63 OFFCURVE",
"1001 66 CURVE",
"1025 85 OFFCURVE",
"1031 116 OFFCURVE",
"1019 176 CURVE SMOOTH",
"1003 257 OFFCURVE",
"981 273 OFFCURVE",
"935 260 CURVE SMOOTH",
"796 220 OFFCURVE",
"678 205 OFFCURVE",
"570 205 CURVE SMOOTH",
"469 205 OFFCURVE",
"404 247 OFFCURVE",
"383 329 CURVE",
"838 374 LINE SMOOTH",
"1017 392 OFFCURVE",
"1086 495 OFFCURVE",
"1086 634 CURVE SMOOTH",
"1086 817 OFFCURVE",
"935 946 OFFCURVE",
"700 946 CURVE SMOOTH"
);
},
{
closed = 1;
nodes = (
"782 719 OFFCURVE",
"828 670 OFFCURVE",
"828 624 CURVE SMOOTH",
"828 590 OFFCURVE",
"810 557 OFFCURVE",
"750 551 CURVE SMOOTH",
"396 515 LINE",
"439 653 OFFCURVE",
"542 719 OFFCURVE",
"674 719 CURVE SMOOTH"
);
}
);
width = 1228;
}
);
unicode = 0119;
},
{
glyphname = f;
lastChange = "2014-11-16 17:30:49 -0700";
layers = (
{
layerId = UUID0;
name = "Regular Italic";
paths = (
{
closed = 1;
nodes = (
"768 1317 OFFCURVE",
"627 1186 OFFCURVE",
"588 967 CURVE SMOOTH",
"404 -78 LINE SMOOTH",
"381 -206 OFFCURVE",
"317 -264 OFFCURVE",
"208 -264 CURVE SMOOTH",
"136 -264 OFFCURVE",
"66 -243 OFFCURVE",
"2 -195 CURVE SMOOTH",
"-25 -175 OFFCURVE",
"-57 -180 OFFCURVE",
"-86 -226 CURVE SMOOTH",
"-116 -274 OFFCURVE",
"-106 -303 OFFCURVE",
"-77 -324 CURVE SMOOTH",
"4 -382 OFFCURVE",
"98 -410 OFFCURVE",
"195 -410 CURVE SMOOTH",
"395 -410 OFFCURVE",
"516 -293 OFFCURVE",
"552 -91 CURVE SMOOTH",
"736 954 LINE SMOOTH",
"760 1091 OFFCURVE",
"835 1171 OFFCURVE",
"976 1171 CURVE SMOOTH",
"1055 1171 OFFCURVE",
"1132 1153 OFFCURVE",
"1204 1124 CURVE SMOOTH",
"1236 1111 OFFCURVE",
"1267 1119 OFFCURVE",
"1286 1174 CURVE SMOOTH",
"1304 1225 OFFCURVE",
"1282 1252 OFFCURVE",
"1249 1266 CURVE SMOOTH",
"1174 1297 OFFCURVE",
"1086 1317 OFFCURVE",
"992 1317 CURVE SMOOTH"
);
},
{
closed = 1;
nodes = (
"368 844 LINE SMOOTH",
"323 844 OFFCURVE",
"302 824 OFFCURVE",
"293 772 CURVE SMOOTH",
"283 720 OFFCURVE",
"298 700 OFFCURVE",
"343 700 CURVE SMOOTH",
"1037 700 LINE SMOOTH",
"1082 700 OFFCURVE",
"1103 720 OFFCURVE",
"1113 772 CURVE SMOOTH",
"1122 824 OFFCURVE",
"1107 844 OFFCURVE",
"1062 844 CURVE SMOOTH"
);
}
);
width = 1228;
},
{
layerId = "0791FDB8-5A5D-41D7-9039-1C27D6F382A7";
name = "Bold Italic";
paths = (
{
closed = 1;
nodes = (
"720 1317 OFFCURVE",
"592 1186 OFFCURVE",
"548 937 CURVE SMOOTH",
"378 -27 LINE SMOOTH",
"359 -135 OFFCURVE",
"308 -173 OFFCURVE",
"231 -173 CURVE SMOOTH",
"176 -173 OFFCURVE",
"109 -147 OFFCURVE",
"46 -111 CURVE SMOOTH",
"5 -88 OFFCURVE",
"-30 -115 OFFCURVE",
"-69 -182 CURVE SMOOTH",
"-105 -244 OFFCURVE",
"-109 -285 OFFCURVE",
"-66 -314 CURVE SMOOTH",
"21 -372 OFFCURVE",
"131 -410 OFFCURVE",
"233 -410 CURVE SMOOTH",
"460 -410 OFFCURVE",
"583 -284 OFFCURVE",
"626 -40 CURVE SMOOTH",
"795 924 LINE SMOOTH",
"814 1030 OFFCURVE",
"872 1080 OFFCURVE",
"954 1080 CURVE SMOOTH",
"1018 1080 OFFCURVE",
"1096 1066 OFFCURVE",
"1176 1043 CURVE SMOOTH",
"1217 1031 OFFCURVE",
"1248 1043 OFFCURVE",
"1277 1124 CURVE SMOOTH",
"1307 1207 OFFCURVE",
"1289 1243 OFFCURVE",
"1246 1260 CURVE SMOOTH",
"1148 1298 OFFCURVE",
"1045 1317 OFFCURVE",
"952 1317 CURVE SMOOTH"
);
},
{
closed = 1;
nodes = (
"352 864 LINE SMOOTH",
"307 864 OFFCURVE",
"284 840 OFFCURVE",
"269 751 CURVE SMOOTH",
"254 662 OFFCURVE",
"267 639 OFFCURVE",
"312 639 CURVE SMOOTH",
"1056 639 LINE SMOOTH",
"1101 639 OFFCURVE",
"1124 662 OFFCURVE",
"1139 751 CURVE SMOOTH",
"1154 840 OFFCURVE",
"1141 864 OFFCURVE",
"1096 864 CURVE SMOOTH"
);
}
);
width = 1228;
}
);
unicode = 0066;
},
{
glyphname = g;
lastChange = "2014-11-16 17:30:55 -0700";
layers = (
{
layerId = UUID0;
name = "Regular Italic";
paths = (
{
closed = 1;
nodes = (
"338 946 OFFCURVE",
"149 685 OFFCURVE",
"149 400 CURVE SMOOTH",
"149 172 OFFCURVE",
"297 28 OFFCURVE",
"513 28 CURVE SMOOTH",
"642 28 OFFCURVE",
"748 73 OFFCURVE",
"845 168 CURVE",
"813 -17 LINE SMOOTH",
"788 -164 OFFCURVE",
"684 -262 OFFCURVE",
"506 -262 CURVE SMOOTH",
"409 -262 OFFCURVE",
"304 -244 OFFCURVE",
"217 -206 CURVE SMOOTH",
"185 -192 OFFCURVE",
"156 -204 OFFCURVE",
"135 -256 CURVE SMOOTH",
"114 -307 OFFCURVE",
"128 -336 OFFCURVE",
"162 -350 CURVE SMOOTH",
"260 -390 OFFCURVE",
"375 -410 OFFCURVE",
"490 -410 CURVE SMOOTH",
"752 -410 OFFCURVE",
"916 -279 OFFCURVE",
"958 -40 CURVE SMOOTH",
"1119 869 LINE SMOOTH",
"1127 915 OFFCURVE",
"1112 934 OFFCURVE",
"1059 934 CURVE SMOOTH",
"1057 934 LINE SMOOTH",
"1004 934 OFFCURVE",
"987 915 OFFCURVE",
"979 869 CURVE SMOOTH",
"960 766 LINE",
"900 877 OFFCURVE",
"801 946 OFFCURVE",
"665 946 CURVE SMOOTH"
);
},
{
closed = 1;
nodes = (
"804 798 OFFCURVE",
"908 710 OFFCURVE",
"908 556 CURVE SMOOTH",
"908 383 OFFCURVE",
"789 176 OFFCURVE",
"540 176 CURVE SMOOTH",
"385 176 OFFCURVE",
"302 271 OFFCURVE",
"302 412 CURVE SMOOTH",
"302 602 OFFCURVE",
"425 798 OFFCURVE",
"649 798 CURVE SMOOTH"
);
}
);
width = 1228;
},
{
layerId = "0791FDB8-5A5D-41D7-9039-1C27D6F382A7";
name = "Bold Italic";
paths = (
{
closed = 1;
nodes = (
"292 946 OFFCURVE",
"131 652 OFFCURVE",
"131 395 CURVE SMOOTH",
"131 180 OFFCURVE",
"259 18 OFFCURVE",
"489 18 CURVE SMOOTH",
"588 18 OFFCURVE",
"686 58 OFFCURVE",
"764 123 CURVE",
"744 21 LINE SMOOTH",
"719 -106 OFFCURVE",
"646 -173 OFFCURVE",
"484 -173 CURVE SMOOTH",
"405 -173 OFFCURVE",
"303 -154 OFFCURVE",
"216 -126 CURVE SMOOTH",
"175 -113 OFFCURVE",
"141 -125 OFFCURVE",
"108 -216 CURVE SMOOTH",
"77 -301 OFFCURVE",
"87 -337 OFFCURVE",
"132 -351 CURVE SMOOTH",
"253 -390 OFFCURVE",
"377 -410 OFFCURVE",
"474 -410 CURVE SMOOTH",
"788 -410 OFFCURVE",
"946 -255 OFFCURVE",
"991 1 CURVE SMOOTH",
"1142 861 LINE SMOOTH",
"1150 906 OFFCURVE",
"1135 924 OFFCURVE",
"1090 924 CURVE SMOOTH",
"1006 924 LINE SMOOTH",
"961 924 OFFCURVE",
"940 906 OFFCURVE",
"932 861 CURVE SMOOTH",
"920 791 LINE",
"861 892 OFFCURVE",
"762 946 OFFCURVE",
"634 946 CURVE SMOOTH"
);
},
{
closed = 1;
nodes = (
"753 714 OFFCURVE",
"836 658 OFFCURVE",
"836 534 CURVE SMOOTH",
"836 390 OFFCURVE",
"743 240 OFFCURVE",
"559 240 CURVE SMOOTH",
"455 240 OFFCURVE",
"392 297 OFFCURVE",
"392 412 CURVE SMOOTH",
"392 551 OFFCURVE",
"471 714 OFFCURVE",
"644 714 CURVE SMOOTH"
);
}
);
width = 1228;
}
);
unicode = 0067;
},
{
glyphname = h;
lastChange = "2014-11-14 05:08:09 -0700";
layers = (
{
layerId = UUID0;
name = "Regular Italic";
paths = (
{
closed = 1;
nodes = (
"438 1322 LINE SMOOTH",
"385 1322 OFFCURVE",
"361 1303 OFFCURVE",
"353 1257 CURVE SMOOTH",
"141 55 LINE SMOOTH",
"133 9 OFFCURVE",
"148 -10 OFFCURVE",
"204 -10 CURVE SMOOTH",
"206 -10 LINE SMOOTH",
"259 -10 OFFCURVE",
"283 9 OFFCURVE",
"291 55 CURVE SMOOTH",
"351 392 LINE SMOOTH",
"391 620 OFFCURVE",
"611 798 OFFCURVE",
"782 798 CURVE SMOOTH",
"887 798 OFFCURVE",
"935 744 OFFCURVE",
"935 659 CURVE SMOOTH",
"935 642 OFFCURVE",
"933 624 OFFCURVE",
"930 605 CURVE SMOOTH",
"833 55 LINE SMOOTH",
"825 9 OFFCURVE",
"840 -10 OFFCURVE",
"896 -10 CURVE SMOOTH",
"898 -10 LINE SMOOTH",
"951 -10 OFFCURVE",
"975 9 OFFCURVE",
"983 55 CURVE SMOOTH",
"1081 610 LINE SMOOTH",
"1086 637 OFFCURVE",
"1088 662 OFFCURVE",
"1088 686 CURVE SMOOTH",
"1088 844 OFFCURVE",
"985 946 OFFCURVE",
"813 946 CURVE SMOOTH",
"672 946 OFFCURVE",
"519 857 OFFCURVE",
"410 731 CURVE",
"503 1257 LINE SMOOTH",
"511 1303 OFFCURVE",
"496 1322 OFFCURVE",
"440 1322 CURVE SMOOTH"
);
}
);
width = 1228;
},
{
layerId = "0791FDB8-5A5D-41D7-9039-1C27D6F382A7";
name = "Bold Italic";
paths = (
{
closed = 1;
nodes = (
"394 1312 LINE SMOOTH",
"349 1312 OFFCURVE",
"328 1294 OFFCURVE",
"320 1249 CURVE SMOOTH",
"111 63 LINE SMOOTH",
"103 18 OFFCURVE",
"118 0 OFFCURVE",
"163 0 CURVE SMOOTH",
"287 0 LINE SMOOTH",
"332 0 OFFCURVE",
"353 18 OFFCURVE",
"361 63 CURVE SMOOTH",
"413 358 LINE SMOOTH",
"446 546 OFFCURVE",
"611 709 OFFCURVE",
"740 709 CURVE SMOOTH",
"820 709 OFFCURVE",
"854 668 OFFCURVE",
"854 600 CURVE SMOOTH",
"854 585 OFFCURVE",
"852 569 OFFCURVE",
"849 551 CURVE SMOOTH",
"763 63 LINE SMOOTH",
"755 18 OFFCURVE",
"770 0 OFFCURVE",
"815 0 CURVE SMOOTH",
"939 0 LINE SMOOTH",
"984 0 OFFCURVE",
"1005 18 OFFCURVE",
"1013 63 CURVE SMOOTH",
"1105 590 LINE SMOOTH",
"1109 614 OFFCURVE",
"1111 637 OFFCURVE",
"1111 660 CURVE SMOOTH",
"1111 825 OFFCURVE",
"1001 946 OFFCURVE",
"826 946 CURVE SMOOTH",
"700 946 OFFCURVE",
"584 883 OFFCURVE",
"488 783 CURVE",
"570 1249 LINE SMOOTH",
"578 1294 OFFCURVE",
"563 1312 OFFCURVE",
"518 1312 CURVE SMOOTH"
);
}
);
width = 1228;
}
);
unicode = 0068;
},
{
color = (0,243,255,1);
glyphname = hbar;
lastChange = "2014-11-16 05:34:38 -0700";
layers = (
{
background = {
paths = (
{
closed = 1;
nodes = (
"438 1322 LINE SMOOTH",
"385 1322 OFFCURVE",
"361 1303 OFFCURVE",
"353 1257 CURVE SMOOTH",
"141 55 LINE SMOOTH",
"133 9 OFFCURVE",
"148 -10 OFFCURVE",
"204 -10 CURVE SMOOTH",
"206 -10 LINE SMOOTH",
"259 -10 OFFCURVE",
"283 9 OFFCURVE",
"291 55 CURVE SMOOTH",
"351 392 LINE SMOOTH",
"391 620 OFFCURVE",
"611 798 OFFCURVE",
"782 798 CURVE SMOOTH",
"887 798 OFFCURVE",
"935 744 OFFCURVE",
"935 659 CURVE SMOOTH",
"935 642 OFFCURVE",
"933 624 OFFCURVE",
"930 605 CURVE SMOOTH",
"833 55 LINE SMOOTH",
"825 9 OFFCURVE",
"840 -10 OFFCURVE",
"896 -10 CURVE SMOOTH",
"898 -10 LINE SMOOTH",
"951 -10 OFFCURVE",
"975 9 OFFCURVE",
"983 55 CURVE SMOOTH",
"1081 610 LINE SMOOTH",
"1086 637 OFFCURVE",
"1088 662 OFFCURVE",
"1088 686 CURVE SMOOTH",
"1088 844 OFFCURVE",
"985 946 OFFCURVE",
"813 946 CURVE SMOOTH",
"672 946 OFFCURVE",
"519 857 OFFCURVE",
"410 731 CURVE",
"503 1257 LINE SMOOTH",
"511 1303 OFFCURVE",
"496 1322 OFFCURVE",
"440 1322 CURVE SMOOTH"
);
},
{
closed = 1;
nodes = (
"196 1150 LINE SMOOTH",
"151 1150 OFFCURVE",
"129 1130 OFFCURVE",
"120 1078 CURVE SMOOTH",
"111 1026 OFFCURVE",
"125 1006 OFFCURVE",
"170 1006 CURVE SMOOTH",
"712 1006 LINE SMOOTH",
"757 1006 OFFCURVE",
"779 1026 OFFCURVE",
"788 1078 CURVE SMOOTH",
"797 1130 OFFCURVE",
"783 1150 OFFCURVE",
"738 1150 CURVE SMOOTH"
);
}
);
};
layerId = UUID0;
name = "Regular Italic";
paths = (
{
closed = 1;
nodes = (
"438 1322 LINE SMOOTH",
"385 1322 OFFCURVE",
"361 1303 OFFCURVE",
"353 1257 CURVE SMOOTH",
"141 55 LINE SMOOTH",
"133 9 OFFCURVE",
"148 -10 OFFCURVE",
"204 -10 CURVE SMOOTH",
"206 -10 LINE SMOOTH",
"259 -10 OFFCURVE",
"283 9 OFFCURVE",
"291 55 CURVE SMOOTH",
"340 332 LINE SMOOTH",
"380 560 OFFCURVE",
"600 738 OFFCURVE",
"771 738 CURVE SMOOTH",
"876 738 OFFCURVE",
"924 684 OFFCURVE",
"924 599 CURVE SMOOTH",
"924 582 OFFCURVE",
"922 564 OFFCURVE",
"919 545 CURVE SMOOTH",
"833 55 LINE SMOOTH",
"825 9 OFFCURVE",
"840 -10 OFFCURVE",
"896 -10 CURVE SMOOTH",
"898 -10 LINE SMOOTH",
"951 -10 OFFCURVE",
"975 9 OFFCURVE",
"983 55 CURVE SMOOTH",
"1070 550 LINE SMOOTH",
"1075 577 OFFCURVE",
"1077 602 OFFCURVE",
"1077 626 CURVE SMOOTH",
"1077 784 OFFCURVE",
"974 886 OFFCURVE",
"802 886 CURVE SMOOTH",
"661 886 OFFCURVE",
"508 797 OFFCURVE",
"399 671 CURVE",
"503 1257 LINE SMOOTH",
"511 1303 OFFCURVE",
"496 1322 OFFCURVE",
"440 1322 CURVE SMOOTH"
);
},
{
closed = 1;
nodes = (
"196 1150 LINE SMOOTH",
"151 1150 OFFCURVE",
"129 1130 OFFCURVE",
"120 1078 CURVE SMOOTH",
"111 1026 OFFCURVE",
"125 1006 OFFCURVE",
"170 1006 CURVE SMOOTH",
"712 1006 LINE SMOOTH",
"757 1006 OFFCURVE",
"779 1026 OFFCURVE",
"788 1078 CURVE SMOOTH",
"797 1130 OFFCURVE",
"783 1150 OFFCURVE",
"738 1150 CURVE SMOOTH"
);
}
);
width = 1228;
},
{
background = {
paths = (
{
closed = 1;
nodes = (
"394 1312 LINE SMOOTH",
"349 1312 OFFCURVE",
"328 1294 OFFCURVE",
"320 1249 CURVE SMOOTH",
"111 63 LINE SMOOTH",
"103 18 OFFCURVE",
"118 0 OFFCURVE",
"163 0 CURVE SMOOTH",
"287 0 LINE SMOOTH",
"332 0 OFFCURVE",
"353 18 OFFCURVE",
"361 63 CURVE SMOOTH",
"399 278 LINE SMOOTH",
"432 466 OFFCURVE",
"597 629 OFFCURVE",
"726 629 CURVE SMOOTH",
"806 629 OFFCURVE",
"840 588 OFFCURVE",
"840 520 CURVE SMOOTH",
"840 505 OFFCURVE",
"838 489 OFFCURVE",
"835 471 CURVE SMOOTH",
"763 63 LINE SMOOTH",
"755 18 OFFCURVE",
"770 0 OFFCURVE",
"815 0 CURVE SMOOTH",
"939 0 LINE SMOOTH",
"984 0 OFFCURVE",
"1005 18 OFFCURVE",
"1013 63 CURVE SMOOTH",
"1091 510 LINE SMOOTH",
"1095 534 OFFCURVE",
"1097 557 OFFCURVE",
"1097 580 CURVE SMOOTH",
"1097 745 OFFCURVE",
"987 866 OFFCURVE",
"812 866 CURVE SMOOTH",
"686 866 OFFCURVE",
"570 803 OFFCURVE",
"474 703 CURVE",
"570 1249 LINE SMOOTH",
"578 1294 OFFCURVE",
"563 1312 OFFCURVE",
"518 1312 CURVE SMOOTH"
);
},
{
closed = 1;
nodes = (
"196 1155 LINE SMOOTH",
"151 1155 OFFCURVE",
"130 1137 OFFCURVE",
"115 1052 CURVE SMOOTH",
"100 967 OFFCURVE",
"115 950 OFFCURVE",
"160 950 CURVE SMOOTH",
"722 950 LINE SMOOTH",
"767 950 OFFCURVE",
"788 967 OFFCURVE",
"803 1052 CURVE SMOOTH",
"818 1137 OFFCURVE",
"803 1155 OFFCURVE",
"758 1155 CURVE SMOOTH"
);
}
);
};
layerId = "0791FDB8-5A5D-41D7-9039-1C27D6F382A7";
name = "Bold Italic";
paths = (
{
closed = 1;
nodes = (
"394 1312 LINE SMOOTH",
"349 1312 OFFCURVE",
"328 1294 OFFCURVE",
"320 1249 CURVE SMOOTH",
"111 63 LINE SMOOTH",
"103 18 OFFCURVE",
"118 0 OFFCURVE",
"163 0 CURVE SMOOTH",
"287 0 LINE SMOOTH",
"332 0 OFFCURVE",
"353 18 OFFCURVE",
"361 63 CURVE SMOOTH",
"395 258 LINE SMOOTH",
"428 446 OFFCURVE",
"593 609 OFFCURVE",
"722 609 CURVE SMOOTH",
"802 609 OFFCURVE",
"836 568 OFFCURVE",
"836 500 CURVE SMOOTH",
"836 485 OFFCURVE",
"834 469 OFFCURVE",
"831 451 CURVE SMOOTH",
"763 63 LINE SMOOTH",
"755 18 OFFCURVE",
"770 0 OFFCURVE",
"815 0 CURVE SMOOTH",
"939 0 LINE SMOOTH",
"984 0 OFFCURVE",
"1005 18 OFFCURVE",
"1013 63 CURVE SMOOTH",
"1087 490 LINE SMOOTH",
"1091 514 OFFCURVE",
"1093 537 OFFCURVE",
"1093 560 CURVE SMOOTH",
"1093 725 OFFCURVE",
"983 846 OFFCURVE",
"808 846 CURVE SMOOTH",
"682 846 OFFCURVE",
"566 783 OFFCURVE",
"470 683 CURVE",
"570 1249 LINE SMOOTH",
"578 1294 OFFCURVE",
"563 1312 OFFCURVE",
"518 1312 CURVE SMOOTH"
);
},
{
closed = 1;
nodes = (
"196 1155 LINE SMOOTH",
"151 1155 OFFCURVE",
"130 1137 OFFCURVE",
"115 1052 CURVE SMOOTH",
"100 967 OFFCURVE",
"115 950 OFFCURVE",
"160 950 CURVE SMOOTH",
"722 950 LINE SMOOTH",
"767 950 OFFCURVE",
"788 967 OFFCURVE",
"803 1052 CURVE SMOOTH",
"818 1137 OFFCURVE",
"803 1155 OFFCURVE",
"758 1155 CURVE SMOOTH"
);
}
);
width = 1228;
}
);
unicode = 0127;
},
{
glyphname = i;
lastChange = "2014-05-18 14:56:47 -0700";
layers = (
{
layerId = UUID0;
name = "Regular Italic";
paths = (
{
closed = 1;
nodes = (
"322 924 LINE SMOOTH",
"277 924 OFFCURVE",
"256 904 OFFCURVE",
"247 852 CURVE SMOOTH",
"238 800 OFFCURVE",
"252 780 OFFCURVE",
"297 780 CURVE SMOOTH",
"550 780 LINE",
"467 307 LINE SMOOTH",
"462 280 OFFCURVE",
"460 254 OFFCURVE",
"460 229 CURVE SMOOTH",
"460 73 OFFCURVE",
"556 -22 OFFCURVE",
"729 -22 CURVE SMOOTH",
"826 -22 OFFCURVE",
"927 7 OFFCURVE",
"1029 65 CURVE SMOOTH",
"1066 86 OFFCURVE",
"1077 113 OFFCURVE",
"1059 161 CURVE SMOOTH",
"1041 208 OFFCURVE",
"1009 220 OFFCURVE",
"976 200 CURVE SMOOTH",
"894 149 OFFCURVE",
"821 124 OFFCURVE",
"744 124 CURVE SMOOTH",
"651 124 OFFCURVE",
"610 160 OFFCURVE",
"610 244 CURVE SMOOTH",
"610 263 OFFCURVE",
"613 286 OFFCURVE",
"617 310 CURVE SMOOTH",
"713 856 LINE SMOOTH",
"722 906 OFFCURVE",
"705 924 OFFCURVE",
"660 924 CURVE SMOOTH"
);
},
{
closed = 1;
nodes = (
"632 1363 OFFCURVE",
"609 1344 OFFCURVE",
"601 1298 CURVE SMOOTH",
"578 1168 LINE SMOOTH",
"570 1122 OFFCURVE",
"586 1103 OFFCURVE",
"662 1103 CURVE SMOOTH",
"738 1103 OFFCURVE",
"760 1122 OFFCURVE",
"768 1168 CURVE SMOOTH",
"791 1298 LINE SMOOTH",
"799 1344 OFFCURVE",
"784 1363 OFFCURVE",
"708 1363 CURVE SMOOTH"
);
}
);
width = 1228;
},
{
layerId = "0791FDB8-5A5D-41D7-9039-1C27D6F382A7";
name = "Bold Italic";
paths = (
{
closed = 1;
nodes = (
"342 924 LINE SMOOTH",
"297 924 OFFCURVE",
"274 904 OFFCURVE",
"259 811 CURVE SMOOTH",
"244 718 OFFCURVE",
"257 699 OFFCURVE",
"302 699 CURVE SMOOTH",
"495 699 LINE",
"438 368 LINE SMOOTH",
"432 334 OFFCURVE",
"429 302 OFFCURVE",
"429 272 CURVE SMOOTH",
"429 86 OFFCURVE",
"541 -22 OFFCURVE",
"736 -22 CURVE SMOOTH",
"851 -22 OFFCURVE",
"942 2 OFFCURVE",
"1070 74 CURVE SMOOTH",
"1124 105 OFFCURVE",
"1115 149 OFFCURVE",
"1088 207 CURVE SMOOTH",
"1058 272 OFFCURVE",
"1029 300 OFFCURVE",
"979 274 CURVE SMOOTH",
"901 233 OFFCURVE",
"846 215 OFFCURVE",
"780 215 CURVE SMOOTH",
"717 215 OFFCURVE",
"683 246 OFFCURVE",
"683 318 CURVE SMOOTH",
"683 334 OFFCURVE",
"685 352 OFFCURVE",
"688 371 CURVE SMOOTH",
"774 861 LINE SMOOTH",
"782 906 OFFCURVE",
"767 924 OFFCURVE",
"722 924 CURVE SMOOTH"
);
},
{
closed = 1;
nodes = (
"643 1383 OFFCURVE",
"613 1365 OFFCURVE",
"605 1320 CURVE SMOOTH",
"576 1156 LINE SMOOTH",
"568 1111 OFFCURVE",
"597 1093 OFFCURVE",
"692 1093 CURVE SMOOTH",
"787 1093 OFFCURVE",
"818 1111 OFFCURVE",
"826 1156 CURVE SMOOTH",
"855 1320 LINE SMOOTH",
"863 1365 OFFCURVE",
"833 1383 OFFCURVE",
"738 1383 CURVE SMOOTH"
);
}
);
width = 1228;
}
);
unicode = 0069;
},
{
glyphname = dotlessi;
lastChange = "2014-11-14 23:18:29 -0700";
layers = (
{
layerId = UUID0;
name = "Regular Italic";
paths = (
{
closed = 1;
nodes = (
"322 924 LINE SMOOTH",
"277 924 OFFCURVE",
"256 904 OFFCURVE",
"247 852 CURVE SMOOTH",
"238 800 OFFCURVE",
"252 780 OFFCURVE",
"297 780 CURVE SMOOTH",
"550 780 LINE",
"467 307 LINE SMOOTH",
"462 280 OFFCURVE",
"460 254 OFFCURVE",
"460 229 CURVE SMOOTH",
"460 73 OFFCURVE",
"556 -22 OFFCURVE",
"729 -22 CURVE SMOOTH",
"826 -22 OFFCURVE",
"927 7 OFFCURVE",
"1029 65 CURVE SMOOTH",
"1066 86 OFFCURVE",
"1077 113 OFFCURVE",
"1059 161 CURVE SMOOTH",
"1041 208 OFFCURVE",
"1009 220 OFFCURVE",
"976 200 CURVE SMOOTH",
"894 149 OFFCURVE",
"821 124 OFFCURVE",
"744 124 CURVE SMOOTH",
"651 124 OFFCURVE",
"610 160 OFFCURVE",
"610 244 CURVE SMOOTH",
"610 263 OFFCURVE",
"613 286 OFFCURVE",
"617 310 CURVE SMOOTH",
"713 856 LINE SMOOTH",
"722 906 OFFCURVE",
"705 924 OFFCURVE",
"660 924 CURVE SMOOTH"
);
}
);
width = 1228;
},
{
layerId = "0791FDB8-5A5D-41D7-9039-1C27D6F382A7";
name = "Bold Italic";
paths = (
{
closed = 1;
nodes = (
"342 924 LINE SMOOTH",
"297 924 OFFCURVE",
"276 906 OFFCURVE",
"261 821 CURVE SMOOTH",
"246 736 OFFCURVE",
"261 719 OFFCURVE",
"306 719 CURVE SMOOTH",
"499 719 LINE",
"438 368 LINE SMOOTH",
"432 334 OFFCURVE",
"429 302 OFFCURVE",
"429 272 CURVE SMOOTH",
"429 86 OFFCURVE",
"541 -22 OFFCURVE",
"736 -22 CURVE SMOOTH",
"851 -22 OFFCURVE",
"942 2 OFFCURVE",
"1070 74 CURVE SMOOTH",
"1124 105 OFFCURVE",
"1117 146 OFFCURVE",
"1090 204 CURVE SMOOTH",
"1060 269 OFFCURVE",
"1031 294 OFFCURVE",
"981 267 CURVE SMOOTH",
"899 223 OFFCURVE",
"844 205 OFFCURVE",
"778 205 CURVE SMOOTH",
"715 205 OFFCURVE",
"681 236 OFFCURVE",
"681 308 CURVE SMOOTH",
"681 324 OFFCURVE",
"683 342 OFFCURVE",
"686 361 CURVE SMOOTH",
"774 861 LINE SMOOTH",
"782 906 OFFCURVE",
"767 924 OFFCURVE",
"722 924 CURVE SMOOTH"
);
}
);
width = 1228;
}
);
unicode = 0131;
},
{
glyphname = ij;
lastChange = "2014-11-16 17:31:06 -0700";
layers = (
{
layerId = UUID0;
name = "Regular Italic";
paths = (
{
closed = 1;
nodes = (
"1004 934 LINE SMOOTH",
"951 934 OFFCURVE",
"927 915 OFFCURVE",
"919 869 CURVE SMOOTH",
"758 -44 LINE SMOOTH",
"732 -191 OFFCURVE",
"676 -264 OFFCURVE",
"542 -264 CURVE SMOOTH",
"467 -264 OFFCURVE",
"383 -240 OFFCURVE",
"307 -199 CURVE SMOOTH",
"278 -183 OFFCURVE",
"247 -189 OFFCURVE",
"223 -242 CURVE SMOOTH",
"200 -293 OFFCURVE",
"212 -319 OFFCURVE",
"244 -337 CURVE SMOOTH",
"327 -384 OFFCURVE",
"428 -410 OFFCURVE",
"526 -410 CURVE SMOOTH",
"758 -410 OFFCURVE",
"866 -286 OFFCURVE",
"906 -57 CURVE SMOOTH",
"1069 869 LINE SMOOTH",
"1077 915 OFFCURVE",
"1062 934 OFFCURVE",
"1006 934 CURVE SMOOTH"
);
},
{
closed = 1;
nodes = (
"410 934 LINE SMOOTH",
"357 934 OFFCURVE",
"333 915 OFFCURVE",
"325 869 CURVE SMOOTH",
"181 55 LINE SMOOTH",
"173 9 OFFCURVE",
"188 -10 OFFCURVE",
"244 -10 CURVE SMOOTH",
"246 -10 LINE SMOOTH",
"299 -10 OFFCURVE",
"323 9 OFFCURVE",
"331 55 CURVE SMOOTH",
"475 869 LINE SMOOTH",
"483 915 OFFCURVE",
"468 934 OFFCURVE",
"412 934 CURVE SMOOTH"
);
},
{
closed = 1;
nodes = (
"401 1363 OFFCURVE",
"378 1344 OFFCURVE",
"370 1298 CURVE SMOOTH",
"347 1168 LINE SMOOTH",
"339 1122 OFFCURVE",
"355 1103 OFFCURVE",
"431 1103 CURVE SMOOTH",
"507 1103 OFFCURVE",
"529 1122 OFFCURVE",
"537 1168 CURVE SMOOTH",
"560 1298 LINE SMOOTH",
"568 1344 OFFCURVE",
"553 1363 OFFCURVE",
"477 1363 CURVE SMOOTH"
);
},
{
closed = 1;
nodes = (
"995 1363 OFFCURVE",
"972 1344 OFFCURVE",
"964 1298 CURVE SMOOTH",
"941 1168 LINE SMOOTH",
"933 1122 OFFCURVE",
"949 1103 OFFCURVE",
"1025 1103 CURVE SMOOTH",
"1101 1103 OFFCURVE",
"1123 1122 OFFCURVE",
"1131 1168 CURVE SMOOTH",
"1154 1298 LINE SMOOTH",
"1162 1344 OFFCURVE",
"1147 1363 OFFCURVE",
"1071 1363 CURVE SMOOTH"
);
}
);
width = 1228;
},
{
layerId = "0791FDB8-5A5D-41D7-9039-1C27D6F382A7";
name = "Bold Italic";
paths = (
{
closed = 1;
nodes = (
"939 924 LINE SMOOTH",
"894 924 OFFCURVE",
"873 906 OFFCURVE",
"865 861 CURVE SMOOTH",
"711 -17 LINE SMOOTH",
"692 -128 OFFCURVE",
"636 -173 OFFCURVE",
"554 -173 CURVE SMOOTH",
"505 -173 OFFCURVE",
"435 -155 OFFCURVE",
"376 -130 CURVE SMOOTH",
"337 -113 OFFCURVE",
"303 -128 OFFCURVE",
"270 -209 CURVE SMOOTH",
"237 -290 OFFCURVE",
"250 -325 OFFCURVE",
"290 -346 CURVE SMOOTH",
"376 -391 OFFCURVE",
"478 -410 OFFCURVE",
"564 -410 CURVE SMOOTH",
"796 -410 OFFCURVE",
"914 -279 OFFCURVE",
"958 -30 CURVE SMOOTH",
"1115 861 LINE SMOOTH",
"1123 906 OFFCURVE",
"1108 924 OFFCURVE",
"1063 924 CURVE SMOOTH"
);
},
{
closed = 1;
nodes = (
"349 924 LINE SMOOTH",
"304 924 OFFCURVE",
"283 906 OFFCURVE",
"275 861 CURVE SMOOTH",
"135 63 LINE SMOOTH",
"127 18 OFFCURVE",
"142 0 OFFCURVE",
"187 0 CURVE SMOOTH",
"311 0 LINE SMOOTH",
"356 0 OFFCURVE",
"377 18 OFFCURVE",
"385 63 CURVE SMOOTH",
"525 861 LINE SMOOTH",
"533 906 OFFCURVE",
"518 924 OFFCURVE",
"473 924 CURVE SMOOTH"
);
},
{
closed = 1;
nodes = (
"384 1383 OFFCURVE",
"354 1365 OFFCURVE",
"346 1320 CURVE SMOOTH",
"317 1156 LINE SMOOTH",
"309 1111 OFFCURVE",
"338 1093 OFFCURVE",
"433 1093 CURVE SMOOTH",
"528 1093 OFFCURVE",
"559 1111 OFFCURVE",
"567 1156 CURVE SMOOTH",
"596 1320 LINE SMOOTH",
"604 1365 OFFCURVE",
"574 1383 OFFCURVE",
"479 1383 CURVE SMOOTH"
);
},
{
closed = 1;
nodes = (
"974 1383 OFFCURVE",
"944 1365 OFFCURVE",
"936 1320 CURVE SMOOTH",
"907 1156 LINE SMOOTH",
"899 1111 OFFCURVE",
"928 1093 OFFCURVE",
"1023 1093 CURVE SMOOTH",
"1118 1093 OFFCURVE",
"1149 1111 OFFCURVE",
"1157 1156 CURVE SMOOTH",
"1186 1320 LINE SMOOTH",
"1194 1365 OFFCURVE",
"1164 1383 OFFCURVE",
"1069 1383 CURVE SMOOTH"
);
}
);
width = 1228;
}
);
unicode = 0133;
},
{
glyphname = j;
lastChange = "2014-11-16 17:31:11 -0700";
layers = (
{
layerId = UUID0;
name = "Regular Italic";
paths = (
{
closed = 1;
nodes = (
"422 924 LINE SMOOTH",
"377 924 OFFCURVE",
"356 904 OFFCURVE",
"347 852 CURVE SMOOTH",
"338 800 OFFCURVE",
"352 780 OFFCURVE",
"397 780 CURVE SMOOTH",
"820 780 LINE",
"675 -44 LINE SMOOTH",
"649 -191 OFFCURVE",
"593 -264 OFFCURVE",
"459 -264 CURVE SMOOTH",
"366 -264 OFFCURVE",
"269 -223 OFFCURVE",
"191 -167 CURVE SMOOTH",
"164 -147 OFFCURVE",
"130 -148 OFFCURVE",
"100 -199 CURVE SMOOTH",
"70 -250 OFFCURVE",
"82 -276 OFFCURVE",
"111 -297 CURVE SMOOTH",
"200 -360 OFFCURVE",
"328 -410 OFFCURVE",
"443 -410 CURVE SMOOTH",
"675 -410 OFFCURVE",
"783 -286 OFFCURVE",
"823 -57 CURVE SMOOTH",
"983 856 LINE SMOOTH",
"992 906 OFFCURVE",
"977 924 OFFCURVE",
"932 924 CURVE SMOOTH"
);
},
{
closed = 1;
nodes = (
"902 1363 OFFCURVE",
"879 1344 OFFCURVE",
"871 1298 CURVE SMOOTH",
"848 1168 LINE SMOOTH",
"840 1122 OFFCURVE",
"856 1103 OFFCURVE",
"932 1103 CURVE SMOOTH",
"1008 1103 OFFCURVE",
"1030 1122 OFFCURVE",
"1038 1168 CURVE SMOOTH",
"1061 1298 LINE SMOOTH",
"1069 1344 OFFCURVE",
"1054 1363 OFFCURVE",
"978 1363 CURVE SMOOTH"
);
}
);
width = 1228;
},
{
layerId = "0791FDB8-5A5D-41D7-9039-1C27D6F382A7";
name = "Bold Italic";
paths = (
{
closed = 1;
nodes = (
"382 924 LINE SMOOTH",
"337 924 OFFCURVE",
"314 904 OFFCURVE",
"299 811 CURVE SMOOTH",
"284 718 OFFCURVE",
"297 699 OFFCURVE",
"342 699 CURVE SMOOTH",
"725 699 LINE",
"600 -17 LINE SMOOTH",
"581 -125 OFFCURVE",
"527 -173 OFFCURVE",
"441 -173 CURVE SMOOTH",
"373 -173 OFFCURVE",
"282 -144 OFFCURVE",
"204 -105 CURVE SMOOTH",
"166 -86 OFFCURVE",
"130 -93 OFFCURVE",
"88 -178 CURVE SMOOTH",
"49 -258 OFFCURVE",
"59 -293 OFFCURVE",
"100 -315 CURVE SMOOTH",
"210 -374 OFFCURVE",
"328 -410 OFFCURVE",
"443 -410 CURVE SMOOTH",
"675 -410 OFFCURVE",
"801 -289 OFFCURVE",
"845 -40 CURVE SMOOTH",
"1004 861 LINE SMOOTH",
"1012 906 OFFCURVE",
"997 924 OFFCURVE",
"952 924 CURVE SMOOTH"
);
},
{
closed = 1;
nodes = (
"873 1383 OFFCURVE",
"843 1365 OFFCURVE",
"835 1320 CURVE SMOOTH",
"806 1156 LINE SMOOTH",
"798 1111 OFFCURVE",
"827 1093 OFFCURVE",
"922 1093 CURVE SMOOTH",
"1017 1093 OFFCURVE",
"1048 1111 OFFCURVE",
"1056 1156 CURVE SMOOTH",
"1085 1320 LINE SMOOTH",
"1093 1365 OFFCURVE",
"1063 1383 OFFCURVE",
"968 1383 CURVE SMOOTH"
);
}
);
width = 1228;
}
);
unicode = 006A;
},
{
glyphname = dotlessj;
lastChange = "2014-11-16 17:31:15 -0700";
layers = (
{
layerId = UUID0;
name = "Regular Italic";
paths = (
{
closed = 1;
nodes = (
"422 924 LINE SMOOTH",
"377 924 OFFCURVE",
"356 904 OFFCURVE",
"347 852 CURVE SMOOTH",
"338 800 OFFCURVE",
"352 780 OFFCURVE",
"397 780 CURVE SMOOTH",
"820 780 LINE",
"675 -44 LINE SMOOTH",
"649 -191 OFFCURVE",
"593 -264 OFFCURVE",
"459 -264 CURVE SMOOTH",
"366 -264 OFFCURVE",
"269 -223 OFFCURVE",
"191 -167 CURVE SMOOTH",
"164 -147 OFFCURVE",
"130 -148 OFFCURVE",
"100 -199 CURVE SMOOTH",
"70 -250 OFFCURVE",
"82 -276 OFFCURVE",
"111 -297 CURVE SMOOTH",
"200 -360 OFFCURVE",
"328 -410 OFFCURVE",
"443 -410 CURVE SMOOTH",
"675 -410 OFFCURVE",
"783 -286 OFFCURVE",
"823 -57 CURVE SMOOTH",
"983 856 LINE SMOOTH",
"992 906 OFFCURVE",
"977 924 OFFCURVE",
"932 924 CURVE SMOOTH"
);
}
);
width = 1228;
},
{
layerId = "0791FDB8-5A5D-41D7-9039-1C27D6F382A7";
name = "Bold Italic";
paths = (
{
closed = 1;
nodes = (
"382 924 LINE SMOOTH",
"337 924 OFFCURVE",
"314 904 OFFCURVE",
"299 811 CURVE SMOOTH",
"284 718 OFFCURVE",
"297 699 OFFCURVE",
"342 699 CURVE SMOOTH",
"725 699 LINE",
"600 -17 LINE SMOOTH",
"581 -125 OFFCURVE",
"527 -173 OFFCURVE",
"441 -173 CURVE SMOOTH",
"373 -173 OFFCURVE",
"282 -144 OFFCURVE",
"204 -105 CURVE SMOOTH",
"166 -86 OFFCURVE",
"130 -93 OFFCURVE",
"88 -178 CURVE SMOOTH",
"49 -258 OFFCURVE",
"59 -293 OFFCURVE",
"100 -315 CURVE SMOOTH",
"210 -374 OFFCURVE",
"328 -410 OFFCURVE",
"443 -410 CURVE SMOOTH",
"675 -410 OFFCURVE",
"801 -289 OFFCURVE",
"845 -40 CURVE SMOOTH",
"1004 861 LINE SMOOTH",
"1012 906 OFFCURVE",
"997 924 OFFCURVE",
"952 924 CURVE SMOOTH"
);
}
);
width = 1228;
}
);
unicode = 0237;
},
{
glyphname = k;
lastChange = "2014-11-14 23:20:46 -0700";
layers = (
{
layerId = UUID0;
name = "Regular Italic";
paths = (
{
closed = 1;
nodes = (
"468 1322 LINE SMOOTH",
"415 1322 OFFCURVE",
"391 1303 OFFCURVE",
"383 1257 CURVE SMOOTH",
"171 55 LINE SMOOTH",
"163 9 OFFCURVE",
"178 -10 OFFCURVE",
"234 -10 CURVE SMOOTH",
"236 -10 LINE SMOOTH",
"289 -10 OFFCURVE",
"313 9 OFFCURVE",
"321 55 CURVE SMOOTH",
"533 1257 LINE SMOOTH",
"541 1303 OFFCURVE",
"526 1322 OFFCURVE",
"470 1322 CURVE SMOOTH"
);
},
{
closed = 1;
nodes = (
"1055 951 OFFCURVE",
"1020 946 OFFCURVE",
"991 924 CURVE SMOOTH",
"333 416 LINE",
"344 248 LINE",
"1111 833 LINE SMOOTH",
"1151 864 OFFCURVE",
"1140 895 OFFCURVE",
"1096 924 CURVE SMOOTH"
);
},
{
closed = 1;
nodes = (
"555 453 LINE",
"878 11 LINE SMOOTH",
"898 -16 OFFCURVE",
"924 -24 OFFCURVE",
"976 5 CURVE SMOOTH",
"1025 32 OFFCURVE",
"1034 57 OFFCURVE",
"1009 91 CURVE SMOOTH",
"685 529 LINE"
);
}
);
width = 1228;
},
{
layerId = "0791FDB8-5A5D-41D7-9039-1C27D6F382A7";
name = "Bold Italic";
paths = (
{
closed = 1;
nodes = (
"427 1312 LINE SMOOTH",
"382 1312 OFFCURVE",
"361 1294 OFFCURVE",
"353 1249 CURVE SMOOTH",
"144 63 LINE SMOOTH",
"136 18 OFFCURVE",
"151 0 OFFCURVE",
"196 0 CURVE SMOOTH",
"320 0 LINE SMOOTH",
"365 0 OFFCURVE",
"386 18 OFFCURVE",
"394 63 CURVE SMOOTH",
"603 1249 LINE",
"611 1294 OFFCURVE",
"596 1312 OFFCURVE",
"551 1312 CURVE SMOOTH"
);
},
{
closed = 1;
nodes = (
"1029 944 OFFCURVE",
"978 949 OFFCURVE",
"933 916 CURVE SMOOTH",
"403 529 LINE",
"381 227 LINE",
"1111 741 LINE SMOOTH",
"1160 776 OFFCURVE",
"1156 823 OFFCURVE",
"1087 889 CURVE SMOOTH"
);
},
{
closed = 1;
nodes = (
"559 417 LINE",
"813 14 LINE SMOOTH",
"838 -25 OFFCURVE",
"877 -25 OFFCURVE",
"957 24 CURVE SMOOTH",
"1048 80 OFFCURVE",
"1053 111 OFFCURVE",
"1022 159 CURVE SMOOTH",
"762 563 LINE"
);
}
);
width = 1228;
}
);
unicode = 006B;
},
{
glyphname = l;
lastChange = "2014-11-14 23:22:00 -0700";
layers = (
{
layerId = UUID0;
name = "Regular Italic";
paths = (
{
closed = 1;
nodes = (
"351 1312 LINE SMOOTH",
"306 1312 OFFCURVE",
"284 1292 OFFCURVE",
"275 1240 CURVE SMOOTH",
"266 1188 OFFCURVE",
"280 1168 OFFCURVE",
"325 1168 CURVE SMOOTH",
"598 1168 LINE",
"447 307 LINE SMOOTH",
"442 280 OFFCURVE",
"440 253 OFFCURVE",
"440 229 CURVE SMOOTH",
"440 73 OFFCURVE",
"536 -22 OFFCURVE",
"709 -22 CURVE SMOOTH",
"806 -22 OFFCURVE",
"907 7 OFFCURVE",
"1009 65 CURVE SMOOTH",
"1046 86 OFFCURVE",
"1057 113 OFFCURVE",
"1039 161 CURVE SMOOTH",
"1021 208 OFFCURVE",
"989 220 OFFCURVE",
"956 200 CURVE SMOOTH",
"874 149 OFFCURVE",
"801 124 OFFCURVE",
"724 124 CURVE SMOOTH",
"632 124 OFFCURVE",
"590 160 OFFCURVE",
"590 243 CURVE SMOOTH",
"590 263 OFFCURVE",
"593 285 OFFCURVE",
"597 310 CURVE SMOOTH",
"762 1244 LINE SMOOTH",
"771 1294 OFFCURVE",
"754 1312 OFFCURVE",
"709 1312 CURVE SMOOTH"
);
}
);
width = 1228;
},
{
layerId = "0791FDB8-5A5D-41D7-9039-1C27D6F382A7";
name = "Bold Italic";
paths = (
{
closed = 1;
nodes = (
"341 1312 LINE SMOOTH",
"296 1312 OFFCURVE",
"273 1292 OFFCURVE",
"258 1199 CURVE SMOOTH",
"243 1106 OFFCURVE",
"256 1087 OFFCURVE",
"301 1087 CURVE SMOOTH",
"534 1087 LINE",
"408 368 LINE SMOOTH",
"402 334 OFFCURVE",
"399 302 OFFCURVE",
"399 272 CURVE SMOOTH",
"399 86 OFFCURVE",
"511 -22 OFFCURVE",
"706 -22 CURVE SMOOTH",
"821 -22 OFFCURVE",
"912 2 OFFCURVE",
"1040 74 CURVE SMOOTH",
"1094 105 OFFCURVE",
"1085 149 OFFCURVE",
"1058 207 CURVE SMOOTH",
"1028 272 OFFCURVE",
"999 300 OFFCURVE",
"949 274 CURVE SMOOTH",
"871 233 OFFCURVE",
"816 215 OFFCURVE",
"750 215 CURVE SMOOTH",
"687 215 OFFCURVE",
"653 246 OFFCURVE",
"653 318 CURVE SMOOTH",
"653 334 OFFCURVE",
"655 352 OFFCURVE",
"658 371 CURVE SMOOTH",
"813 1249 LINE SMOOTH",
"821 1294 OFFCURVE",
"806 1312 OFFCURVE",
"761 1312 CURVE SMOOTH"
);
}
);
width = 1228;
}
);
unicode = 006C;
},
{
glyphname = ldot;
lastChange = "2014-11-14 05:19:55 -0700";
layers = (
{
background = {
paths = (
{
closed = 1;
nodes = (
"598 1168 LINE",
"447 307 LINE SMOOTH",
"442 280 OFFCURVE",
"440 253 OFFCURVE",
"440 229 CURVE SMOOTH",
"440 73 OFFCURVE",
"536 -22 OFFCURVE",
"709 -22 CURVE SMOOTH",
"806 -22 OFFCURVE",
"907 7 OFFCURVE",
"1009 65 CURVE SMOOTH",
"1046 86 OFFCURVE",
"1057 113 OFFCURVE",
"1039 161 CURVE SMOOTH",
"1021 208 OFFCURVE",
"989 220 OFFCURVE",
"956 200 CURVE SMOOTH",
"874 149 OFFCURVE",
"801 124 OFFCURVE",
"724 124 CURVE SMOOTH",
"632 124 OFFCURVE",
"590 160 OFFCURVE",
"590 243 CURVE SMOOTH",
"590 263 OFFCURVE",
"593 285 OFFCURVE",
"597 310 CURVE SMOOTH",
"762 1244 LINE SMOOTH",
"771 1294 OFFCURVE",
"754 1312 OFFCURVE",
"709 1312 CURVE SMOOTH",
"351 1312 LINE SMOOTH",
"306 1312 OFFCURVE",
"284 1292 OFFCURVE",
"275 1240 CURVE SMOOTH",
"266 1188 OFFCURVE",
"280 1168 OFFCURVE",
"325 1168 CURVE SMOOTH"
);
},
{
closed = 1;
nodes = (
"1024 579 OFFCURVE",
"1103 651 OFFCURVE",
"1103 741 CURVE SMOOTH",
"1103 806 OFFCURVE",
"1053 861 OFFCURVE",
"982 861 CURVE SMOOTH",
"898 861 OFFCURVE",
"817 789 OFFCURVE",
"817 700 CURVE SMOOTH",
"817 633 OFFCURVE",
"868 579 OFFCURVE",
"939 579 CURVE SMOOTH"
);
}
);
};
components = (
{
name = l;
transform = "{1, 0, 0, 1, 0, 0}";
},
{
name = dotaccent;
transform = "{1, 0, 0, 1, 202, -500}";
}
);
layerId = UUID0;
name = "Regular Italic";
width = 1228;
},
{
background = {
paths = (
{
closed = 1;
nodes = (
"1101 546 OFFCURVE",
"1183 646 OFFCURVE",
"1183 749 CURVE SMOOTH",
"1183 835 OFFCURVE",
"1117 906 OFFCURVE",
"1025 906 CURVE SMOOTH",
"908 906 OFFCURVE",
"820 806 OFFCURVE",
"820 705 CURVE SMOOTH",
"820 618 OFFCURVE",
"887 546 OFFCURVE",
"979 546 CURVE SMOOTH"
);
},
{
closed = 1;
nodes = (
"761 -22 OFFCURVE",
"852 2 OFFCURVE",
"980 74 CURVE SMOOTH",
"1034 105 OFFCURVE",
"1025 149 OFFCURVE",
"998 207 CURVE SMOOTH",
"968 272 OFFCURVE",
"939 300 OFFCURVE",
"889 274 CURVE SMOOTH",
"811 233 OFFCURVE",
"756 215 OFFCURVE",
"690 215 CURVE SMOOTH",
"627 215 OFFCURVE",
"593 246 OFFCURVE",
"593 318 CURVE SMOOTH",
"593 334 OFFCURVE",
"595 352 OFFCURVE",
"598 371 CURVE SMOOTH",
"753 1249 LINE SMOOTH",
"761 1294 OFFCURVE",
"746 1312 OFFCURVE",
"701 1312 CURVE SMOOTH",
"281 1312 LINE SMOOTH",
"236 1312 OFFCURVE",
"213 1292 OFFCURVE",
"198 1199 CURVE SMOOTH",
"183 1106 OFFCURVE",
"196 1087 OFFCURVE",
"241 1087 CURVE SMOOTH",
"474 1087 LINE",
"348 368 LINE SMOOTH",
"342 334 OFFCURVE",
"339 302 OFFCURVE",
"339 272 CURVE SMOOTH",
"339 86 OFFCURVE",
"451 -22 OFFCURVE",
"646 -22 CURVE SMOOTH"
);
}
);
};
components = (
{
disableAlignment = 1;
name = l;
transform = "{1, 0, 0, 1, -60, 0}";
},
{
name = dotaccent;
transform = "{1, 0, 0, 1, 241, -500}";
}
);
layerId = "0791FDB8-5A5D-41D7-9039-1C27D6F382A7";
name = "Bold Italic";
width = 1228;
}
);
unicode = 0140;
},
{
color = (0,243,255,1);
glyphname = lslash;
lastChange = "2014-05-18 14:45:59 -0700";
layers = (
{
components = (
{
name = l;
transform = "{1, 0, 0, 1, 0, 0}";
}
);
layerId = UUID0;
name = "Regular Italic";
paths = (
{
closed = 1;
nodes = (
"275 550 LINE SMOOTH",
"238 525 OFFCURVE",
"233 500 OFFCURVE",
"261 459 CURVE SMOOTH",
"289 417 OFFCURVE",
"315 413 OFFCURVE",
"352 438 CURVE SMOOTH",
"921 825 LINE SMOOTH",
"958 850 OFFCURVE",
"963 875 OFFCURVE",
"935 916 CURVE SMOOTH",
"907 958 OFFCURVE",
"881 962 OFFCURVE",
"844 937 CURVE SMOOTH"
);
}
);
width = 1228;
},
{
components = (
{
name = l;
transform = "{1, 0, 0, 1, 0, 0}";
}
);
layerId = "0791FDB8-5A5D-41D7-9039-1C27D6F382A7";
name = "Bold Italic";
paths = (
{
closed = 1;
nodes = (
"206 578 LINE SMOOTH",
"163 555 OFFCURVE",
"153 530 OFFCURVE",
"183 457 CURVE SMOOTH",
"214 384 OFFCURVE",
"237 379 OFFCURVE",
"279 402 CURVE SMOOTH",
"1004 791 LINE SMOOTH",
"1046 814 OFFCURVE",
"1057 838 OFFCURVE",
"1027 911 CURVE SMOOTH",
"996 984 OFFCURVE",
"973 990 OFFCURVE",
"930 967 CURVE SMOOTH"
);
}
);
width = 1228;
}
);
unicode = 0142;
},
{
glyphname = m;
lastChange = "2014-05-18 14:56:29 -0700";
layers = (
{
layerId = UUID0;
name = "Regular Italic";
paths = (
{
closed = 1;
nodes = (
"899 946 OFFCURVE",
"802 889 OFFCURVE",
"726 765 CURVE",
"720 884 OFFCURVE",
"655 946 OFFCURVE",
"568 946 CURVE SMOOTH",
"486 946 OFFCURVE",
"390 886 OFFCURVE",
"314 757 CURVE",
"334 869 LINE SMOOTH",
"342 915 OFFCURVE",
"329 934 OFFCURVE",
"279 934 CURVE SMOOTH",
"277 934 LINE SMOOTH",
"227 934 OFFCURVE",
"212 915 OFFCURVE",
"204 869 CURVE SMOOTH",
"60 55 LINE SMOOTH",
"52 9 OFFCURVE",
"67 -10 OFFCURVE",
"123 -10 CURVE SMOOTH",
"125 -10 LINE SMOOTH",
"178 -10 OFFCURVE",
"202 9 OFFCURVE",
"210 55 CURVE SMOOTH",
"277 437 LINE SMOOTH",
"312 639 OFFCURVE",
"420 798 OFFCURVE",
"515 798 CURVE SMOOTH",
"568 798 OFFCURVE",
"591 768 OFFCURVE",
"591 712 CURVE SMOOTH",
"591 696 OFFCURVE",
"589 679 OFFCURVE",
"586 660 CURVE SMOOTH",
"479 55 LINE SMOOTH",
"471 9 OFFCURVE",
"486 -10 OFFCURVE",
"542 -10 CURVE SMOOTH",
"544 -10 LINE SMOOTH",
"597 -10 OFFCURVE",
"621 9 OFFCURVE",
"629 55 CURVE SMOOTH",
"696 437 LINE SMOOTH",
"731 639 OFFCURVE",
"839 798 OFFCURVE",
"934 798 CURVE SMOOTH",
"987 798 OFFCURVE",
"1010 768 OFFCURVE",
"1010 712 CURVE SMOOTH",
"1010 697 OFFCURVE",
"1008 679 OFFCURVE",
"1005 660 CURVE SMOOTH",
"898 55 LINE SMOOTH",
"890 9 OFFCURVE",
"905 -10 OFFCURVE",
"961 -10 CURVE SMOOTH",
"963 -10 LINE SMOOTH",
"1016 -10 OFFCURVE",
"1040 9 OFFCURVE",
"1048 55 CURVE SMOOTH",
"1156 668 LINE SMOOTH",
"1161 694 OFFCURVE",
"1163 718 OFFCURVE",
"1163 740 CURVE SMOOTH",
"1163 873 OFFCURVE",
"1084 946 OFFCURVE",
"985 946 CURVE SMOOTH"
);
}
);
width = 1228;
},
{
layerId = "0791FDB8-5A5D-41D7-9039-1C27D6F382A7";
name = "Bold Italic";
paths = (
{
closed = 1;
nodes = (
"940 946 OFFCURVE",
"839 878 OFFCURVE",
"764 743 CURVE",
"755 871 OFFCURVE",
"708 946 OFFCURVE",
"604 946 CURVE SMOOTH",
"504 946 OFFCURVE",
"408 869 OFFCURVE",
"324 717 CURVE",
"349 861 LINE SMOOTH",
"357 906 OFFCURVE",
"342 924 OFFCURVE",
"297 924 CURVE SMOOTH",
"243 924 LINE SMOOTH",
"198 924 OFFCURVE",
"177 906 OFFCURVE",
"169 861 CURVE SMOOTH",
"29 63 LINE SMOOTH",
"21 18 OFFCURVE",
"36 0 OFFCURVE",
"81 0 CURVE SMOOTH",
"205 0 LINE SMOOTH",
"250 0 OFFCURVE",
"271 18 OFFCURVE",
"279 63 CURVE SMOOTH",
"339 403 LINE SMOOTH",
"372 595 OFFCURVE",
"430 689 OFFCURVE",
"491 689 CURVE SMOOTH",
"518 689 OFFCURVE",
"530 671 OFFCURVE",
"530 635 CURVE SMOOTH",
"530 621 OFFCURVE",
"528 605 OFFCURVE",
"525 586 CURVE SMOOTH",
"433 63 LINE SMOOTH",
"425 18 OFFCURVE",
"440 0 OFFCURVE",
"485 0 CURVE SMOOTH",
"609 0 LINE SMOOTH",
"654 0 OFFCURVE",
"675 18 OFFCURVE",
"683 63 CURVE SMOOTH",
"743 403 LINE SMOOTH",
"776 595 OFFCURVE",
"834 689 OFFCURVE",
"895 689 CURVE SMOOTH",
"922 689 OFFCURVE",
"934 671 OFFCURVE",
"934 635 CURVE SMOOTH",
"934 621 OFFCURVE",
"932 605 OFFCURVE",
"929 586 CURVE SMOOTH",
"837 63 LINE SMOOTH",
"829 18 OFFCURVE",
"844 0 OFFCURVE",
"889 0 CURVE SMOOTH",
"1013 0 LINE SMOOTH",
"1058 0 OFFCURVE",
"1079 18 OFFCURVE",
"1087 63 CURVE SMOOTH",
"1187 633 LINE SMOOTH",
"1194 671 OFFCURVE",
"1197 705 OFFCURVE",
"1197 736 CURVE SMOOTH",
"1197 878 OFFCURVE",
"1130 946 OFFCURVE",
"1034 946 CURVE SMOOTH"
);
}
);
width = 1228;
}
);
unicode = 006D;
},
{
glyphname = n;
lastChange = "2014-11-16 14:20:17 -0700";
layers = (
{
layerId = UUID0;
name = "Regular Italic";
paths = (
{
closed = 1;
nodes = (
"667 946 OFFCURVE",
"507 850 OFFCURVE",
"398 716 CURVE",
"425 869 LINE SMOOTH",
"433 915 OFFCURVE",
"418 934 OFFCURVE",
"365 934 CURVE SMOOTH",
"363 934 LINE SMOOTH",
"310 934 OFFCURVE",
"293 915 OFFCURVE",
"285 869 CURVE SMOOTH",
"141 55 LINE SMOOTH",
"133 9 OFFCURVE",
"148 -10 OFFCURVE",
"204 -10 CURVE SMOOTH",
"206 -10 LINE SMOOTH",
"259 -10 OFFCURVE",
"283 9 OFFCURVE",
"291 55 CURVE SMOOTH",
"351 392 LINE SMOOTH",
"391 620 OFFCURVE",
"611 798 OFFCURVE",
"782 798 CURVE SMOOTH",
"887 798 OFFCURVE",
"935 744 OFFCURVE",
"935 659 CURVE SMOOTH",
"935 642 OFFCURVE",
"933 624 OFFCURVE",
"930 605 CURVE SMOOTH",
"833 55 LINE SMOOTH",
"825 9 OFFCURVE",
"840 -10 OFFCURVE",
"896 -10 CURVE SMOOTH",
"898 -10 LINE SMOOTH",
"951 -10 OFFCURVE",
"975 9 OFFCURVE",
"983 55 CURVE SMOOTH",
"1081 610 LINE SMOOTH",
"1086 637 OFFCURVE",
"1088 662 OFFCURVE",
"1088 686 CURVE SMOOTH",
"1088 844 OFFCURVE",
"985 946 OFFCURVE",
"813 946 CURVE SMOOTH"
);
}
);
width = 1228;
},
{
layerId = "0791FDB8-5A5D-41D7-9039-1C27D6F382A7";
name = "Bold Italic";
paths = (
{
closed = 1;
nodes = (
"677 946 OFFCURVE",
"543 859 OFFCURVE",
"438 726 CURVE",
"461 861 LINE SMOOTH",
"469 906 OFFCURVE",
"454 924 OFFCURVE",
"409 924 CURVE SMOOTH",
"325 924 LINE SMOOTH",
"280 924 OFFCURVE",
"259 906 OFFCURVE",
"251 861 CURVE SMOOTH",
"111 63 LINE SMOOTH",
"103 18 OFFCURVE",
"118 0 OFFCURVE",
"163 0 CURVE SMOOTH",
"287 0 LINE SMOOTH",
"332 0 OFFCURVE",
"353 18 OFFCURVE",
"361 63 CURVE SMOOTH",
"413 358 LINE SMOOTH",
"446 546 OFFCURVE",
"611 709 OFFCURVE",
"740 709 CURVE SMOOTH",
"820 709 OFFCURVE",
"854 668 OFFCURVE",
"854 600 CURVE SMOOTH",
"854 585 OFFCURVE",
"852 569 OFFCURVE",
"849 551 CURVE SMOOTH",
"763 63 LINE SMOOTH",
"755 18 OFFCURVE",
"770 0 OFFCURVE",
"815 0 CURVE SMOOTH",
"939 0 LINE SMOOTH",
"984 0 OFFCURVE",
"1005 18 OFFCURVE",
"1013 63 CURVE SMOOTH",
"1105 590 LINE SMOOTH",
"1109 614 OFFCURVE",
"1111 637 OFFCURVE",
"1111 660 CURVE SMOOTH",
"1111 825 OFFCURVE",
"1001 946 OFFCURVE",
"826 946 CURVE SMOOTH"
);
}
);
width = 1228;
}
);
unicode = 006E;
},
{
glyphname = eng;
lastChange = "2014-11-16 17:31:20 -0700";
layers = (
{
components = (
{
name = n;
transform = "{1, 0, 0, 1, 0, 0}";
}
);
layerId = UUID0;
name = "Regular Italic";
paths = (
{
closed = 1;
nodes = (
"858 198 LINE",
"804 -107 LINE SMOOTH",
"784 -220 OFFCURVE",
"730 -264 OFFCURVE",
"648 -264 CURVE SMOOTH",
"588 -264 OFFCURVE",
"527 -246 OFFCURVE",
"478 -224 CURVE SMOOTH",
"451 -212 OFFCURVE",
"417 -219 OFFCURVE",
"395 -266 CURVE SMOOTH",
"371 -317 OFFCURVE",
"380 -343 OFFCURVE",
"415 -360 CURVE SMOOTH",
"478 -390 OFFCURVE",
"557 -410 OFFCURVE",
"637 -410 CURVE SMOOTH",
"813 -410 OFFCURVE",
"917 -314 OFFCURVE",
"949 -135 CURVE SMOOTH",
"1008 198 LINE"
);
}
);
width = 1228;
},
{
components = (
{
name = n;
transform = "{1, 0, 0, 1, 0, 0}";
}
);
layerId = "0791FDB8-5A5D-41D7-9039-1C27D6F382A7";
name = "Bold Italic";
paths = (
{
closed = 1;
nodes = (
"811 336 LINE",
"745 -39 LINE SMOOTH",
"728 -135 OFFCURVE",
"675 -173 OFFCURVE",
"592 -173 CURVE SMOOTH",
"555 -173 OFFCURVE",
"501 -162 OFFCURVE",
"456 -147 CURVE SMOOTH",
"417 -134 OFFCURVE",
"386 -153 OFFCURVE",
"355 -235 CURVE SMOOTH",
"323 -319 OFFCURVE",
"334 -353 OFFCURVE",
"375 -370 CURVE SMOOTH",
"439 -396 OFFCURVE",
"512 -410 OFFCURVE",
"577 -410 CURVE SMOOTH",
"816 -410 OFFCURVE",
"950 -292 OFFCURVE",
"992 -55 CURVE SMOOTH",
"1061 336 LINE"
);
}
);
width = 1228;
}
);
unicode = 014B;
},
{
glyphname = o;
lastChange = "2014-05-18 14:48:23 -0700";
layers = (
{
layerId = UUID0;
name = "Regular Italic";
paths = (
{
closed = 1;
nodes = (
"357 946 OFFCURVE",
"130 679 OFFCURVE",
"130 386 CURVE SMOOTH",
"130 150 OFFCURVE",
"299 -22 OFFCURVE",
"550 -22 CURVE SMOOTH",
"893 -22 OFFCURVE",
"1120 245 OFFCURVE",
"1120 538 CURVE SMOOTH",
"1120 774 OFFCURVE",
"951 946 OFFCURVE",
"700 946 CURVE SMOOTH"
);
},
{
closed = 1;
nodes = (
"860 798 OFFCURVE",
"967 689 OFFCURVE",
"967 530 CURVE SMOOTH",
"967 317 OFFCURVE",
"801 126 OFFCURVE",
"566 126 CURVE SMOOTH",
"390 126 OFFCURVE",
"283 235 OFFCURVE",
"283 394 CURVE SMOOTH",
"283 607 OFFCURVE",
"449 798 OFFCURVE",
"684 798 CURVE SMOOTH"
);
}
);
width = 1228;
},
{
layerId = "0791FDB8-5A5D-41D7-9039-1C27D6F382A7";
name = "Bold Italic";
paths = (
{
closed = 1;
nodes = (
"300 946 OFFCURVE",
"119 650 OFFCURVE",
"119 388 CURVE SMOOTH",
"119 153 OFFCURVE",
"276 -22 OFFCURVE",
"550 -22 CURVE SMOOTH",
"960 -22 OFFCURVE",
"1130 285 OFFCURVE",
"1130 536 CURVE SMOOTH",
"1130 770 OFFCURVE",
"973 946 OFFCURVE",
"700 946 CURVE SMOOTH"
);
},
{
closed = 1;
nodes = (
"795 714 OFFCURVE",
"869 643 OFFCURVE",
"869 522 CURVE SMOOTH",
"869 360 OFFCURVE",
"762 210 OFFCURVE",
"580 210 CURVE SMOOTH",
"455 210 OFFCURVE",
"380 280 OFFCURVE",
"380 401 CURVE SMOOTH",
"380 563 OFFCURVE",
"487 714 OFFCURVE",
"670 714 CURVE SMOOTH"
);
}
);
width = 1228;
}
);
unicode = 006F;
},
{
color = (0,243,255,1);
glyphname = oslash;
lastChange = "2014-05-18 14:45:59 -0700";
layers = (
{
components = (
{
name = o;
transform = "{1, 0, 0, 1, 0, 0}";
}
);
layerId = UUID0;
name = "Regular Italic";
paths = (
{
closed = 1;
nodes = (
"85 101 LINE SMOOTH",
"47 69 OFFCURVE",
"53 41 OFFCURVE",
"81 6 CURVE SMOOTH",
"108 -29 OFFCURVE",
"146 -31 OFFCURVE",
"185 1 CURVE SMOOTH",
"1163 822 LINE SMOOTH",
"1203 854 OFFCURVE",
"1197 883 OFFCURVE",
"1169 918 CURVE SMOOTH",
"1142 953 OFFCURVE",
"1103 955 OFFCURVE",
"1064 923 CURVE SMOOTH"
);
}
);
width = 1228;
},
{
components = (
{
name = o;
transform = "{1, 0, 0, 1, 0, 0}";
}
);
layerId = "0791FDB8-5A5D-41D7-9039-1C27D6F382A7";
name = "Bold Italic";
paths = (
{
closed = 1;
nodes = (
"116 130 LINE SMOOTH",
"80 98 OFFCURVE",
"75 72 OFFCURVE",
"120 20 CURVE SMOOTH",
"165 -32 OFFCURVE",
"191 -32 OFFCURVE",
"228 1 CURVE SMOOTH",
"1134 794 LINE SMOOTH",
"1170 826 OFFCURVE",
"1175 852 OFFCURVE",
"1130 904 CURVE SMOOTH",
"1085 956 OFFCURVE",
"1059 956 OFFCURVE",
"1022 923 CURVE SMOOTH"
);
}
);
width = 1228;
}
);
unicode = 00F8;
},
{
glyphname = oe;
lastChange = "2014-11-15 18:05:57 -0700";
layers = (
{
layerId = UUID0;
name = "Regular Italic";
paths = (
{
closed = 1;
nodes = (
"843 946 OFFCURVE",
"751 904 OFFCURVE",
"675 806 CURVE",
"642 897 OFFCURVE",
"574 946 OFFCURVE",
"468 946 CURVE SMOOTH",
"339 946 OFFCURVE",
"241 878 OFFCURVE",
"173 753 CURVE SMOOTH",
"104 626 OFFCURVE",
"66 430 OFFCURVE",
"66 299 CURVE SMOOTH",
"66 94 OFFCURVE",
"152 -22 OFFCURVE",
"318 -22 CURVE SMOOTH",
"423 -22 OFFCURVE",
"508 26 OFFCURVE",
"573 116 CURVE",
"612 22 OFFCURVE",
"686 -22 OFFCURVE",
"789 -22 CURVE SMOOTH",
"884 -22 OFFCURVE",
"970 14 OFFCURVE",
"1056 84 CURVE SMOOTH",
"1094 114 OFFCURVE",
"1105 149 OFFCURVE",
"1080 187 CURVE SMOOTH",
"1056 225 OFFCURVE",
"1017 226 OFFCURVE",
"988 201 CURVE SMOOTH",
"922 147 OFFCURVE",
"868 123 OFFCURVE",
"804 123 CURVE SMOOTH",
"734 123 OFFCURVE",
"684 170 OFFCURVE",
"684 308 CURVE SMOOTH",
"684 345 OFFCURVE",
"688 389 OFFCURVE",
"696 440 CURVE",
"1095 440 LINE SMOOTH",
"1140 440 OFFCURVE",
"1162 457 OFFCURVE",
"1169 502 CURVE SMOOTH",
"1177 554 OFFCURVE",
"1181 602 OFFCURVE",
"1181 647 CURVE SMOOTH",
"1181 831 OFFCURVE",
"1110 946 OFFCURVE",
"939 946 CURVE SMOOTH"
);
},
{
closed = 1;
nodes = (
"527 798 OFFCURVE",
"564 746 OFFCURVE",
"564 630 CURVE SMOOTH",
"564 524 OFFCURVE",
"533 358 OFFCURVE",
"496 268 CURVE SMOOTH",
"456 170 OFFCURVE",
"403 126 OFFCURVE",
"334 126 CURVE SMOOTH",
"259 126 OFFCURVE",
"221 178 OFFCURVE",
"221 294 CURVE SMOOTH",
"221 400 OFFCURVE",
"252 566 OFFCURVE",
"289 656 CURVE SMOOTH",
"329 754 OFFCURVE",
"383 798 OFFCURVE",
"452 798 CURVE SMOOTH"
);
},
{
closed = 1;
nodes = (
"1001 801 OFFCURVE",
"1031 745 OFFCURVE",
"1031 649 CURVE SMOOTH",
"1031 628 OFFCURVE",
"1029 605 OFFCURVE",
"1026 580 CURVE",
"726 580 LINE",
"770 739 OFFCURVE",
"834 801 OFFCURVE",
"926 801 CURVE SMOOTH"
);
}
);
width = 1228;
},
{
layerId = "0791FDB8-5A5D-41D7-9039-1C27D6F382A7";
name = "Bold Italic";
paths = (
{
closed = 1;
nodes = (
"841 946 OFFCURVE",
"755 908 OFFCURVE",
"677 836 CURVE",
"637 903 OFFCURVE",
"563 946 OFFCURVE",
"460 946 CURVE SMOOTH",
"342 946 OFFCURVE",
"252 903 OFFCURVE",
"185 827 CURVE SMOOTH",
"80 709 OFFCURVE",
"28 489 OFFCURVE",
"28 333 CURVE SMOOTH",
"28 127 OFFCURVE",
"119 -22 OFFCURVE",
"330 -22 CURVE SMOOTH",
"434 -22 OFFCURVE",
"516 17 OFFCURVE",
"580 84 CURVE",
"621 17 OFFCURVE",
"688 -22 OFFCURVE",
"789 -22 CURVE SMOOTH",
"896 -22 OFFCURVE",
"996 10 OFFCURVE",
"1093 49 CURVE SMOOTH",
"1143 69 OFFCURVE",
"1154 99 OFFCURVE",
"1132 179 CURVE SMOOTH",
"1110 259 OFFCURVE",
"1086 273 OFFCURVE",
"1040 255 CURVE SMOOTH",
"960 224 OFFCURVE",
"899 205 OFFCURVE",
"824 205 CURVE SMOOTH",
"756 205 OFFCURVE",
"717 249 OFFCURVE",
"717 332 CURVE SMOOTH",
"717 346 OFFCURVE",
"718 361 OFFCURVE",
"719 370 CURVE",
"1125 370 LINE SMOOTH",
"1170 370 OFFCURVE",
"1191 387 OFFCURVE",
"1199 432 CURVE SMOOTH",
"1210 497 OFFCURVE",
"1217 558 OFFCURVE",
"1217 614 CURVE SMOOTH",
"1217 813 OFFCURVE",
"1138 946 OFFCURVE",
"934 946 CURVE SMOOTH"
);
},
{
closed = 1;
nodes = (
"500 719 OFFCURVE",
"528 679 OFFCURVE",
"528 594 CURVE SMOOTH",
"528 504 OFFCURVE",
"496 333 OFFCURVE",
"450 264 CURVE SMOOTH",
"424 224 OFFCURVE",
"392 205 OFFCURVE",
"350 205 CURVE SMOOTH",
"290 205 OFFCURVE",
"262 245 OFFCURVE",
"262 330 CURVE SMOOTH",
"262 422 OFFCURVE",
"292 580 OFFCURVE",
"334 650 CURVE SMOOTH",
"361 696 OFFCURVE",
"395 719 OFFCURVE",
"440 719 CURVE SMOOTH"
);
},
{
closed = 1;
nodes = (
"972 719 OFFCURVE",
"1000 677 OFFCURVE",
"1000 605 CURVE SMOOTH",
"1000 592 OFFCURVE",
"999 579 OFFCURVE",
"997 565 CURVE",
"753 565 LINE",
"785 669 OFFCURVE",
"833 719 OFFCURVE",
"914 719 CURVE SMOOTH"
);
}
);
width = 1228;
}
);
unicode = 0153;
},
{
glyphname = p;
lastChange = "2014-11-16 17:31:26 -0700";
layers = (
{
layerId = UUID0;
name = "Regular Italic";
paths = (
{
closed = 1;
nodes = (
"617 946 OFFCURVE",
"501 893 OFFCURVE",
"401 790 CURVE",
"415 869 LINE SMOOTH",
"423 915 OFFCURVE",
"408 934 OFFCURVE",
"355 934 CURVE SMOOTH",
"353 934 LINE SMOOTH",
"300 934 OFFCURVE",
"283 915 OFFCURVE",
"275 869 CURVE SMOOTH",
"63 -333 LINE SMOOTH",
"55 -379 OFFCURVE",
"70 -398 OFFCURVE",
"126 -398 CURVE SMOOTH",
"128 -398 LINE SMOOTH",
"181 -398 OFFCURVE",
"205 -379 OFFCURVE",
"213 -333 CURVE SMOOTH",
"307 200 LINE",
"292 156 LINE",
"354 44 OFFCURVE",
"458 -22 OFFCURVE",
"595 -22 CURVE SMOOTH",
"948 -22 OFFCURVE",
"1107 299 OFFCURVE",
"1107 558 CURVE SMOOTH",
"1107 797 OFFCURVE",
"960 946 OFFCURVE",
"745 946 CURVE SMOOTH"
);
},
{
closed = 1;
nodes = (
"872 798 OFFCURVE",
"954 698 OFFCURVE",
"954 549 CURVE SMOOTH",
"954 343 OFFCURVE",
"826 126 OFFCURVE",
"601 126 CURVE SMOOTH",
"447 126 OFFCURVE",
"346 219 OFFCURVE",
"346 383 CURVE SMOOTH",
"346 589 OFFCURVE",
"482 798 OFFCURVE",
"719 798 CURVE SMOOTH"
);
}
);
width = 1228;
},
{
layerId = "0791FDB8-5A5D-41D7-9039-1C27D6F382A7";
name = "Bold Italic";
paths = (
{
closed = 1;
nodes = (
"635 946 OFFCURVE",
"524 881 OFFCURVE",
"446 789 CURVE",
"458 861 LINE SMOOTH",
"465 906 OFFCURVE",
"451 924 OFFCURVE",
"406 924 CURVE SMOOTH",
"322 924 LINE SMOOTH",
"277 924 OFFCURVE",
"256 906 OFFCURVE",
"248 861 CURVE SMOOTH",
"39 -325 LINE SMOOTH",
"31 -370 OFFCURVE",
"46 -388 OFFCURVE",
"91 -388 CURVE SMOOTH",
"215 -388 LINE SMOOTH",
"260 -388 OFFCURVE",
"281 -370 OFFCURVE",
"289 -325 CURVE SMOOTH",
"372 145 LINE",
"348 125 LINE",
"402 35 OFFCURVE",
"499 -22 OFFCURVE",
"616 -22 CURVE SMOOTH",
"959 -22 OFFCURVE",
"1121 292 OFFCURVE",
"1121 544 CURVE SMOOTH",
"1121 780 OFFCURVE",
"985 946 OFFCURVE",
"766 946 CURVE SMOOTH"
);
},
{
closed = 1;
nodes = (
"799 714 OFFCURVE",
"861 645 OFFCURVE",
"861 533 CURVE SMOOTH",
"861 399 OFFCURVE",
"788 210 OFFCURVE",
"606 210 CURVE SMOOTH",
"497 210 OFFCURVE",
"415 277 OFFCURVE",
"415 402 CURVE SMOOTH",
"415 547 OFFCURVE",
"514 714 OFFCURVE",
"694 714 CURVE SMOOTH"
);
}
);
width = 1228;
}
);
unicode = 0070;
},
{
glyphname = thorn;
lastChange = "2014-11-16 17:31:32 -0700";
layers = (
{
layerId = UUID0;
name = "Regular Italic";
paths = (
{
closed = 1;
nodes = (
"428 1322 LINE SMOOTH",
"375 1322 OFFCURVE",
"351 1303 OFFCURVE",
"343 1257 CURVE SMOOTH",
"63 -333 LINE SMOOTH",
"55 -379 OFFCURVE",
"70 -398 OFFCURVE",
"126 -398 CURVE SMOOTH",
"128 -398 LINE SMOOTH",
"181 -398 OFFCURVE",
"205 -379 OFFCURVE",
"213 -333 CURVE SMOOTH",
"307 200 LINE",
"292 156 LINE",
"354 44 OFFCURVE",
"458 -22 OFFCURVE",
"595 -22 CURVE SMOOTH",
"948 -22 OFFCURVE",
"1107 299 OFFCURVE",
"1107 558 CURVE SMOOTH",
"1107 797 OFFCURVE",
"960 946 OFFCURVE",
"745 946 CURVE SMOOTH",
"622 946 OFFCURVE",
"509 896 OFFCURVE",
"412 801 CURVE",
"493 1257 LINE SMOOTH",
"501 1303 OFFCURVE",
"486 1322 OFFCURVE",
"430 1322 CURVE SMOOTH"
);
},
{
closed = 1;
nodes = (
"872 798 OFFCURVE",
"954 698 OFFCURVE",
"954 549 CURVE SMOOTH",
"954 343 OFFCURVE",
"826 126 OFFCURVE",
"601 126 CURVE SMOOTH",
"447 126 OFFCURVE",
"346 219 OFFCURVE",
"346 383 CURVE SMOOTH",
"346 589 OFFCURVE",
"482 798 OFFCURVE",
"719 798 CURVE SMOOTH"
);
}
);
width = 1228;
},
{
layerId = "0791FDB8-5A5D-41D7-9039-1C27D6F382A7";
name = "Bold Italic";
paths = (
{
closed = 1;
nodes = (
"390 1312 LINE SMOOTH",
"345 1312 OFFCURVE",
"324 1294 OFFCURVE",
"316 1249 CURVE SMOOTH",
"39 -325 LINE SMOOTH",
"31 -370 OFFCURVE",
"46 -388 OFFCURVE",
"91 -388 CURVE SMOOTH",
"215 -388 LINE SMOOTH",
"260 -388 OFFCURVE",
"281 -370 OFFCURVE",
"289 -325 CURVE SMOOTH",
"372 145 LINE",
"348 125 LINE",
"402 35 OFFCURVE",
"499 -22 OFFCURVE",
"616 -22 CURVE SMOOTH",
"959 -22 OFFCURVE",
"1121 292 OFFCURVE",
"1121 544 CURVE SMOOTH",
"1121 780 OFFCURVE",
"985 946 OFFCURVE",
"766 946 CURVE SMOOTH",
"660 946 OFFCURVE",
"567 903 OFFCURVE",
"494 838 CURVE",
"566 1249 LINE SMOOTH",
"574 1294 OFFCURVE",
"559 1312 OFFCURVE",
"514 1312 CURVE SMOOTH"
);
},
{
closed = 1;
nodes = (
"799 714 OFFCURVE",
"861 645 OFFCURVE",
"861 533 CURVE SMOOTH",
"861 399 OFFCURVE",
"788 210 OFFCURVE",
"606 210 CURVE SMOOTH",
"497 210 OFFCURVE",
"415 277 OFFCURVE",
"415 402 CURVE SMOOTH",
"415 547 OFFCURVE",
"514 714 OFFCURVE",
"694 714 CURVE SMOOTH"
);
}
);
width = 1228;
}
);
unicode = 00FE;
},
{
glyphname = q;
lastChange = "2014-11-16 17:31:38 -0700";
layers = (
{
layerId = UUID0;
name = "Regular Italic";
paths = (
{
closed = 1;
nodes = (
"302 946 OFFCURVE",
"143 625 OFFCURVE",
"143 366 CURVE SMOOTH",
"143 127 OFFCURVE",
"290 -22 OFFCURVE",
"505 -22 CURVE SMOOTH",
"633 -22 OFFCURVE",
"745 31 OFFCURVE",
"837 122 CURVE",
"757 -333 LINE SMOOTH",
"749 -379 OFFCURVE",
"764 -398 OFFCURVE",
"820 -398 CURVE SMOOTH",
"822 -398 LINE SMOOTH",
"875 -398 OFFCURVE",
"899 -379 OFFCURVE",
"907 -333 CURVE SMOOTH",
"1119 869 LINE SMOOTH",
"1127 915 OFFCURVE",
"1112 934 OFFCURVE",
"1059 934 CURVE SMOOTH",
"1057 934 LINE SMOOTH",
"1004 934 OFFCURVE",
"987 915 OFFCURVE",
"979 869 CURVE SMOOTH",
"960 766 LINE",
"896 880 OFFCURVE",
"792 946 OFFCURVE",
"655 946 CURVE SMOOTH"
);
},
{
closed = 1;
nodes = (
"803 798 OFFCURVE",
"904 705 OFFCURVE",
"904 541 CURVE SMOOTH",
"904 335 OFFCURVE",
"768 126 OFFCURVE",
"531 126 CURVE SMOOTH",
"378 126 OFFCURVE",
"296 226 OFFCURVE",
"296 375 CURVE SMOOTH",
"296 581 OFFCURVE",
"424 798 OFFCURVE",
"649 798 CURVE SMOOTH"
);
}
);
width = 1228;
},
{
layerId = "0791FDB8-5A5D-41D7-9039-1C27D6F382A7";
name = "Bold Italic";
paths = (
{
closed = 1;
nodes = (
"291 946 OFFCURVE",
"129 632 OFFCURVE",
"129 380 CURVE SMOOTH",
"129 144 OFFCURVE",
"265 -22 OFFCURVE",
"484 -22 CURVE SMOOTH",
"587 -22 OFFCURVE",
"677 21 OFFCURVE",
"757 91 CURVE",
"683 -325 LINE SMOOTH",
"675 -370 OFFCURVE",
"690 -388 OFFCURVE",
"735 -388 CURVE SMOOTH",
"859 -388 LINE SMOOTH",
"904 -388 OFFCURVE",
"925 -370 OFFCURVE",
"933 -325 CURVE SMOOTH",
"1142 861 LINE SMOOTH",
"1150 906 OFFCURVE",
"1135 924 OFFCURVE",
"1090 924 CURVE SMOOTH",
"1006 924 LINE SMOOTH",
"961 924 OFFCURVE",
"940 906 OFFCURVE",
"932 861 CURVE SMOOTH",
"917 772 LINE",
"867 877 OFFCURVE",
"762 946 OFFCURVE",
"634 946 CURVE SMOOTH"
);
},
{
closed = 1;
nodes = (
"753 714 OFFCURVE",
"835 647 OFFCURVE",
"835 522 CURVE SMOOTH",
"835 377 OFFCURVE",
"736 210 OFFCURVE",
"556 210 CURVE SMOOTH",
"451 210 OFFCURVE",
"389 279 OFFCURVE",
"389 391 CURVE SMOOTH",
"389 525 OFFCURVE",
"462 714 OFFCURVE",
"644 714 CURVE SMOOTH"
);
}
);
width = 1228;
}
);
unicode = 0071;
},
{
glyphname = r;
lastChange = "2014-05-18 14:53:55 -0700";
layers = (
{
layerId = UUID0;
name = "Regular Italic";
paths = (
{
closed = 1;
nodes = (
"813 946 OFFCURVE",
"638 837 OFFCURVE",
"490 649 CURVE",
"530 869 LINE SMOOTH",
"538 915 OFFCURVE",
"523 934 OFFCURVE",
"470 934 CURVE SMOOTH",
"468 934 LINE SMOOTH",
"415 934 OFFCURVE",
"398 915 OFFCURVE",
"390 869 CURVE SMOOTH",
"246 55 LINE SMOOTH",
"238 9 OFFCURVE",
"253 -10 OFFCURVE",
"309 -10 CURVE SMOOTH",
"311 -10 LINE SMOOTH",
"364 -10 OFFCURVE",
"388 9 OFFCURVE",
"396 55 CURVE SMOOTH",
"434 270 LINE SMOOTH",
"484 554 OFFCURVE",
"732 786 OFFCURVE",
"964 786 CURVE SMOOTH",
"1000 786 OFFCURVE",
"1036 780 OFFCURVE",
"1071 768 CURVE SMOOTH",
"1110 754 OFFCURVE",
"1137 775 OFFCURVE",
"1152 829 CURVE SMOOTH",
"1166 879 OFFCURVE",
"1159 911 OFFCURVE",
"1119 925 CURVE SMOOTH",
"1077 939 OFFCURVE",
"1035 946 OFFCURVE",
"992 946 CURVE SMOOTH"
);
}
);
width = 1228;
},
{
layerId = "0791FDB8-5A5D-41D7-9039-1C27D6F382A7";
name = "Bold Italic";
paths = (
{
closed = 1;
nodes = (
"801 946 OFFCURVE",
"637 843 OFFCURVE",
"525 674 CURVE",
"558 861 LINE SMOOTH",
"566 906 OFFCURVE",
"551 924 OFFCURVE",
"506 924 CURVE SMOOTH",
"412 924 LINE SMOOTH",
"367 924 OFFCURVE",
"346 906 OFFCURVE",
"338 861 CURVE SMOOTH",
"198 63 LINE SMOOTH",
"190 18 OFFCURVE",
"205 0 OFFCURVE",
"250 0 CURVE SMOOTH",
"374 0 LINE SMOOTH",
"419 0 OFFCURVE",
"440 18 OFFCURVE",
"448 63 CURVE SMOOTH",
"488 290 LINE SMOOTH",
"528 517 OFFCURVE",
"721 678 OFFCURVE",
"923 678 CURVE SMOOTH",
"959 678 OFFCURVE",
"995 673 OFFCURVE",
"1031 662 CURVE SMOOTH",
"1076 648 OFFCURVE",
"1114 682 OFFCURVE",
"1142 767 CURVE SMOOTH",
"1166 845 OFFCURVE",
"1161 894 OFFCURVE",
"1109 916 CURVE SMOOTH",
"1062 936 OFFCURVE",
"1012 946 OFFCURVE",
"963 946 CURVE SMOOTH"
);
}
);
width = 1228;
}
);
unicode = 0072;
},
{
glyphname = s;
lastChange = "2014-11-16 00:15:57 -0700";
layers = (
{
layerId = UUID0;
name = "Regular Italic";
paths = (
{
closed = 1;
nodes = (
"362 946 OFFCURVE",
"229 799 OFFCURVE",
"229 639 CURVE SMOOTH",
"229 529 OFFCURVE",
"294 465 OFFCURVE",
"385 437 CURVE SMOOTH",
"509 399 OFFCURVE",
"640 408 OFFCURVE",
"763 382 CURVE SMOOTH",
"830 368 OFFCURVE",
"871 338 OFFCURVE",
"871 283 CURVE SMOOTH",
"871 224 OFFCURVE",
"815 123 OFFCURVE",
"603 123 CURVE SMOOTH",
"467 123 OFFCURVE",
"342 155 OFFCURVE",
"243 217 CURVE SMOOTH",
"214 235 OFFCURVE",
"181 234 OFFCURVE",
"151 179 CURVE SMOOTH",
"124 130 OFFCURVE",
"136 99 OFFCURVE",
"170 78 CURVE SMOOTH",
"285 7 OFFCURVE",
"426 -22 OFFCURVE",
"588 -22 CURVE SMOOTH",
"937 -22 OFFCURVE",
"1031 175 OFFCURVE",
"1031 300 CURVE SMOOTH",
"1031 417 OFFCURVE",
"963 482 OFFCURVE",
"870 510 CURVE SMOOTH",
"750 546 OFFCURVE",
"619 539 OFFCURVE",
"498 563 CURVE SMOOTH",
"432 576 OFFCURVE",
"389 603 OFFCURVE",
"389 655 CURVE SMOOTH",
"389 728 OFFCURVE",
"464 801 OFFCURVE",
"629 801 CURVE SMOOTH",
"752 801 OFFCURVE",
"870 774 OFFCURVE",
"968 718 CURVE SMOOTH",
"998 701 OFFCURVE",
"1033 707 OFFCURVE",
"1059 759 CURVE SMOOTH",
"1084 809 OFFCURVE",
"1072 840 OFFCURVE",
"1037 859 CURVE SMOOTH",
"924 920 OFFCURVE",
"784 946 OFFCURVE",
"638 946 CURVE SMOOTH"
);
}
);
width = 1228;
},
{
layerId = "0791FDB8-5A5D-41D7-9039-1C27D6F382A7";
name = "Bold Italic";
paths = (
{
closed = 1;
nodes = (
"378 946 OFFCURVE",
"206 821 OFFCURVE",
"206 610 CURVE SMOOTH",
"206 516 OFFCURVE",
"249 458 OFFCURVE",
"312 422 CURVE SMOOTH",
"429 354 OFFCURVE",
"615 359 OFFCURVE",
"717 336 CURVE SMOOTH",
"762 326 OFFCURVE",
"790 310 OFFCURVE",
"790 281 CURVE SMOOTH",
"790 226 OFFCURVE",
"731 190 OFFCURVE",
"587 190 CURVE SMOOTH",
"484 190 OFFCURVE",
"369 209 OFFCURVE",
"248 255 CURVE SMOOTH",
"210 270 OFFCURVE",
"166 256 OFFCURVE",
"140 176 CURVE SMOOTH",
"115 99 OFFCURVE",
"134 65 OFFCURVE",
"174 50 CURVE SMOOTH",
"304 3 OFFCURVE",
"454 -22 OFFCURVE",
"592 -22 CURVE SMOOTH",
"896 -22 OFFCURVE",
"1054 121 OFFCURVE",
"1054 329 CURVE SMOOTH",
"1054 423 OFFCURVE",
"1008 479 OFFCURVE",
"943 514 CURVE SMOOTH",
"823 578 OFFCURVE",
"637 570 OFFCURVE",
"536 592 CURVE SMOOTH",
"493 601 OFFCURVE",
"466 616 OFFCURVE",
"466 643 CURVE SMOOTH",
"466 702 OFFCURVE",
"525 734 OFFCURVE",
"637 734 CURVE SMOOTH",
"740 734 OFFCURVE",
"855 715 OFFCURVE",
"975 669 CURVE SMOOTH",
"1014 654 OFFCURVE",
"1058 670 OFFCURVE",
"1084 748 CURVE SMOOTH",
"1110 826 OFFCURVE",
"1090 859 OFFCURVE",
"1050 874 CURVE SMOOTH",
"920 921 OFFCURVE",
"770 946 OFFCURVE",
"632 946 CURVE SMOOTH"
);
}
);
width = 1228;
}
);
unicode = 0073;
},
{
glyphname = germandbls;
lastChange = "2014-11-15 06:24:47 -0700";
layers = (
{
layerId = UUID0;
name = "Regular Italic";
paths = (
{
closed = 1;
nodes = (
"520 1317 OFFCURVE",
"369 1162 OFFCURVE",
"331 943 CURVE SMOOTH",
"174 55 LINE SMOOTH",
"166 9 OFFCURVE",
"181 -10 OFFCURVE",
"237 -10 CURVE SMOOTH",
"239 -10 LINE SMOOTH",
"292 -10 OFFCURVE",
"316 9 OFFCURVE",
"324 55 CURVE SMOOTH",
"479 932 LINE SMOOTH",
"505 1078 OFFCURVE",
"600 1172 OFFCURVE",
"738 1172 CURVE SMOOTH",
"867 1172 OFFCURVE",
"933 1112 OFFCURVE",
"933 1014 CURVE SMOOTH",
"933 905 OFFCURVE",
"865 776 OFFCURVE",
"690 759 CURVE SMOOTH",
"645 755 OFFCURVE",
"623 736 OFFCURVE",
"615 688 CURVE SMOOTH",
"606 640 OFFCURVE",
"621 619 OFFCURVE",
"666 619 CURVE SMOOTH",
"801 619 OFFCURVE",
"882 549 OFFCURVE",
"882 422 CURVE SMOOTH",
"882 288 OFFCURVE",
"804 126 OFFCURVE",
"567 126 CURVE SMOOTH",
"521 126 OFFCURVE",
"497 105 OFFCURVE",
"493 55 CURVE SMOOTH",
"488 -4 OFFCURVE",
"502 -22 OFFCURVE",
"570 -22 CURVE SMOOTH",
"930 -22 OFFCURVE",
"1038 248 OFFCURVE",
"1038 418 CURVE SMOOTH",
"1038 547 OFFCURVE",
"974 645 OFFCURVE",
"862 695 CURVE",
"1008 765 OFFCURVE",
"1089 880 OFFCURVE",
"1089 1029 CURVE SMOOTH",
"1089 1192 OFFCURVE",
"975 1317 OFFCURVE",
"753 1317 CURVE SMOOTH"
);
}
);
width = 1228;
},
{
background = {
paths = (
{
closed = 1;
nodes = (
"500 1317 OFFCURVE",
"329 1144 OFFCURVE",
"282 877 CURVE SMOOTH",
"139 63 LINE SMOOTH",
"131 18 OFFCURVE",
"146 0 OFFCURVE",
"191 0 CURVE SMOOTH",
"315 0 LINE SMOOTH",
"360 0 OFFCURVE",
"381 18 OFFCURVE",
"389 63 CURVE SMOOTH",
"532 874 LINE SMOOTH",
"556 1015 OFFCURVE",
"629 1090 OFFCURVE",
"737 1090 CURVE SMOOTH",
"832 1090 OFFCURVE",
"871 1041 OFFCURVE",
"871 973 CURVE SMOOTH",
"871 892 OFFCURVE",
"831 784 OFFCURVE",
"698 774 CURVE SMOOTH",
"652 771 OFFCURVE",
"630 746 OFFCURVE",
"615 661 CURVE SMOOTH",
"600 576 OFFCURVE",
"613 549 OFFCURVE",
"658 549 CURVE SMOOTH",
"758 549 OFFCURVE",
"813 504 OFFCURVE",
"813 422 CURVE SMOOTH",
"813 374 OFFCURVE",
"795 315 OFFCURVE",
"764 277 CURVE SMOOTH",
"726 229 OFFCURVE",
"666 205 OFFCURVE",
"585 205 CURVE SMOOTH",
"540 205 OFFCURVE",
"519 176 OFFCURVE",
"513 91 CURVE SMOOTH",
"507 6 OFFCURVE",
"524 -22 OFFCURVE",
"575 -22 CURVE SMOOTH",
"727 -22 OFFCURVE",
"858 17 OFFCURVE",
"948 104 CURVE SMOOTH",
"1034 186 OFFCURVE",
"1076 312 OFFCURVE",
"1076 418 CURVE SMOOTH",
"1076 536 OFFCURVE",
"1019 625 OFFCURVE",
"912 668 CURVE",
"1056 738 OFFCURVE",
"1120 852 OFFCURVE",
"1120 1002 CURVE SMOOTH",
"1120 1182 OFFCURVE",
"997 1317 OFFCURVE",
"765 1317 CURVE SMOOTH"
);
}
);
};
layerId = "0791FDB8-5A5D-41D7-9039-1C27D6F382A7";
name = "Bold Italic";
paths = (
{
closed = 1;
nodes = (
"490 1317 OFFCURVE",
"329 1144 OFFCURVE",
"282 877 CURVE SMOOTH",
"139 63 LINE SMOOTH",
"131 18 OFFCURVE",
"146 0 OFFCURVE",
"191 0 CURVE SMOOTH",
"315 0 LINE SMOOTH",
"360 0 OFFCURVE",
"381 18 OFFCURVE",
"389 63 CURVE SMOOTH",
"532 874 LINE SMOOTH",
"556 1015 OFFCURVE",
"629 1090 OFFCURVE",
"737 1090 CURVE SMOOTH",
"832 1090 OFFCURVE",
"871 1037 OFFCURVE",
"871 969 CURVE SMOOTH",
"871 888 OFFCURVE",
"831 784 OFFCURVE",
"698 774 CURVE SMOOTH",
"652 771 OFFCURVE",
"630 746 OFFCURVE",
"615 661 CURVE SMOOTH",
"600 576 OFFCURVE",
"613 549 OFFCURVE",
"658 549 CURVE SMOOTH",
"758 549 OFFCURVE",
"813 504 OFFCURVE",
"813 422 CURVE SMOOTH",
"813 310 OFFCURVE",
"745 211 OFFCURVE",
"585 205 CURVE SMOOTH",
"540 203 OFFCURVE",
"519 176 OFFCURVE",
"513 91 CURVE SMOOTH",
"507 6 OFFCURVE",
"524 -22 OFFCURVE",
"575 -22 CURVE SMOOTH",
"951 -22 OFFCURVE",
"1076 217 OFFCURVE",
"1076 418 CURVE SMOOTH",
"1076 536 OFFCURVE",
"1019 625 OFFCURVE",
"912 668 CURVE",
"1056 738 OFFCURVE",
"1120 852 OFFCURVE",
"1120 1002 CURVE SMOOTH",
"1120 1182 OFFCURVE",
"987 1317 OFFCURVE",
"755 1317 CURVE SMOOTH"
);
}
);
width = 1228;
}
);
unicode = 00DF;
},
{
glyphname = t;
lastChange = "2014-11-14 23:28:36 -0700";
layers = (
{
layerId = UUID0;
name = "Regular Italic";
paths = (
{
closed = 1;
nodes = (
"543 1209 OFFCURVE",
"522 1190 OFFCURVE",
"514 1144 CURVE SMOOTH",
"373 341 LINE SMOOTH",
"367 304 OFFCURVE",
"363 269 OFFCURVE",
"363 237 CURVE SMOOTH",
"363 72 OFFCURVE",
"452 -22 OFFCURVE",
"646 -22 CURVE SMOOTH",
"764 -22 OFFCURVE",
"904 27 OFFCURVE",
"1015 90 CURVE SMOOTH",
"1052 111 OFFCURVE",
"1063 138 OFFCURVE",
"1045 186 CURVE SMOOTH",
"1027 233 OFFCURVE",
"995 245 OFFCURVE",
"962 225 CURVE SMOOTH",
"865 168 OFFCURVE",
"754 124 OFFCURVE",
"661 124 CURVE SMOOTH",
"555 124 OFFCURVE",
"514 170 OFFCURVE",
"514 261 CURVE SMOOTH",
"514 285 OFFCURVE",
"517 313 OFFCURVE",
"523 344 CURVE SMOOTH",
"664 1144 LINE SMOOTH",
"672 1190 OFFCURVE",
"655 1209 OFFCURVE",
"599 1209 CURVE SMOOTH"
);
},
{
closed = 1;
nodes = (
"258 844 LINE SMOOTH",
"213 844 OFFCURVE",
"192 824 OFFCURVE",
"183 772 CURVE SMOOTH",
"173 720 OFFCURVE",
"188 700 OFFCURVE",
"233 700 CURVE SMOOTH",
"997 700 LINE SMOOTH",
"1042 700 OFFCURVE",
"1063 720 OFFCURVE",
"1073 772 CURVE SMOOTH",
"1082 824 OFFCURVE",
"1067 844 OFFCURVE",
"1022 844 CURVE SMOOTH"
);
}
);
width = 1228;
},
{
layerId = "0791FDB8-5A5D-41D7-9039-1C27D6F382A7";
name = "Bold Italic";
paths = (
{
closed = 1;
nodes = (
"533 1209 OFFCURVE",
"493 1191 OFFCURVE",
"485 1146 CURVE SMOOTH",
"348 368 LINE SMOOTH",
"342 334 OFFCURVE",
"339 303 OFFCURVE",
"339 273 CURVE SMOOTH",
"339 83 OFFCURVE",
"455 -22 OFFCURVE",
"656 -22 CURVE SMOOTH",
"771 -22 OFFCURVE",
"899 21 OFFCURVE",
"1031 82 CURVE SMOOTH",
"1079 104 OFFCURVE",
"1091 136 OFFCURVE",
"1064 210 CURVE SMOOTH",
"1035 289 OFFCURVE",
"1004 307 OFFCURVE",
"959 288 CURVE SMOOTH",
"866 248 OFFCURVE",
"766 215 OFFCURVE",
"698 215 CURVE SMOOTH",
"630 215 OFFCURVE",
"593 248 OFFCURVE",
"593 321 CURVE SMOOTH",
"593 336 OFFCURVE",
"595 354 OFFCURVE",
"598 371 CURVE SMOOTH",
"735 1146 LINE SMOOTH",
"743 1191 OFFCURVE",
"723 1209 OFFCURVE",
"628 1209 CURVE SMOOTH"
);
},
{
closed = 1;
nodes = (
"242 864 LINE SMOOTH",
"197 864 OFFCURVE",
"174 840 OFFCURVE",
"159 751 CURVE SMOOTH",
"144 662 OFFCURVE",
"157 639 OFFCURVE",
"202 639 CURVE SMOOTH",
"1016 639 LINE SMOOTH",
"1061 639 OFFCURVE",
"1084 662 OFFCURVE",
"1099 751 CURVE SMOOTH",
"1114 840 OFFCURVE",
"1101 864 OFFCURVE",
"1056 864 CURVE SMOOTH"
);
}
);
width = 1228;
}
);
unicode = 0074;
},
{
color = (0,243,255,1);
glyphname = tbar;
lastChange = "2014-11-15 17:56:36 -0700";
layers = (
{
components = (
{
name = t;
transform = "{1, 0, 0, 1, 0, 0}";
}
);
layerId = UUID0;
name = "Regular Italic";
paths = (
{
closed = 1;
nodes = (
"275 580 LINE SMOOTH",
"230 580 OFFCURVE",
"208 560 OFFCURVE",
"199 508 CURVE SMOOTH",
"190 456 OFFCURVE",
"204 436 OFFCURVE",
"249 436 CURVE SMOOTH",
"811 436 LINE SMOOTH",
"856 436 OFFCURVE",
"878 456 OFFCURVE",
"887 508 CURVE SMOOTH",
"896 560 OFFCURVE",
"882 580 OFFCURVE",
"837 580 CURVE SMOOTH"
);
}
);
width = 1228;
},
{
components = (
{
name = t;
transform = "{1, 0, 0, 1, 0, 0}";
}
);
layerId = "0791FDB8-5A5D-41D7-9039-1C27D6F382A7";
name = "Bold Italic";
paths = (
{
closed = 1;
nodes = (
"269 545 LINE SMOOTH",
"224 545 OFFCURVE",
"202 527 OFFCURVE",
"187 442 CURVE SMOOTH",
"172 357 OFFCURVE",
"187 340 OFFCURVE",
"232 340 CURVE SMOOTH",
"794 340 LINE SMOOTH",
"839 340 OFFCURVE",
"860 357 OFFCURVE",
"875 442 CURVE SMOOTH",
"890 527 OFFCURVE",
"876 545 OFFCURVE",
"831 545 CURVE SMOOTH"
);
}
);
width = 1228;
}
);
unicode = 0167;
},
{
glyphname = u;
lastChange = "2014-11-14 23:26:40 -0700";
layers = (
{
layerId = UUID0;
name = "Regular Italic";
paths = (
{
closed = 1;
nodes = (
"1044 934 LINE SMOOTH",
"991 934 OFFCURVE",
"967 915 OFFCURVE",
"959 869 CURVE SMOOTH",
"899 532 LINE SMOOTH",
"859 304 OFFCURVE",
"639 126 OFFCURVE",
"468 126 CURVE SMOOTH",
"363 126 OFFCURVE",
"315 180 OFFCURVE",
"315 265 CURVE SMOOTH",
"315 282 OFFCURVE",
"317 300 OFFCURVE",
"320 319 CURVE SMOOTH",
"417 869 LINE SMOOTH",
"425 915 OFFCURVE",
"410 934 OFFCURVE",
"354 934 CURVE SMOOTH",
"352 934 LINE SMOOTH",
"299 934 OFFCURVE",
"275 915 OFFCURVE",
"267 869 CURVE SMOOTH",
"169 314 LINE SMOOTH",
"164 287 OFFCURVE",
"162 262 OFFCURVE",
"162 238 CURVE SMOOTH",
"162 80 OFFCURVE",
"265 -22 OFFCURVE",
"437 -22 CURVE SMOOTH",
"583 -22 OFFCURVE",
"743 74 OFFCURVE",
"852 208 CURVE",
"825 55 LINE SMOOTH",
"817 9 OFFCURVE",
"832 -10 OFFCURVE",
"885 -10 CURVE SMOOTH",
"887 -10 LINE SMOOTH",
"940 -10 OFFCURVE",
"957 9 OFFCURVE",
"965 55 CURVE SMOOTH",
"1109 869 LINE SMOOTH",
"1117 915 OFFCURVE",
"1102 934 OFFCURVE",
"1046 934 CURVE SMOOTH"
);
}
);
width = 1228;
},
{
layerId = "0791FDB8-5A5D-41D7-9039-1C27D6F382A7";
name = "Bold Italic";
paths = (
{
closed = 1;
nodes = (
"963 924 LINE SMOOTH",
"918 924 OFFCURVE",
"897 906 OFFCURVE",
"889 861 CURVE SMOOTH",
"837 566 LINE SMOOTH",
"804 378 OFFCURVE",
"639 215 OFFCURVE",
"510 215 CURVE SMOOTH",
"430 215 OFFCURVE",
"396 256 OFFCURVE",
"396 324 CURVE SMOOTH",
"396 339 OFFCURVE",
"398 355 OFFCURVE",
"401 373 CURVE SMOOTH",
"487 861 LINE SMOOTH",
"495 906 OFFCURVE",
"480 924 OFFCURVE",
"435 924 CURVE SMOOTH",
"311 924 LINE SMOOTH",
"266 924 OFFCURVE",
"245 906 OFFCURVE",
"237 861 CURVE SMOOTH",
"145 334 LINE SMOOTH",
"141 310 OFFCURVE",
"139 287 OFFCURVE",
"139 264 CURVE SMOOTH",
"139 99 OFFCURVE",
"249 -22 OFFCURVE",
"424 -22 CURVE SMOOTH",
"573 -22 OFFCURVE",
"707 65 OFFCURVE",
"812 198 CURVE",
"789 63 LINE SMOOTH",
"781 18 OFFCURVE",
"796 0 OFFCURVE",
"841 0 CURVE SMOOTH",
"925 0 LINE SMOOTH",
"970 0 OFFCURVE",
"991 18 OFFCURVE",
"999 63 CURVE SMOOTH",
"1139 861 LINE SMOOTH",
"1147 906 OFFCURVE",
"1132 924 OFFCURVE",
"1087 924 CURVE SMOOTH"
);
}
);
width = 1228;
}
);
unicode = 0075;
},
{
color = (0,3,255,1);
glyphname = uogonek;
lastChange = "2014-11-15 17:56:19 -0700";
layers = (
{
background = {
paths = (
{
closed = 1;
nodes = (
"749 -336 OFFCURVE",
"724 -316 OFFCURVE",
"724 -277 CURVE SMOOTH",
"724 -205 OFFCURVE",
"791 -115 OFFCURVE",
"941 4 CURVE",
"923 38 LINE",
"836 48 LINE",
"667 -68 OFFCURVE",
"568 -182 OFFCURVE",
"568 -310 CURVE SMOOTH",
"568 -406 OFFCURVE",
"626 -472 OFFCURVE",
"733 -472 CURVE SMOOTH",
"797 -472 OFFCURVE",
"862 -460 OFFCURVE",
"911 -443 CURVE SMOOTH",
"942 -432 OFFCURVE",
"952 -411 OFFCURVE",
"947 -374 CURVE SMOOTH",
"942 -337 OFFCURVE",
"927 -322 OFFCURVE",
"900 -326 CURVE SMOOTH",
"864 -332 OFFCURVE",
"828 -336 OFFCURVE",
"789 -336 CURVE SMOOTH"
);
},
{
closed = 1;
nodes = (
"363 126 OFFCURVE",
"315 180 OFFCURVE",
"315 265 CURVE SMOOTH",
"315 282 OFFCURVE",
"317 300 OFFCURVE",
"320 319 CURVE SMOOTH",
"417 869 LINE SMOOTH",
"425 915 OFFCURVE",
"407 934 OFFCURVE",
"351 934 CURVE SMOOTH",
"295 934 OFFCURVE",
"275 915 OFFCURVE",
"267 869 CURVE SMOOTH",
"169 314 LINE SMOOTH",
"164 287 OFFCURVE",
"162 262 OFFCURVE",
"162 238 CURVE SMOOTH",
"162 80 OFFCURVE",
"265 -22 OFFCURVE",
"437 -22 CURVE SMOOTH",
"583 -22 OFFCURVE",
"743 74 OFFCURVE",
"852 208 CURVE",
"816 5 LINE",
"886 -10 LINE",
"939 -10 OFFCURVE",
"957 9 OFFCURVE",
"965 55 CURVE SMOOTH",
"1109 869 LINE SMOOTH",
"1117 915 OFFCURVE",
"1099 934 OFFCURVE",
"1043 934 CURVE SMOOTH",
"987 934 OFFCURVE",
"967 915 OFFCURVE",
"959 869 CURVE SMOOTH",
"899 532 LINE SMOOTH",
"859 304 OFFCURVE",
"639 126 OFFCURVE",
"468 126 CURVE SMOOTH"
);
}
);
};
layerId = UUID0;
name = "Regular Italic";
paths = (
{
closed = 1;
nodes = (
"1044 934 LINE SMOOTH",
"991 934 OFFCURVE",
"967 915 OFFCURVE",
"959 869 CURVE SMOOTH",
"899 532 LINE SMOOTH",
"859 304 OFFCURVE",
"639 126 OFFCURVE",
"468 126 CURVE SMOOTH",
"363 126 OFFCURVE",
"315 180 OFFCURVE",
"315 265 CURVE SMOOTH",
"315 282 OFFCURVE",
"317 300 OFFCURVE",
"320 319 CURVE SMOOTH",
"417 869 LINE SMOOTH",
"425 915 OFFCURVE",
"410 934 OFFCURVE",
"354 934 CURVE SMOOTH",
"352 934 LINE SMOOTH",
"299 934 OFFCURVE",
"275 915 OFFCURVE",
"267 869 CURVE SMOOTH",
"169 314 LINE SMOOTH",
"164 287 OFFCURVE",
"162 262 OFFCURVE",
"162 238 CURVE SMOOTH",
"162 80 OFFCURVE",
"265 -22 OFFCURVE",
"437 -22 CURVE SMOOTH",
"583 -22 OFFCURVE",
"743 74 OFFCURVE",
"852 208 CURVE",
"822 38 LINE",
"662 -75 OFFCURVE",
"568 -185.291 OFFCURVE",
"568 -310 CURVE SMOOTH",
"568 -406 OFFCURVE",
"626 -472 OFFCURVE",
"733 -472 CURVE SMOOTH",
"797 -472 OFFCURVE",
"862 -460 OFFCURVE",
"911 -443 CURVE SMOOTH",
"942 -432 OFFCURVE",
"952 -411 OFFCURVE",
"947 -374 CURVE SMOOTH",
"942 -337 OFFCURVE",
"927 -322 OFFCURVE",
"900 -326 CURVE SMOOTH",
"864 -332 OFFCURVE",
"828 -336 OFFCURVE",
"789 -336 CURVE SMOOTH",
"749 -336 OFFCURVE",
"724 -316 OFFCURVE",
"724 -277 CURVE SMOOTH",
"724 -206 OFFCURVE",
"790 -117 OFFCURVE",
"937 1 CURVE",
"952 13 OFFCURVE",
"960 28 OFFCURVE",
"965 55 CURVE SMOOTH",
"1109 869 LINE SMOOTH",
"1117 915 OFFCURVE",
"1102 934 OFFCURVE",
"1046 934 CURVE SMOOTH"
);
}
);
width = 1228;
},
{
layerId = "0791FDB8-5A5D-41D7-9039-1C27D6F382A7";
name = "Bold Italic";
paths = (
{
closed = 1;
nodes = (
"963 924 LINE SMOOTH",
"918 924 OFFCURVE",
"897 906 OFFCURVE",
"889 861 CURVE SMOOTH",
"837 566 LINE SMOOTH",
"804 378 OFFCURVE",
"639 215 OFFCURVE",
"510 215 CURVE SMOOTH",
"430 215 OFFCURVE",
"396 256 OFFCURVE",
"396 324 CURVE SMOOTH",
"396 339 OFFCURVE",
"398 355 OFFCURVE",
"401 373 CURVE SMOOTH",
"487 861 LINE SMOOTH",
"495 906 OFFCURVE",
"480 924 OFFCURVE",
"435 924 CURVE SMOOTH",
"311 924 LINE SMOOTH",
"266 924 OFFCURVE",
"245 906 OFFCURVE",
"237 861 CURVE SMOOTH",
"145 334 LINE SMOOTH",
"141 310 OFFCURVE",
"139 287 OFFCURVE",
"139 264 CURVE SMOOTH",
"139 99 OFFCURVE",
"249 -22 OFFCURVE",
"424 -22 CURVE SMOOTH",
"573 -22 OFFCURVE",
"707 65 OFFCURVE",
"812 198 CURVE",
"782.485 24.5969 LINE",
"627.55 -56.8473 OFFCURVE",
"505 -158.971 OFFCURVE",
"505 -300 CURVE SMOOTH",
"505 -408 OFFCURVE",
"588 -472 OFFCURVE",
"727 -472 CURVE SMOOTH",
"806 -472 OFFCURVE",
"898 -457 OFFCURVE",
"964 -436 CURVE SMOOTH",
"994 -427 OFFCURVE",
"1010 -400 OFFCURVE",
"1004 -350 CURVE SMOOTH",
"998 -302 OFFCURVE",
"979 -280 OFFCURVE",
"952 -285 CURVE SMOOTH",
"912 -292 OFFCURVE",
"872 -298 OFFCURVE",
"833 -298 CURVE SMOOTH",
"784 -298 OFFCURVE",
"755 -280 OFFCURVE",
"755 -235 CURVE SMOOTH",
"755 -163 OFFCURVE",
"850 -77 OFFCURVE",
"973 11.9999 CURVE SMOOTH",
"987 22 OFFCURVE",
"995 39 OFFCURVE",
"999 63 CURVE SMOOTH",
"1139 861 LINE SMOOTH",
"1147 906 OFFCURVE",
"1132 924 OFFCURVE",
"1087 924 CURVE SMOOTH"
);
}
);
width = 1228;
}
);
unicode = 0173;
},
{
glyphname = v;
lastChange = "2014-11-15 06:57:02 -0700";
layers = (
{
layerId = UUID0;
name = "Regular Italic";
paths = (
{
closed = 1;
nodes = (
"1089 946 OFFCURVE",
"1064 942 OFFCURVE",
"1036 898 CURVE SMOOTH",
"562 143 LINE",
"355 890 LINE SMOOTH",
"343 934 OFFCURVE",
"318 938 OFFCURVE",
"264 924 CURVE SMOOTH",
"207 909 OFFCURVE",
"195 884 OFFCURVE",
"207 840 CURVE SMOOTH",
"433 40 LINE SMOOTH",
"445 -3 OFFCURVE",
"474 -22 OFFCURVE",
"540 -22 CURVE SMOOTH",
"606 -22 OFFCURVE",
"642 -3 OFFCURVE",
"669 40 CURVE SMOOTH",
"1169 830 LINE SMOOTH",
"1197 874 OFFCURVE",
"1186 901 OFFCURVE",
"1137 924 CURVE SMOOTH"
);
}
);
width = 1228;
},
{
layerId = "0791FDB8-5A5D-41D7-9039-1C27D6F382A7";
name = "Bold Italic";
paths = (
{
closed = 1;
nodes = (
"1005 953 OFFCURVE",
"963 944 OFFCURVE",
"937 900 CURVE SMOOTH",
"581 298 LINE",
"436 890 LINE SMOOTH",
"425 934 OFFCURVE",
"389 942 OFFCURVE",
"296 926 CURVE SMOOTH",
"206 911 OFFCURVE",
"175 881 OFFCURVE",
"187 836 CURVE SMOOTH",
"397 43 LINE SMOOTH",
"409 -1 OFFCURVE",
"440 -22 OFFCURVE",
"537 -22 CURVE SMOOTH",
"633 -22 OFFCURVE",
"673 -2 OFFCURVE",
"701 43 CURVE SMOOTH",
"1184 820 LINE SMOOTH",
"1213 866 OFFCURVE",
"1191 898 OFFCURVE",
"1097 926 CURVE SMOOTH"
);
}
);
width = 1228;
}
);
unicode = 0076;
},
{
glyphname = w;
lastChange = "2014-11-14 23:30:52 -0700";
layers = (
{
layerId = UUID0;
name = "Regular Italic";
paths = (
{
closed = 1;
nodes = (
"1150 942 OFFCURVE",
"1126 930 OFFCURVE",
"1107 883 CURVE SMOOTH",
"830 210 LINE",
"749 743 LINE SMOOTH",
"745 769 OFFCURVE",
"725 790 OFFCURVE",
"678 790 CURVE SMOOTH",
"628 790 OFFCURVE",
"604 769 OFFCURVE",
"591 743 CURVE SMOOTH",
"322 210 LINE",
"282 873 LINE SMOOTH",
"279 920 OFFCURVE",
"265 933 OFFCURVE",
"207 930 CURVE SMOOTH",
"151 927 OFFCURVE",
"137 908 OFFCURVE",
"140 864 CURVE SMOOTH",
"198 43 LINE SMOOTH",
"201 -4 OFFCURVE",
"222 -22 OFFCURVE",
"273 -22 CURVE SMOOTH",
"330 -22 OFFCURVE",
"359 -3 OFFCURVE",
"382 43 CURVE SMOOTH",
"641 555 LINE",
"720 43 LINE SMOOTH",
"727 -3 OFFCURVE",
"754 -22 OFFCURVE",
"811 -22 CURVE SMOOTH",
"862 -22 OFFCURVE",
"884 -4 OFFCURVE",
"904 43 CURVE SMOOTH",
"1242 842 LINE SMOOTH",
"1262 889 OFFCURVE",
"1258 913 OFFCURVE",
"1202 928 CURVE SMOOTH"
);
}
);
width = 1228;
},
{
layerId = "0791FDB8-5A5D-41D7-9039-1C27D6F382A7";
name = "Bold Italic";
paths = (
{
closed = 1;
nodes = (
"1080 946 OFFCURVE",
"1039 935 OFFCURVE",
"1022 888 CURVE SMOOTH",
"836 373 LINE",
"754 717 LINE SMOOTH",
"746 751 OFFCURVE",
"725 767 OFFCURVE",
"666 767 CURVE SMOOTH",
"608 767 OFFCURVE",
"581 745 OFFCURVE",
"560 710 CURVE SMOOTH",
"355 373 LINE",
"358 878 LINE SMOOTH",
"358 925 OFFCURVE",
"327 935 OFFCURVE",
"240 930 CURVE SMOOTH",
"153 925 OFFCURVE",
"128 902 OFFCURVE",
"129 855 CURVE SMOOTH",
"140 43 LINE SMOOTH",
"141 -4 OFFCURVE",
"167 -22 OFFCURVE",
"248 -22 CURVE SMOOTH",
"329 -22 OFFCURVE",
"371 -1 OFFCURVE",
"398 43 CURVE SMOOTH",
"610 395 LINE",
"694 43 LINE SMOOTH",
"704 -1 OFFCURVE",
"739 -22 OFFCURVE",
"820 -22 CURVE SMOOTH",
"901 -22 OFFCURVE",
"935 -5 OFFCURVE",
"952 43 CURVE",
"1249 841 LINE SMOOTH",
"1266 888 OFFCURVE",
"1248 914 OFFCURVE",
"1163 930 CURVE SMOOTH"
);
}
);
width = 1228;
}
);
unicode = 0077;
},
{
glyphname = x;
lastChange = "2014-11-14 23:46:29 -0700";
layers = (
{
layerId = UUID0;
name = "Regular Italic";
paths = (
{
closed = 1;
nodes = (
"1056 947 OFFCURVE",
"1021 945 OFFCURVE",
"984 909 CURVE SMOOTH",
"613 546 LINE",
"577 526 LINE",
"129 89 LINE SMOOTH",
"92 52 OFFCURVE",
"103 21 OFFCURVE",
"146 0 CURVE SMOOTH",
"192 -23 OFFCURVE",
"228 -21 OFFCURVE",
"265 15 CURVE SMOOTH",
"672 417 LINE",
"709 436 LINE",
"1120 835 LINE SMOOTH",
"1158 871 OFFCURVE",
"1146 903 OFFCURVE",
"1103 924 CURVE SMOOTH"
);
},
{
closed = 1;
nodes = (
"262 903 OFFCURVE",
"248 872 OFFCURVE",
"274 835 CURVE SMOOTH",
"560 431 LINE",
"585 416 LINE",
"863 15 LINE SMOOTH",
"888 -20 OFFCURVE",
"908 -23 OFFCURVE",
"964 0 CURVE SMOOTH",
"1013 21 OFFCURVE",
"1026 53 OFFCURVE",
"1001 89 CURVE SMOOTH",
"695 526 LINE",
"670 542 LINE",
"412 909 LINE SMOOTH",
"387 945 OFFCURVE",
"366 947 OFFCURVE",
"311 924 CURVE SMOOTH"
);
}
);
width = 1228;
},
{
layerId = "0791FDB8-5A5D-41D7-9039-1C27D6F382A7";
name = "Bold Italic";
paths = (
{
closed = 1;
nodes = (
"1013 951 OFFCURVE",
"953 950 OFFCURVE",
"915 910 CURVE SMOOTH",
"573 558 LINE",
"541 570 LINE",
"123 162 LINE SMOOTH",
"75 115 OFFCURVE",
"86 72 OFFCURVE",
"159 21 CURVE SMOOTH",
"229 -28 OFFCURVE",
"287 -26 OFFCURVE",
"325 14 CURVE SMOOTH",
"667 366 LINE",
"699 354 LINE",
"1117 762 LINE SMOOTH",
"1165 809 OFFCURVE",
"1156 851 OFFCURVE",
"1083 902 CURVE SMOOTH"
);
},
{
closed = 1;
nodes = (
"215 847 OFFCURVE",
"205 808 OFFCURVE",
"239 762 CURVE SMOOTH",
"533 364 LINE",
"569 356 LINE",
"807 14 LINE SMOOTH",
"834 -25 OFFCURVE",
"873 -24 OFFCURVE",
"956 25 CURVE SMOOTH",
"1047 79 OFFCURVE",
"1055 117 OFFCURVE",
"1021 162 CURVE SMOOTH",
"727 560 LINE",
"691 568 LINE",
"453 910 LINE SMOOTH",
"426 949 OFFCURVE",
"389 950 OFFCURVE",
"305 900 CURVE SMOOTH"
);
}
);
width = 1228;
}
);
unicode = 0078;
},
{
glyphname = y;
lastChange = "2014-11-16 17:33:06 -0700";
layers = (
{
layerId = UUID0;
name = "Regular Italic";
paths = (
{
closed = 1;
nodes = (
"1088 946 OFFCURVE",
"1064 941 OFFCURVE",
"1035 898 CURVE SMOOTH",
"496 97 LINE",
"231 -291 LINE SMOOTH",
"202 -334 OFFCURVE",
"210 -362 OFFCURVE",
"256 -388 CURVE SMOOTH",
"301 -414 OFFCURVE",
"331 -407 OFFCURVE",
"360 -364 CURVE SMOOTH",
"1168 830 LINE SMOOTH",
"1197 873 OFFCURVE",
"1185 901 OFFCURVE",
"1136 924 CURVE SMOOTH"
);
},
{
closed = 1;
nodes = (
"206 909 OFFCURVE",
"192 883 OFFCURVE",
"206 840 CURVE SMOOTH",
"486 -15 LINE",
"596 140 LINE",
"353 890 LINE SMOOTH",
"339 933 OFFCURVE",
"317 938 OFFCURVE",
"263 924 CURVE SMOOTH"
);
}
);
width = 1228;
},
{
background = {
paths = (
{
closed = 1;
nodes = (
"1184 820 LINE SMOOTH",
"1213 866 OFFCURVE",
"1191 898 OFFCURVE",
"1097 926 CURVE SMOOTH",
"1005 953 OFFCURVE",
"963 944 OFFCURVE",
"937 900 CURVE SMOOTH",
"581 298 LINE",
"436 890 LINE SMOOTH",
"425 934 OFFCURVE",
"389 942 OFFCURVE",
"296 926 CURVE SMOOTH",
"206 911 OFFCURVE",
"175 881 OFFCURVE",
"187 836 CURVE SMOOTH",
"423 -55 LINE",
"509 17 LINE",
"462 100 LINE",
"318 -109 OFFCURVE",
"251 -179 OFFCURVE",
"92 -188 CURVE SMOOTH",
"56 -190 OFFCURVE",
"28 -220 OFFCURVE",
"28 -311 CURVE SMOOTH",
"28 -394 OFFCURVE",
"52 -415 OFFCURVE",
"92 -414 CURVE SMOOTH",
"337 -406 OFFCURVE",
"461 -342 OFFCURVE",
"638 -57 CURVE SMOOTH"
);
}
);
};
layerId = "0791FDB8-5A5D-41D7-9039-1C27D6F382A7";
name = "Bold Italic";
paths = (
{
closed = 1;
nodes = (
"1005 953 OFFCURVE",
"963 944 OFFCURVE",
"937 900 CURVE SMOOTH",
"477 122 LINE",
"200 -284 LINE SMOOTH",
"169 -329 OFFCURVE",
"193 -362 OFFCURVE",
"287 -390 CURVE SMOOTH",
"379 -417 OFFCURVE",
"420 -407 OFFCURVE",
"447 -364 CURVE SMOOTH",
"1184 820 LINE SMOOTH",
"1213 866 OFFCURVE",
"1191 898 OFFCURVE",
"1097 926 CURVE SMOOTH"
);
},
{
closed = 1;
nodes = (
"206 911 OFFCURVE",
"175 881 OFFCURVE",
"187 836 CURVE SMOOTH",
"429 -78 LINE",
"608 190 LINE",
"436 890 LINE SMOOTH",
"425 934 OFFCURVE",
"389 942 OFFCURVE",
"296 926 CURVE SMOOTH"
);
}
);
width = 1228;
}
);
unicode = 0079;
},
{
glyphname = z;
lastChange = "2014-05-18 14:45:59 -0700";
layers = (
{
layerId = UUID0;
name = "Regular Italic";
paths = (
{
closed = 1;
nodes = (
"927 0 LINE SMOOTH",
"972 0 OFFCURVE",
"993 20 OFFCURVE",
"1002 72 CURVE SMOOTH",
"1011 124 OFFCURVE",
"997 144 OFFCURVE",
"952 144 CURVE SMOOTH",
"395 144 LINE",
"1087 810 LINE SMOOTH",
"1098 820 OFFCURVE",
"1107 835 OFFCURVE",
"1110 856 CURVE SMOOTH",
"1117 906 OFFCURVE",
"1104 924 OFFCURVE",
"1059 924 CURVE SMOOTH",
"343 924 LINE SMOOTH",
"298 924 OFFCURVE",
"277 904 OFFCURVE",
"268 852 CURVE SMOOTH",
"259 800 OFFCURVE",
"273 780 OFFCURVE",
"318 780 CURVE SMOOTH",
"845 780 LINE",
"151 113 LINE SMOOTH",
"139 102 OFFCURVE",
"132 87 OFFCURVE",
"129 68 CURVE SMOOTH",
"121 18 OFFCURVE",
"136 0 OFFCURVE",
"181 0 CURVE SMOOTH"
);
}
);
width = 1228;
},
{
layerId = "0791FDB8-5A5D-41D7-9039-1C27D6F382A7";
name = "Bold Italic";
paths = (
{
closed = 1;
nodes = (
"967 0 LINE SMOOTH",
"1012 0 OFFCURVE",
"1034 23 OFFCURVE",
"1049 113 CURVE SMOOTH",
"1065 203 OFFCURVE",
"1051 225 OFFCURVE",
"1006 225 CURVE SMOOTH",
"530 225 LINE",
"1098 740 LINE SMOOTH",
"1126 765 OFFCURVE",
"1136 786 OFFCURVE",
"1140 822 CURVE SMOOTH",
"1150 907 OFFCURVE",
"1137 924 OFFCURVE",
"1092 924 CURVE SMOOTH",
"293 924 LINE SMOOTH",
"248 924 OFFCURVE",
"226 901 OFFCURVE",
"211 811 CURVE SMOOTH",
"195 721 OFFCURVE",
"209 699 OFFCURVE",
"254 699 CURVE SMOOTH",
"709 699 LINE",
"142 184 LINE SMOOTH",
"114 159 OFFCURVE",
"104 138 OFFCURVE",
"99 102 CURVE SMOOTH",
"87 17 OFFCURVE",
"103 0 OFFCURVE",
"148 0 CURVE SMOOTH"
);
}
);
width = 1228;
}
);
unicode = 007A;
},
